<?xml version="1.0" encoding="UTF-8" standalone="no"?>
<!DOCTYPE svg PUBLIC "-//W3C//DTD SVG 1.1//EN" "http://www.w3.org/Graphics/SVG/1.1/DTD/svg11.dtd">
<svg width="100%" height="100%" viewBox="0 0 1163 1409" version="1.1" xmlns="http://www.w3.org/2000/svg" xmlns:xlink="http://www.w3.org/1999/xlink" xml:space="preserve" xmlns:serif="http://www.serif.com/" style="fill-rule:evenodd;clip-rule:evenodd;stroke-linejoin:round;stroke-miterlimit:2;">
    <g id="生态1">
        <path d="M649.514,534.296C648.106,534.798 649.401,535.542 649.514,536.351C651.008,540.7 651.872,544.686 652.677,550.047C653.416,554.962 653.036,560.491 651.887,566.483C651.522,568.384 651.563,570.269 651.095,571.962C651.056,572.11 650.341,572.042 650.306,572.647C650.194,574.475 650.248,574.841 649.514,576.755C649.422,576.995 648.765,576.763 648.724,577.44C648.712,577.622 648.801,577.958 648.724,578.126C648.013,579.663 645.874,583.626 644.769,585.659C644.281,586.558 644.602,587.549 643.978,588.399C643.582,588.94 642.845,589.066 642.395,589.769C641.46,591.234 640.854,592.554 640.024,593.878C636.776,592.403 634.215,590.021 632.115,587.715C631.761,587.328 631.373,587.83 631.324,587.029C631.31,586.82 630.718,585.899 630.533,585.659C630.215,585.245 629.197,584.671 628.952,584.289C628.364,583.377 628.726,582.507 628.16,581.55C627.974,581.236 626.659,580.414 626.578,580.18C626.394,579.642 627.011,577.815 626.578,577.44C626.528,577.398 625.795,577.485 625.787,577.44C624.574,569.532 626.41,563.948 628.952,558.266C629.245,557.61 629.268,556.462 629.742,555.526C629.957,555.102 631.14,554.505 631.324,554.157C632.005,552.864 632.286,551.256 632.906,550.048C633.558,548.779 634.602,547.28 635.278,545.94C635.911,544.684 636.312,543.061 636.86,541.831C636.985,541.55 637.608,541.856 637.651,541.146C637.663,540.964 637.573,540.629 637.651,540.462C637.964,539.78 638.166,539.365 638.442,538.407C638.616,537.803 638.978,537.232 639.232,536.352C639.407,535.748 639.769,535.179 640.024,534.297C640.583,532.362 642.219,527.015 642.395,523.34C646.614,524.243 650.024,528.24 653.469,530.873C654.372,531.563 655.788,531.657 656.632,532.243C657.494,532.842 658.377,533.723 659.005,534.297C659.66,534.898 659.928,536.324 660.587,537.036C661.61,538.142 663.391,538.448 664.541,539.776C664.752,540.018 664.278,540.959 664.541,541.145C664.66,541.229 665.251,541.04 665.332,541.145C666.042,542.063 666.157,542.883 666.914,543.885C667.201,544.266 667.657,543.778 667.704,544.57C667.759,545.46 668.923,545.424 669.286,545.94C669.464,546.19 669.035,547.132 669.286,547.31C669.379,547.375 670.03,547.224 670.077,547.31C670.214,547.558 669.847,548.516 670.077,548.679C670.175,548.748 670.815,548.59 670.868,548.679C671.014,548.929 670.633,549.882 670.868,550.049C670.961,550.115 671.612,549.964 671.659,550.049C671.796,550.298 671.429,551.256 671.659,551.419C671.745,551.48 672.412,551.34 672.451,551.419C673.738,554.063 673.969,556.233 674.822,559.637C675.25,561.343 676.203,567.33 675.613,571.279C675.406,572.672 674.668,574.696 674.032,576.072C673.919,576.317 674.249,577.288 674.032,577.442C673.95,577.501 673.274,577.368 673.241,577.442C673.13,577.686 673.458,578.659 673.241,578.812C673.148,578.878 672.496,578.727 672.451,578.812C672.314,579.061 672.68,580.019 672.451,580.182C672.359,580.246 671.704,580.098 671.659,580.182C671.178,581.089 671.487,582.063 670.868,582.921C670.438,583.517 668.948,583.729 668.495,584.29C667.961,584.952 668.281,585.775 667.704,586.345C667.098,586.943 665.983,587.151 665.332,587.715C664.716,588.247 664.413,589.301 663.75,589.769C663.476,589.962 662.385,589.539 662.169,589.769C661.41,590.572 661.267,591.012 659.795,591.823C658.931,592.302 658.311,592.702 657.423,593.193C656.526,593.689 655.775,593.962 655.051,594.563C654.055,595.39 650.405,595.696 648.724,597.303C646.802,596.155 650.231,593.047 650.306,591.824C650.357,590.971 651.395,589.008 651.887,587.716C652.548,585.983 653.07,584.989 653.469,583.606C655.461,576.704 657.647,566.917 656.632,556.213C656.138,550.999 654.641,545.738 652.677,541.147C652.506,540.747 652.186,540.185 651.887,539.778C651.393,539.107 651.379,538.701 651.095,537.723C650.921,537.119 650.084,536.652 650.306,535.668C649.632,535.793 649.559,535.401 649.514,534.982L649.514,534.296Z"/>
        <path d="M586.241,533.611C580.699,535.416 575.316,537.094 570.423,539.09C569.183,539.595 567.645,539.937 566.468,540.46C565.943,540.693 565.338,541.612 564.886,541.829C564.596,541.969 563.503,541.618 563.304,541.829C562.528,542.65 561.884,543.805 560.14,543.884C559.973,543.892 559.489,543.811 559.349,543.884C558.562,544.298 557.788,545.478 556.976,545.939C556.406,546.262 555.234,546.213 554.603,546.624C554.215,546.876 554.18,547.769 553.812,547.994C553.058,548.456 552.077,548.165 551.439,548.679C551.1,548.953 550.999,549.823 550.648,550.049C549.922,550.516 548.904,550.228 548.275,550.734C547.932,551.011 547.838,551.873 547.484,552.104C546.618,552.667 545.226,552.785 544.32,553.474C541.226,555.823 537.395,559.962 534.038,563.061C533.187,563.847 531.67,564.297 530.874,565.116C530.332,565.674 530.639,566.654 530.083,567.171C529.746,567.484 528.799,567.535 528.5,567.856C528,568.394 528.237,569.301 527.71,569.91C527.366,570.307 524.636,571.168 524.546,572.65C524.51,573.235 523.346,574.166 522.964,574.704C522.656,575.138 522.533,575.626 522.173,576.073C521.791,576.549 520.962,577.005 520.591,577.443C520.22,577.883 520.171,578.332 519.8,578.813C513.329,587.232 506.56,598.304 502.4,609.63C499.697,609.577 499.972,606.748 499.236,604.836C499.143,604.596 498.486,604.83 498.445,604.152C498.368,602.882 496.884,599.852 496.072,597.988C495.968,597.746 496.286,596.77 496.072,596.619C495.282,596.059 494.742,593.646 494.49,592.51C493.808,589.426 492.919,584.318 492.908,580.184C492.89,573.015 494.781,566.237 497.654,560.324C498.128,559.348 497.875,558.549 498.445,557.584C498.716,557.125 499.768,556.61 500.027,556.214C500.414,555.625 500.362,554.892 500.819,554.16C501.124,553.671 502.073,553.213 502.401,552.79C502.959,552.069 503.402,551.352 503.983,550.735C504.442,550.248 505.177,549.803 505.565,549.365C506.591,548.207 506.837,546.961 507.938,545.942C509.213,544.76 510.87,543.559 512.683,542.517C513.124,542.264 512.558,541.874 513.474,541.832C514.693,541.777 515.403,539.939 516.638,539.093C516.915,538.903 518.004,539.322 518.22,539.093C518.851,538.424 518.948,538.229 519.802,537.723C520.454,537.337 520.847,536.677 521.384,536.353C521.67,536.181 522.755,536.577 522.966,536.353C523.059,536.255 522.848,535.733 522.966,535.668C524.238,534.977 525.582,534.912 526.921,534.298C527.442,534.06 528.051,533.146 528.502,532.929C528.792,532.789 529.886,533.139 530.085,532.929C530.156,532.853 529.992,532.279 530.085,532.244C531.345,531.768 532.543,532.077 534.04,531.559C534.438,531.421 535.33,530.266 535.622,530.189C537.505,529.696 538.109,530.156 540.367,529.504C540.645,529.424 540.374,528.855 541.158,528.819C543.285,528.722 547.039,527.285 549.858,526.764C550.864,526.578 552.022,526.968 553.022,526.764C554.095,526.546 554.559,526.331 556.976,526.08C557.213,526.055 558.425,526.221 558.558,526.08C559.392,525.197 561.254,525.674 564.095,525.395C576.09,524.219 592.838,524.61 607.595,526.764C607.644,528.22 606.098,529.149 605.223,530.189C604.747,530.753 604.064,531.079 603.641,531.559C603.164,532.098 603.368,533.001 602.849,533.613C602.079,534.525 600.509,535.366 599.687,536.353C599.254,536.872 599.397,537.83 598.896,538.408C598.633,538.71 597.517,538.806 597.314,539.093C596.518,540.217 596.503,541.937 595.731,543.201C595.441,543.677 594.446,544.159 594.15,544.571C593.703,545.195 593.821,545.835 593.36,546.626C593.096,547.075 592.017,547.611 591.778,547.996C591.311,548.746 591.337,549.364 590.987,550.05C590.425,551.154 589.969,552.355 589.405,553.475C584.407,563.392 580.842,573.888 575.96,583.606C566.174,603.085 550.063,617.909 515.851,614.423C514.97,612.753 515.869,611.302 516.642,609.63C516.754,609.385 516.424,608.415 516.642,608.26C517.288,607.802 517.597,605.914 518.224,604.151C518.2,604.217 518.953,601.454 519.015,601.412C520.018,600.701 519.737,599.288 520.597,597.303C520.716,597.029 521.346,597.322 521.388,596.618C521.458,595.464 522.973,593.398 523.761,591.824C523.884,591.578 523.537,590.613 523.761,590.455C523.853,590.39 524.505,590.54 524.552,590.455C524.688,590.206 524.321,589.248 524.552,589.086C525.269,588.577 525.777,587.849 526.134,587.031C526.239,586.79 525.92,585.813 526.134,585.661C526.222,585.599 526.884,585.742 526.925,585.661C527.05,585.415 526.7,584.451 526.925,584.291C527.017,584.226 527.669,584.376 527.716,584.291C527.852,584.043 527.486,583.085 527.716,582.922C528.191,582.586 530.037,581.032 530.089,580.183C530.149,579.195 531.594,578.703 531.671,577.443C531.74,576.297 533.234,575.215 534.044,574.02C534.597,573.202 534.921,572.196 535.626,571.28C536.235,570.488 537.304,570.123 537.998,569.226C538.589,568.461 538.993,567.189 539.58,566.486C539.971,566.019 540.792,565.553 541.162,565.116C543.037,562.897 546.288,559.44 549.071,556.898C555.367,551.147 562.744,545.637 571.216,541.147C571.762,540.858 572.984,540.855 573.589,540.463C573.93,540.24 574.056,539.26 574.38,539.093C574.67,538.943 575.759,539.308 575.963,539.093C576.038,539.013 575.864,538.448 575.963,538.408C576.25,538.29 577.356,538.608 577.545,538.408C578.472,537.428 582.021,536.521 583.872,534.983L585.453,534.983C585.602,534.426 586.244,534.299 586.241,533.611Z"/>
        <path d="M619.459,652.086C621.923,653.04 624.849,652.832 627.369,653.456C627.596,653.512 627.416,654.107 628.159,654.141C629.399,654.197 629.564,654.558 630.532,654.826C631.949,655.217 633.149,655.096 634.486,655.51C634.788,655.604 634.474,656.158 635.277,656.195C637.289,656.287 638.627,657.428 640.813,658.25C642.732,658.971 645.339,659.52 647.141,660.305C647.537,660.477 647.053,660.95 647.931,660.99C648.05,660.995 649.931,661.491 650.305,661.674C651.085,662.059 651.804,663.252 652.676,663.729C652.965,663.887 654.053,663.511 654.258,663.729C656.209,665.793 660.631,667.695 663.749,669.892C664.513,670.431 665.316,671.393 666.122,671.947C668.324,673.462 671.113,676.197 673.24,678.796C673.682,679.337 674.459,679.714 674.821,680.166C675.019,680.413 674.562,681.352 674.821,681.536C674.934,681.616 675.539,681.434 675.612,681.536C676.471,682.72 676.508,683.82 677.194,684.96C677.466,685.413 678.525,685.938 678.776,686.33C678.937,686.58 678.533,687.527 678.776,687.699C679.422,688.157 679.322,688.222 679.567,689.069C679.559,689.043 680.29,691.075 680.358,691.123C680.894,691.503 681.417,693.115 681.94,695.232C682.549,697.7 683.158,701.316 682.73,705.504C682.619,706.602 682.12,706.671 681.94,707.559C681.543,709.509 681.895,710.227 681.149,712.352C681.116,712.446 680.491,712.577 680.358,713.038C679.945,714.466 680.284,714.599 679.567,716.462C679.474,716.702 678.817,716.468 678.776,717.148C678.766,717.32 678.858,717.677 678.776,717.833C678.537,718.29 677.433,718.818 677.194,719.201C676.707,719.986 676.871,720.566 676.403,721.256C675.958,721.915 675.234,722.113 674.821,722.627C674.624,722.873 675.081,723.813 674.821,723.996C674.704,724.079 674.112,723.892 674.031,723.996C672.494,725.998 671.217,728.312 669.285,730.16C668.429,730.978 667.079,731.464 666.122,732.215C665.153,732.973 664.816,734.715 662.958,734.268C664.936,729.802 663.297,725.273 662.958,720.573C662.653,716.321 662.402,712.204 661.376,708.246C661.265,707.813 661.501,707.308 661.376,706.876C660.389,703.456 658.5,696.471 656.631,692.495C656.529,692.281 656.002,692.37 655.84,691.81C655.724,691.408 656.028,690.82 655.84,690.44C655.629,690.013 654.444,689.421 654.258,689.071C653.748,688.108 654.039,687.298 653.468,686.332C653.218,685.911 652.085,685.321 651.886,684.962C651.211,683.749 651.068,682.017 650.305,680.854C649.996,680.385 649.019,679.897 648.723,679.484C648.346,678.961 648.406,678.034 647.931,677.429C647.201,676.499 645.564,675.624 644.768,674.69C643.81,673.566 643.304,672.283 642.394,671.266C641.508,670.273 640.21,669.482 639.231,668.527C637.352,666.691 635.52,664.447 632.905,663.048C631.371,663.258 634.989,665.963 636.068,667.157C637.756,669.025 639.124,671.059 640.813,673.321C641.097,673.701 641.556,673.214 641.605,674.006C641.658,674.884 642.754,674.877 643.186,675.375C643.397,675.618 642.924,676.559 643.186,676.745C643.29,676.819 643.917,676.65 643.977,676.745C644.138,676.996 643.734,677.942 643.977,678.114C644.07,678.18 644.722,678.029 644.768,678.114C644.904,678.363 644.537,679.321 644.768,679.484C646.124,680.446 647.698,684.115 648.723,686.333C648.835,686.576 648.504,687.548 648.723,687.702C649.683,688.384 650.36,691.494 651.094,693.866C651.15,694.045 651.847,693.92 651.886,694.55C651.94,695.435 651.71,696.419 651.886,697.29C651.9,697.359 652.644,697.429 652.676,697.974C652.73,698.858 652.499,699.844 652.676,700.714C652.692,700.787 653.434,700.851 653.468,701.4C653.993,710.055 655.588,724.298 652.676,733.586C650.241,733.87 648.191,732.809 646.349,732.218C645.612,731.98 644.246,731.935 643.186,731.532C642.656,731.331 642.046,730.368 641.605,730.163C640.079,729.451 638.292,728.946 636.859,728.108C636.569,727.938 636.322,726.837 636.068,726.737C635.054,726.342 634.08,726.34 632.905,725.369C631.3,724.041 630.198,722.165 628.951,720.575C628.649,720.191 628.208,720.684 628.159,719.889C628.105,719.001 626.892,719.035 626.577,718.52C625.94,717.478 625.659,714.939 624.996,713.726C624.815,713.395 624.251,713.791 624.205,713.041C624.054,710.54 622.156,705.716 621.832,702.083C621.533,698.727 621.538,694.626 621.832,691.126C622.762,680.041 623.737,663.786 619.459,654.146C619.626,652.969 618.112,652.367 619.459,652.086Z"/>
        <path d="M443.879,674.685C441.588,675.069 445.092,675.753 444.67,676.739C445.9,678.63 447.937,679.525 449.415,681.533C449.653,681.856 450.085,682.041 450.206,682.218C450.554,682.725 450.536,683.687 450.997,684.272C451.193,684.521 452.466,684.738 452.579,684.957C452.761,685.307 452.336,686.012 452.579,686.327C452.774,686.581 454.045,686.789 454.161,687.012C454.852,688.34 455.02,689.081 455.743,690.435C456.117,691.137 457.26,692.109 457.326,693.175C457.346,693.515 457.917,694.142 458.117,694.545C458.751,695.827 458.983,697.105 459.699,698.654C460.013,699.335 460.213,699.751 460.49,700.708C460.647,701.25 461.229,701.228 461.281,701.394C461.862,703.232 461.635,705.547 462.072,707.557C462.09,707.644 462.829,707.683 462.863,708.242C462.903,708.896 462.723,709.654 462.863,710.297C463.253,712.08 463.341,714.152 463.654,717.83C464.03,722.247 464.398,728.595 462.863,734.265C460.752,733.677 458.689,733.577 456.536,732.897C456.228,732.799 456.552,732.249 455.744,732.212C455.534,732.201 455.147,732.277 454.953,732.212C454.412,732.024 454.381,731.604 454.162,731.526C453.091,731.145 452.006,731.365 450.998,730.84C450.682,730.675 450.479,729.576 450.207,729.471C449.84,729.327 448.928,729.688 448.625,729.471C447.79,728.873 446.585,727.704 445.462,726.731C444.43,725.838 442.888,724.682 442.298,723.993C442.09,723.749 442.56,722.809 442.298,722.624C440.878,721.617 439.016,719.476 438.343,717.145C437.868,715.498 437.195,713.235 436.761,710.982C434.882,701.211 437.101,684.25 434.388,674.001C433.806,671.801 433.615,669.446 432.015,667.837C433.768,666.36 436.426,667.362 439.133,667.837C439.852,667.962 441.101,668.248 442.297,668.522C443.432,668.781 445.515,669.363 447.042,669.891C449.055,670.589 453.781,672.163 456.533,673.316C457.039,673.528 457.594,673.713 458.115,674.001C459.012,674.496 459.763,674.77 460.488,675.37C461.189,675.951 462.789,675.953 464.443,676.74C464.778,676.9 464.953,678 465.234,678.109C465.634,678.266 466.458,677.898 466.816,678.109C467.104,678.279 467.354,679.38 467.607,679.479C467.98,679.625 468.878,679.262 469.189,679.479C470.393,680.316 471.406,681.781 473.144,682.903C473.893,683.387 477.01,684.867 477.098,686.327C477.135,686.934 478.662,688.092 479.471,689.066C480.031,689.738 481.369,690.447 481.844,691.12C482.02,691.37 481.594,692.313 481.844,692.489C481.937,692.555 482.588,692.403 482.635,692.489C482.771,692.739 482.405,693.696 482.635,693.86C482.73,693.927 483.376,693.772 483.426,693.86C483.568,694.11 483.192,695.063 483.426,695.229C483.518,695.294 484.17,695.143 484.216,695.229C484.353,695.478 483.986,696.435 484.216,696.599C485.473,697.488 487.289,704.107 487.381,706.871C487.531,711.458 485.479,717.859 483.426,721.937C483.269,722.249 482.679,721.887 482.635,722.623C482.625,722.782 482.718,723.168 482.635,723.307C482.367,723.754 481.292,724.292 481.053,724.678C480.563,725.465 480.77,726.053 480.262,726.731C479.897,727.218 479.051,727.664 478.68,728.102C477.804,729.138 476.269,730.836 474.726,732.211C474.324,732.567 473.615,734.744 472.353,733.579C471.624,721.439 470.136,710.496 466.026,701.393C465.936,701.195 465.392,701.253 465.235,700.707C464.943,699.696 464.965,698.936 464.444,697.967C464.195,697.505 463.112,696.988 462.862,696.598C462.701,696.347 463.105,695.401 462.862,695.228C461.905,694.55 460.947,692.106 459.698,690.434C459.414,690.055 458.955,690.541 458.907,689.75C458.871,689.165 457.708,688.233 457.326,687.695C456.698,686.812 455.88,686.26 454.952,684.956C454.142,683.816 452.405,683.027 450.997,681.532C450.213,680.699 450.031,679.318 449.415,678.793C448.217,677.771 445.755,677.857 445.461,676.053C444.82,675.924 444.672,675.366 443.879,675.369L443.879,674.685Z"/>
        <path d="M760.24,780.833C756.866,781.029 752.534,782.085 749.958,783.571C749.346,783.925 748.105,784.387 746.795,784.94C745.438,785.516 743.984,785.775 742.84,786.311C742.331,786.549 741.702,787.473 741.258,787.68C740.349,788.104 739.669,787.926 738.887,788.366C738.324,788.68 737.812,789.414 737.305,789.735C736.795,790.058 736.284,790.1 735.723,790.42C733.473,791.701 730.912,793.148 728.605,794.528C727.915,794.942 727.598,795.517 727.023,795.899C725.701,796.774 723.409,797.486 721.487,798.637C720.971,798.947 720.497,799.615 719.905,800.006C718.621,800.858 716.484,801.688 714.369,802.746C713.87,802.995 713.228,803.91 712.787,804.115C711.903,804.528 711.215,804.461 710.414,804.8C709.002,805.398 707.312,806.499 705.67,806.855C704.041,807.209 702.801,807.818 700.923,808.225C688.95,810.817 674.986,806.492 666.915,799.322C668.057,797.842 669.526,796.35 671.66,795.214C672.68,794.67 673.317,793.962 674.823,793.159C675.844,792.616 676.481,791.907 677.987,791.104C678.491,790.835 679.046,790.731 679.569,790.419C680.12,790.09 680.644,789.369 681.151,789.049C681.657,788.728 682.177,788.686 682.732,788.365C683.404,787.977 683.767,787.325 684.313,786.994C684.599,786.822 685.685,787.219 685.895,786.994C686.284,786.584 688.079,784.984 689.06,784.939C689.237,784.931 689.698,785.013 689.851,784.939C690.365,784.693 690.982,783.788 691.431,783.57C691.722,783.431 692.815,783.781 693.013,783.57C693.989,782.538 698.984,780.995 701.713,780.146C703.03,779.736 704.267,779.143 705.669,778.777C708.292,778.089 711.504,777.221 714.368,776.722C715.377,776.545 716.53,776.926 717.53,776.722C718.194,776.587 718.317,776.133 719.113,776.036C720.722,775.844 723.092,776.169 724.648,776.036C726.466,775.883 727.841,775.362 729.394,775.352C733.91,775.322 738.692,776.313 743.63,776.721C741.73,774.783 738.365,775.11 735.722,774.666C730.167,773.734 723.087,772.836 715.159,773.297C699.131,774.227 683.487,779.871 671.659,785.623C670.918,785.982 670.202,786.951 669.286,786.992C669.133,787 668.618,786.92 668.495,786.992C667.653,787.493 667.013,788.563 666.123,789.047C665.834,789.205 664.747,788.829 664.541,789.047C663.906,789.72 663.867,789.942 662.959,790.417C662.428,790.694 661.406,791.964 660.587,791.102C660.896,788.784 661.427,787.212 662.169,784.938C662.244,784.708 661.974,783.707 662.169,783.569C662.815,783.112 662.714,783.047 662.959,782.2C662.952,782.225 663.683,780.194 663.75,780.145C664.437,779.659 664.47,778.253 665.332,776.721C665.591,776.262 666.663,775.742 666.914,775.352C667.075,775.1 666.671,774.154 666.914,773.982C667.027,773.9 667.629,774.085 667.704,773.982C668.061,773.496 668.029,772.464 668.495,771.927C668.78,771.598 669.829,771.555 670.077,771.242C670.606,770.574 670.269,769.744 670.868,769.187C671.179,768.899 672.197,768.802 672.451,768.502C672.656,768.257 672.188,767.317 672.451,767.132C672.939,766.785 675.209,764.447 676.404,764.393C677.47,764.344 678.882,762.468 680.359,761.654C681.256,761.158 682.007,760.885 682.731,760.285C682.732,760.284 683.645,759.544 683.523,759.6C684.594,759.112 687.777,758.836 689.059,758.23C689.41,758.063 689.156,757.733 689.85,757.544C691.214,757.174 692.012,757.089 693.012,756.859C695.305,756.335 696.655,756.443 700.13,756.174C701.681,756.055 702.287,755.515 703.294,755.488C704.188,755.467 703.77,756.12 704.086,756.174C704.245,756.201 705.982,754.985 706.458,755.488C707.345,756.428 709.143,755.786 711.994,756.174C712.716,756.273 713.254,756.757 714.367,756.859C717.297,757.127 720.125,757.953 723.067,758.914C723.346,759.006 724.473,758.729 724.647,758.914C725.177,759.475 725.252,759.387 726.229,759.6C726.2,759.594 728.547,760.226 728.603,760.285C729.545,761.284 732.371,762.058 734.929,763.023C735.289,763.16 734.871,763.669 735.721,763.709C735.901,763.717 736.356,763.636 736.511,763.709C737.03,763.952 737.643,764.861 738.093,765.078C738.383,765.218 739.477,764.868 739.675,765.078C739.768,765.178 739.557,765.698 739.675,765.764C740.236,766.074 741.427,766.045 742.048,766.449C742.419,766.69 742.485,767.615 742.838,767.819C743.593,768.253 744.49,768.157 745.211,768.504C745.629,768.704 745.107,769.148 746.002,769.189C747.334,769.25 747.605,771.172 749.167,771.244C750.499,771.304 750.768,773.226 752.33,773.299C753.458,773.351 754.302,775.043 755.493,776.037C757.323,777.565 760.101,778.588 760.24,780.833Z"/>
        <path d="M468.397,836.988C468.977,838.207 469.835,837.087 470.771,836.988C483.48,833.033 500.249,831.778 517.434,833.563C517.67,833.587 518.883,833.422 519.016,833.563C519.646,834.23 520.092,834.113 521.389,834.248C521.626,834.273 522.838,834.108 522.971,834.248C523.718,835.038 525.346,834.251 526.135,834.934C526.197,834.987 526.065,835.605 526.135,835.618C528.742,836.173 531.499,836.287 534.044,836.989C536.624,837.7 539.368,838.833 541.953,839.728C542.235,839.825 543.357,839.539 543.535,839.728C543.608,839.805 543.441,840.376 543.535,840.413C543.82,840.522 544.932,840.217 545.117,840.413C545.193,840.493 545.018,841.057 545.117,841.098C545.404,841.217 546.511,840.898 546.699,841.098C548.09,842.57 552.197,843.171 554.608,844.523C555.047,844.767 554.485,845.166 555.399,845.207C556.54,845.259 557.109,846.511 558.563,846.578C558.557,846.577 560.725,847.125 560.937,847.262C561.73,847.778 562.239,849.381 564.891,849.317C565.071,851.852 562.211,853.629 560.145,855.48C559.477,856.079 559.454,856.376 558.563,856.85C557.46,857.437 556.013,859.405 554.608,860.274C553.888,860.719 552.93,860.586 552.236,860.96C551.726,861.234 551.116,862.093 550.654,862.328C549.811,862.76 549.052,862.642 548.281,863.014C547.864,863.215 548.385,863.658 547.49,863.7C546.039,863.764 542.806,865.158 540.372,865.754C540.105,865.819 538.95,865.585 538.79,865.754C537.163,867.478 523.639,866.584 519.809,865.754C519.204,865.623 519.182,865.106 519.018,865.069C516.616,864.537 514.498,864.742 512.69,863.7C511.925,863.258 511.444,863.259 510.317,863.014C509.62,862.864 508.961,862.549 507.945,862.328C507.975,862.336 505.627,861.702 505.572,861.644C505.079,861.123 502.066,859.344 500.035,858.905C499.569,858.803 498.891,859.067 498.453,858.905C497.953,858.719 497.282,857.702 496.871,857.535C495.427,856.948 493.549,856.782 492.126,856.166C491.598,855.937 490.996,855.013 490.544,854.796C490.254,854.656 489.161,855.007 488.962,854.796C488.297,854.094 486.334,853.532 484.216,852.741C483.622,852.519 482.596,852.408 481.844,852.057C481.413,851.856 480.621,850.813 480.262,850.686C479.815,850.53 479.152,850.788 478.68,850.686C477.745,850.485 474.994,849.236 473.144,848.632C472.865,848.54 471.737,848.818 471.562,848.632C471.033,848.072 470.958,848.158 469.98,847.946C469.283,847.796 468.625,847.481 467.607,847.261C464.116,846.505 456.643,844.271 450.998,844.523C451.682,842.188 454.177,840.457 455.744,838.359C456.028,837.98 456.487,838.465 456.536,837.673C456.593,836.735 457.975,836.582 458.908,835.618C461.509,832.934 463.696,829.949 466.817,827.401C468.317,826.176 470.578,825.258 472.354,823.977C473.229,823.344 473.806,821.316 475.517,821.237C476.491,821.192 478.182,819.317 479.472,818.498C480.071,818.118 481.035,817.165 481.845,817.129C481.996,817.122 482.516,817.202 482.636,817.129C483.468,816.623 484.148,815.581 485.008,815.074C485.529,814.767 486.021,814.703 486.591,814.389C486.858,814.242 488.75,813.931 488.964,813.703C489.04,813.623 488.865,813.059 488.964,813.019C489.252,812.9 490.357,813.217 490.546,813.019C491.156,812.373 491.123,811.998 492.128,811.649C492.41,811.55 493.532,811.837 493.71,811.649C493.787,811.568 493.611,811.005 493.71,810.964C493.998,810.843 495.103,811.165 495.292,810.964C495.368,810.884 495.193,810.318 495.292,810.279C495.579,810.161 496.686,810.478 496.874,810.279C498.868,808.169 506.562,807.069 511.11,806.17C516.984,805.009 528.209,805.427 534.047,806.855C534.314,806.92 535.469,806.687 535.629,806.855C536.491,807.767 540.075,808.138 541.956,808.91C542.338,809.067 541.881,809.556 542.747,809.595C543.422,809.625 544.498,810.633 545.12,810.965C545.983,811.424 546.989,811.61 548.284,812.334C548.722,812.579 548.161,812.978 549.075,813.02C550.476,813.083 552.505,817.033 554.611,817.128C555.424,817.164 555.725,818.747 556.193,819.182C557.05,819.979 558.922,821.25 560.148,822.607C561.352,823.937 561.992,824.952 563.312,826.715C563.596,827.095 564.054,826.61 564.103,827.401C564.172,828.548 565.667,829.63 566.476,830.825C567.502,832.341 568.54,834.809 569.64,836.989C570.078,837.857 570.132,839.152 571.221,839.728C570.129,841.34 567.779,839.761 566.476,839.043C566.272,838.93 565.661,838.35 565.685,838.357C564.037,837.768 561.489,837.622 560.148,836.988C559.853,836.847 559.946,836.506 559.357,836.302C557.31,835.597 555.201,834.894 553.03,834.247C550.959,833.632 548.817,833.414 546.702,832.878C546.467,832.818 546.661,832.227 545.91,832.193C545.613,832.178 543.703,832.368 543.538,832.193C542.791,831.402 541.163,832.19 540.374,831.508C540.314,831.455 540.442,830.837 540.374,830.822C538.556,830.447 536.761,830.848 534.047,830.137C521.657,826.895 500.405,827.963 487.384,830.822C486.046,831.115 484.937,831.82 483.429,832.192C482.02,832.539 480.137,832.421 478.683,832.877C478.275,833.004 477.397,834.17 477.101,834.246C476.412,834.428 475.383,833.994 474.729,834.246C474.191,834.452 473.596,835.4 473.147,835.615C472.857,835.756 471.764,835.405 471.565,835.615C471.179,836.024 470.888,836.353 469.983,836.301C470.129,836.884 469.675,836.947 469.192,836.987C468.924,836.988 468.661,836.988 468.397,836.988Z"/>
        <path d="M570.424,928.754L570.424,928.068C569.783,927.939 569.636,927.382 568.842,927.384C568.941,925.871 572.197,927.092 573.587,926.698C573.081,924.637 575.43,923.055 575.96,921.219C576.076,920.816 575.772,920.228 575.96,919.85C576.159,919.447 577.388,918.804 577.542,918.479C577.725,918.095 577.424,917.517 577.542,917.111C577.741,916.421 578.569,915.593 579.124,914.372C580.721,910.85 582.409,906.362 583.87,902.045C584.332,900.679 585.05,899.239 585.451,897.936C586.861,893.365 588.036,887.47 589.406,882.186C589.518,881.752 589.282,881.246 589.406,880.816C589.635,880.019 590.022,879.521 590.197,877.391C590.232,876.964 590.077,876.437 590.197,876.022C590.725,874.191 591.464,868.954 591.779,865.065C591.927,863.228 591.575,861.59 591.779,859.586C591.954,857.861 592.565,856.46 592.57,854.792C592.576,851.87 591.999,848.753 591.779,845.89C591.538,842.773 591.365,839.968 590.988,836.988C588.995,821.272 583.672,805.484 577.543,792.473C537.202,790.337 503.629,782.008 477.098,767.821C476.574,767.541 476.076,767.444 475.516,767.135C474.651,766.657 474.032,766.256 473.144,765.766C472.279,765.287 471.66,764.886 470.771,764.396C468.232,762.996 463.567,760.306 460.489,758.233C454.689,754.327 449.9,749.748 444.671,745.22C441.993,742.903 439.246,740.881 436.762,738.372C436.127,737.73 435.812,736.975 435.18,736.317C434.985,736.115 433.696,735.821 433.598,735.633C433.428,735.307 433.848,734.537 433.598,734.262C433.062,733.672 431.76,733.468 431.225,732.894C431.004,732.655 431.49,731.711 431.225,731.524C430.298,730.867 429.789,730.742 428.852,729.469C428.3,728.719 427.836,728.184 427.27,727.414C426.718,726.664 426.254,726.129 425.688,725.36C425.136,724.61 424.673,724.075 424.106,723.304C423.534,722.527 423.218,721.878 422.524,721.249C422.508,721.234 421.681,720.483 421.733,720.565C421.167,719.672 421.555,718.719 420.942,717.826C420.752,717.549 419.483,717.378 419.36,717.141C418.797,716.058 419.318,714.974 417.778,714.401C418.294,713.269 418.858,714.57 419.36,715.087C419.797,715.535 420.592,716.048 420.942,716.456C421.15,716.699 420.68,717.641 420.942,717.826C421.215,718.019 422.338,718.276 422.523,718.511C422.926,719.021 422.827,719.997 423.314,720.566C423.808,721.141 425.226,721.365 425.687,721.935C426.22,722.596 425.94,723.398 426.478,723.99C426.991,724.553 428.39,724.788 428.851,725.36C429.385,726.021 429.082,726.832 429.642,727.414C430.662,728.476 432.548,729.107 433.596,730.154C433.828,730.384 433.329,731.334 433.596,731.523C436.416,733.519 439.798,737.155 443.087,739.742C443.349,739.947 444.45,739.51 444.669,739.742C448.065,743.335 453.679,746.833 458.905,750.013C459.35,750.284 458.777,750.656 459.696,750.698C459.939,750.709 461.001,751.223 461.278,751.383C461.79,751.68 462.387,752.496 462.86,752.752C464.294,753.527 466.161,754.047 467.605,754.809C468.037,755.035 467.489,755.452 468.396,755.492C468.648,755.505 469.689,756.015 469.978,756.178C470.552,756.5 471.125,757.339 471.56,757.547C472.978,758.228 474.803,758.238 476.305,758.917C476.71,759.1 476.211,759.563 477.096,759.603C477.464,759.62 478.244,760.113 478.678,760.288C479.489,760.612 480.611,761.601 481.842,761.657C482.21,761.674 482.99,762.169 483.424,762.342C486.077,763.403 489.951,764.615 493.705,765.767C493.885,765.822 493.907,766.325 494.496,766.452C495.72,766.717 496.453,766.719 497.66,767.137C498.446,767.409 498.927,767.582 500.033,767.823C502.464,768.349 508.368,770.463 511.897,771.247C513.696,771.645 515.462,771.529 517.434,771.932C517.6,771.965 517.528,772.584 518.225,772.617C520.191,772.706 520.863,772.96 522.97,773.303C525.024,773.636 527.163,773.68 529.297,773.988C529.367,773.998 529.468,774.644 530.089,774.673C531.317,774.729 532.855,774.416 534.044,774.673C534.472,774.766 534.903,775.364 534.835,775.359C536.758,775.537 538.946,775.149 541.162,775.359C541.142,775.356 541.4,776.018 541.953,776.043C549.357,776.381 557.86,776.979 567.262,776.729C568.778,775.708 566.889,774.009 566.471,773.305C565.776,772.133 564.788,770.943 564.098,769.879C559.916,763.438 554.515,756.463 549.071,750.021C548.714,749.599 547.778,749.053 547.489,748.651C547.13,748.151 547.166,747.163 546.698,746.597C545.904,745.634 544.409,744.926 543.534,743.857C542.715,742.857 542.094,741.598 541.161,740.433C540.813,739.998 539.87,739.469 539.579,739.064C539.204,738.542 539.262,737.612 538.788,737.009C537.98,735.982 536.364,735.212 535.625,734.269C535.109,733.613 535.279,732.835 534.834,732.216C534.495,731.742 533.58,731.27 533.252,730.845C531.55,728.636 530.159,726.225 528.506,723.997C528.173,723.547 527.219,723.038 526.925,722.628C526.516,722.059 526.612,721.257 526.134,720.573C525.812,720.113 524.848,719.616 524.552,719.202C523.817,718.181 523.102,717.159 522.179,715.779C521.465,714.711 520.951,713.651 519.806,712.354C518.959,711.395 518.436,710.43 517.433,708.93C517.057,708.367 516.112,707.974 515.851,707.561C515.047,706.285 515,704.564 514.269,703.453C513.951,702.968 513.109,702.714 512.687,702.082C512.305,701.511 512.359,700.725 511.896,700.027C511.586,699.56 510.611,699.07 510.314,698.658C509.881,698.054 509.995,697.354 509.523,696.603C509.246,696.164 508.18,695.617 507.941,695.233C507.123,693.919 507.434,692.853 506.359,691.124C506.086,690.685 505.012,690.136 504.777,689.755C504.422,689.179 504.431,688.416 503.986,687.7C503.724,687.279 502.612,686.695 502.404,686.331C501.746,685.179 501.541,683.459 500.822,682.222C500.56,681.773 499.479,681.237 499.24,680.852C498.423,679.538 498.733,678.472 497.658,676.743C497.406,676.338 496.262,675.72 496.076,675.373C495.881,675.008 496.19,674.398 496.076,674.004C495.885,673.341 495.111,672.44 494.494,671.264C493.795,669.932 492.52,668.534 492.121,667.155C492.004,666.752 492.309,666.164 492.121,665.785C491.917,665.374 490.704,664.749 490.539,664.415C489.626,662.563 489.191,660.497 488.166,658.251C488.073,658.047 487.533,658.115 487.375,657.566C487,656.268 487.406,655.803 486.584,654.143C486.391,653.753 485.14,653.081 485.001,652.773C484.826,652.378 485.12,651.815 485.001,651.403C484.8,650.704 483.941,649.904 483.42,648.664C481.959,645.194 480.16,640.525 478.674,636.337C478.145,634.847 478.463,634.92 477.883,632.913C477.727,632.372 477.142,632.389 477.092,632.228C475.895,628.404 475.235,624.426 473.929,619.9C473.784,619.401 473.167,619.326 473.138,619.215C472.345,616.24 472.194,612.741 471.556,609.628C471.574,609.715 470.858,609.266 470.765,608.943C470.517,608.084 471.012,607.063 470.765,606.204C470.535,605.408 470.149,604.909 469.973,602.78C469.938,602.352 470.093,601.825 469.973,601.411C468.634,596.772 467.829,586.95 467.6,580.182C467.371,573.374 468.34,566.358 469.182,559.637C469.963,553.407 471.236,546.36 473.137,539.778C473.311,539.174 473.674,538.603 473.928,537.723C474.102,537.119 474.465,536.548 474.719,535.668C474.893,535.064 475.256,534.494 475.509,533.613C475.825,532.519 476.523,531.34 478.673,530.875C479.601,530.673 481.228,529.088 484.209,529.505C482.453,534.992 481.329,539.538 480.255,545.256C479.876,547.277 479.888,548.422 479.464,551.419C477.846,562.859 478.736,580.196 481.046,591.138C481.181,591.777 480.83,592.574 481.046,593.193C482.609,597.67 484.07,605.812 485.792,610.999C485.858,611.196 486.544,611.038 486.583,611.684C486.679,613.266 486.735,613.725 487.374,615.107C487.879,616.201 488.876,619.077 489.747,621.271C490.155,622.301 490.692,624.003 491.329,625.38C491.686,626.154 492.152,627.13 492.91,628.804C493.096,629.214 493.395,629.757 493.701,630.174C494.073,630.679 494.725,632.182 495.283,633.598C495.79,634.884 496.971,637.007 497.656,638.392C498.505,640.106 499.455,642.7 500.82,644.555C501.07,644.896 503.126,647.567 503.193,648.664C503.23,649.265 504.096,650.482 504.775,651.403C505.026,651.744 507.081,654.415 507.148,655.511C507.185,656.113 508.051,657.329 508.73,658.251C508.98,658.592 511.036,661.263 511.103,662.359C511.159,663.269 512.625,663.431 512.685,664.414C512.722,665.015 513.589,666.232 514.267,667.153C514.819,667.902 515.283,668.439 515.849,669.207C516.421,669.984 516.737,670.634 517.431,671.262C518.102,671.868 518.104,673.254 519.013,674.686C519.197,674.976 520.468,675.128 520.595,675.371C521.295,676.715 521.222,677.507 522.177,678.795C522.458,679.174 522.92,678.689 522.968,679.48C523.023,680.39 524.49,680.551 524.55,681.535C524.607,682.481 526.049,683.776 526.923,684.959C529.561,688.531 531.888,691.815 534.832,695.231C535.165,695.618 535.575,695.117 535.623,695.917C535.678,696.826 537.144,696.988 537.204,697.97C537.216,698.159 537.819,699.127 537.995,699.34C538.192,699.577 539.467,699.814 539.577,700.025C539.754,700.366 539.33,701.096 539.577,701.396C539.774,701.634 541.048,701.868 541.159,702.08C541.326,702.402 540.909,703.181 541.159,703.451C541.691,704.024 543.033,704.244 543.532,704.819C543.742,705.062 543.269,706.004 543.532,706.189C544.507,706.878 545.449,707.499 546.696,708.928C551.378,714.3 555.377,719.855 560.933,723.994C562.404,715.318 563.907,707.164 566.469,699.34C566.785,698.377 566.85,697.082 567.26,695.917C567.336,695.701 568.011,695.89 568.051,695.231C568.062,695.05 567.974,694.714 568.051,694.546C568.223,694.173 568.818,693.93 568.842,693.862C569.594,691.777 569.647,689.559 570.424,687.698C570.534,687.435 571.173,687.71 571.215,687.013C571.28,685.958 571.666,685.771 572.006,684.958C572.541,683.682 573.694,681.55 574.379,680.165C574.864,679.186 575.211,677.428 575.962,676.055C576.143,675.724 576.707,676.121 576.753,675.371C576.812,674.398 579.613,670.009 580.707,668.523C580.878,668.291 581.237,666.653 581.498,666.468C581.591,666.402 582.242,666.553 582.289,666.468C582.425,666.219 582.059,665.261 582.289,665.098C583.064,664.549 583.306,664.496 583.871,663.728C584.095,663.425 584.562,663.194 584.662,663.043C585.249,662.146 584.864,661.231 585.452,660.304C585.637,660.013 586.907,659.863 587.034,659.619C587.22,659.263 586.796,658.575 587.034,658.249C587.535,657.566 588.855,656.897 589.407,656.194C589.761,655.743 589.835,655.318 590.198,654.825C590.629,654.24 591.478,652.765 592.571,651.401C592.767,651.156 594.04,650.933 594.152,650.716C594.328,650.379 593.904,649.641 594.152,649.346C594.743,648.644 595.833,648.085 596.525,647.292C597.119,646.609 597.483,645.915 598.107,645.237C599.628,643.58 601.385,642.405 602.851,640.444C603.136,640.064 603.594,640.55 603.643,639.759C603.707,638.694 608.464,634.899 609.97,633.595C612.733,631.203 615.713,628.969 618.67,626.747C621.63,624.523 624.903,622.072 628.16,619.898C629.097,619.274 629.698,618.409 630.533,617.844C630.81,617.656 631.898,618.073 632.115,617.844C632.355,617.59 632.615,616.657 632.906,616.474C633.188,616.296 634.274,616.7 634.487,616.474C635.246,615.671 635.389,615.23 636.86,614.419C637.964,613.81 641.285,612.019 643.187,610.996C643.622,610.762 643.069,610.351 643.978,610.31C644.089,610.305 645.989,609.808 646.35,609.625C646.676,609.462 646.866,608.363 647.142,608.255C648.103,607.88 649.46,608.119 650.306,607.569C650.629,607.359 650.789,606.35 651.095,606.2C652.137,605.69 653.179,606.02 654.259,605.515C654.67,605.323 654.159,604.871 655.051,604.83C655.744,604.798 657.15,604.048 658.214,603.461C658.509,603.298 658.901,602.821 659.005,602.775C661.042,601.878 663.108,601.615 665.332,600.721C665.709,600.57 665.26,600.075 666.123,600.036C667.264,599.984 667.833,598.733 669.286,598.666C669.649,598.65 670.442,598.155 670.868,597.981C674.807,596.377 678.575,594.847 682.731,593.873C681.237,595.207 679.049,595.763 677.195,596.612C672.091,598.948 666.147,601.82 660.587,604.829C659.901,605.201 659.089,606.16 658.214,606.199C657.201,606.245 657.215,607.341 656.632,607.568C656.23,607.725 655.411,607.358 655.051,607.568C654.152,608.093 653.452,609.167 652.677,609.623C652.156,609.93 651.665,609.994 651.095,610.308C650.258,610.77 649.21,612.304 647.932,612.362C646.802,612.414 646.725,613.675 645.56,614.417C645.277,614.597 644.192,614.19 643.978,614.417C643.444,614.981 643.058,616.406 641.606,616.472C640.289,616.532 638.865,619.805 636.86,619.895C634.692,619.994 631.112,625.282 628.952,626.744C628.673,626.932 627.585,626.515 627.37,626.744C627.04,627.093 626.949,627.791 626.578,628.114C625.799,628.792 624.934,629.45 624.206,630.168C622.344,632.001 618.975,634.49 617.089,637.016C616.804,637.396 616.345,636.909 616.297,637.701C616.239,638.65 614.841,638.781 613.925,639.756C613.345,640.371 613.085,641.745 612.342,642.495C611.792,643.051 610.461,643.291 609.97,643.865C609.761,644.109 610.232,645.049 609.97,645.235C609.705,645.423 608.564,645.693 608.389,645.921C608.198,646.169 608.644,647.109 608.389,647.291C608.105,647.491 607.003,647.732 606.807,647.975C605.661,649.386 604.772,651.196 603.643,652.769C603.372,653.145 602.9,652.666 602.851,653.454C602.846,653.55 602.271,655.194 602.061,655.508C601.873,655.79 600.603,655.955 600.48,656.193C600.044,657.027 600.323,658.201 599.689,658.933C599.445,659.214 598.28,659.351 598.107,659.618C597.519,660.518 597.898,661.422 597.316,662.356C597.093,662.713 596.572,662.27 596.525,663.041C596.464,664.029 595.02,664.521 594.943,665.781C594.894,666.587 593.209,668.548 592.571,669.889C592.109,670.862 591.734,672.636 590.989,673.999C590.807,674.33 590.243,673.933 590.198,674.684C590.183,674.93 589.641,676.229 589.407,676.738C589.066,677.476 588.69,678.913 587.825,680.847C587.699,681.129 587.077,680.82 587.034,681.532C587.023,681.714 587.112,682.049 587.034,682.217C586.848,682.62 586.286,682.795 586.243,682.902C585.556,684.641 585.308,687.092 584.662,689.066C584.691,688.977 583.92,691.771 583.871,691.804C582.958,692.45 583.868,693.862 583.08,694.544C582.38,695.149 582.45,695.436 582.289,696.599C582.26,696.804 582.451,697.854 582.289,697.968C581.415,698.588 581.888,698.907 581.498,700.023C581.163,700.985 580.331,704.863 579.916,707.557C579.546,709.96 579.44,711.925 579.125,714.405C579.127,714.39 578.363,714.61 578.334,715.091C577.962,721.208 576.967,728.367 577.543,735.636C577.657,737.09 578.166,737.377 578.334,738.374C578.625,740.099 577.788,741.96 579.125,743.168C579.229,743.262 579.882,743.811 579.916,743.853C580.308,744.35 580.225,745.363 580.707,745.908C581.228,746.498 582.562,746.703 583.08,747.277C583.551,747.802 583.354,748.75 583.871,749.332C584.376,749.901 585.783,750.132 586.243,750.702C586.775,751.361 586.509,752.16 587.034,752.756C587.854,753.687 589.387,754.53 590.198,755.495C590.573,755.942 590.624,756.369 590.989,756.865C591.226,757.189 591.658,757.373 591.78,757.55C592.122,758.053 592.112,759.03 592.571,759.606C593.039,760.192 594.484,760.406 594.943,760.975C595.464,761.621 595.271,762.421 595.733,763.029C596.023,763.411 596.476,762.922 596.525,763.715C596.538,763.934 597.129,764.835 597.316,765.084C598.065,766.086 598.639,767.047 599.689,768.509C600.012,768.96 600.983,769.47 601.27,769.877C601.447,770.128 601.02,771.07 601.27,771.248C602.5,772.119 604.042,774.147 605.225,776.041C605.618,776.671 606.745,777.767 606.807,778.781C606.82,779 607.41,779.9 607.597,780.15C607.97,780.647 608.938,781.143 609.178,781.52C609.968,782.751 609.999,784.31 610.76,785.628C610.958,785.97 611.505,785.554 611.552,786.314C611.571,786.632 612.143,787.308 612.342,787.683C612.906,788.742 613.257,789.662 613.925,791.107C615.181,793.827 618.124,798.199 619.46,802.064C622.236,800.526 622.202,797.406 623.415,795.216C623.667,794.762 624.757,794.231 624.997,793.846C625.474,793.08 625.396,792.486 625.787,791.791C626.391,790.722 626.757,789.381 627.37,788.368C627.64,787.922 628.713,787.382 628.952,786.997C629.438,786.214 629.275,785.633 629.742,784.942C630.187,784.283 630.911,784.087 631.324,783.573C631.522,783.326 631.065,782.387 631.324,782.204C631.883,781.808 632.727,780.242 633.697,778.78C633.988,778.34 635.029,777.799 635.278,777.409C635.44,777.16 635.035,776.213 635.278,776.04C636.023,775.514 637.402,773.984 638.442,772.616C638.889,772.026 639.638,771.725 640.024,771.247C640.222,771 639.765,770.06 640.024,769.876C640.143,769.792 640.731,769.983 640.814,769.876C641.21,769.373 641.122,768.382 641.606,767.823C641.897,767.487 642.927,767.457 643.187,767.137C643.72,766.484 643.384,765.635 643.978,765.082C644.297,764.784 645.291,764.705 645.56,764.397C646.094,763.786 645.844,762.917 646.35,762.342C646.777,761.861 647.444,761.522 647.932,760.973C649.257,759.484 650.544,758.617 651.887,756.864C652.179,756.483 652.629,756.973 652.677,756.179C652.735,755.23 654.698,754.495 655.841,753.44C663.441,746.423 671.129,739.891 680.36,734.264C684.848,731.529 689.542,729.026 694.595,726.731C699.609,724.457 704.609,722.023 710.413,720.569C709.911,721.311 708.874,721.47 708.04,721.938C706.87,722.594 705.823,723.122 704.087,723.993C702.913,724.581 701.805,725.146 700.131,726.048C699.586,726.341 699.041,727.135 698.551,727.417C697.16,728.218 695.875,728.665 694.595,729.472C694.15,729.753 694.727,730.115 693.805,730.158C692.979,730.195 691.722,731.458 690.642,732.213C689.479,733.024 688.675,734.087 687.477,734.951C686.844,735.408 685.729,735.222 685.105,735.637C684.645,735.942 683.996,736.627 683.524,737.006C682.386,737.915 681.366,738.892 680.36,739.746C671.788,747.01 664.27,755.127 657.423,764.398C656.862,765.158 656.354,765.632 655.841,766.453C655.155,767.553 654.408,768.471 653.469,769.876C653.072,770.47 653.138,771.196 652.677,771.932C652.403,772.373 651.334,772.917 651.095,773.302C650.279,774.616 650.589,775.682 649.514,777.409C649.253,777.829 648.138,778.417 647.932,778.78C647.226,780.023 647.018,781.626 646.35,782.889C646.137,783.295 644.933,783.925 644.769,784.258C644.581,784.636 644.885,785.224 644.769,785.627C644.581,786.281 643.132,788.794 642.395,790.421C641.975,791.349 641.176,791.908 640.814,793.16C640.509,794.22 640.506,794.854 640.024,795.9C639.709,796.58 639.509,796.996 639.232,797.954C639.058,798.557 638.696,799.128 638.442,800.008C638.268,800.612 637.905,801.183 637.651,802.063C637.476,802.667 637.114,803.238 636.86,804.118C636.686,804.722 636.323,805.292 636.069,806.173C635.537,808.017 633.678,813.012 632.906,815.76C632.129,818.521 631.215,821.763 630.533,824.663C629.469,829.192 630.177,833.966 631.324,839.045C633.839,850.176 635.483,867.609 634.487,882.189C634.493,882.103 633.722,882.448 633.697,882.874C633.485,886.35 633.423,891.39 632.906,895.201C632.15,900.761 630.984,905.541 629.742,910.951C629.627,911.455 630.133,913.352 629.742,913.69C629.682,913.741 628.967,913.633 628.952,913.69C628.817,914.206 629.353,916.082 628.952,916.43C628.892,916.481 628.175,916.372 628.16,916.43C628.028,916.943 628.561,918.821 628.16,919.168C628.086,919.232 627.401,919.093 627.37,919.168C626.857,920.418 627.129,920.97 626.578,921.908C625.567,923.637 623.223,925.763 622.624,928.756C605.224,928.754 587.823,928.754 570.424,928.754Z"/>
    </g>
</svg>
