<?xml version="1.0" encoding="UTF-8" standalone="no"?>
<!DOCTYPE svg PUBLIC "-//W3C//DTD SVG 1.1//EN" "http://www.w3.org/Graphics/SVG/1.1/DTD/svg11.dtd">
<svg width="100%" height="100%" viewBox="0 0 1163 1409" version="1.1" xmlns="http://www.w3.org/2000/svg" xmlns:xlink="http://www.w3.org/1999/xlink" xml:space="preserve" xmlns:serif="http://www.serif.com/" style="fill-rule:evenodd;clip-rule:evenodd;stroke-miterlimit:10;">
    <g id="市场2">
        <g>
            <path d="M574.472,483.188L586.47,483.188C587.009,484.66 590.719,483.763 593.219,483.938C603.3,484.637 615.494,486.247 625.465,488.438C628.876,489.188 631.736,489.63 635.964,490.688C636.667,490.864 637.842,491.098 638.964,491.438C639.393,491.568 641.349,492.542 642.713,492.938C644.877,493.565 646.657,493.772 648.712,494.438C649.829,494.799 651.717,495.339 653.212,495.938C653.688,496.127 653.801,496.626 653.962,496.688C655.671,497.327 657.642,497.547 659.211,498.188C659.533,498.32 659.171,498.895 659.961,498.938C660.159,498.948 660.526,498.865 660.711,498.938C661.675,499.323 664.318,500.532 665.96,501.188C666.473,501.392 666.503,501.852 666.71,501.938C667.8,502.384 668.616,502.167 669.71,502.688C670.072,502.861 669.637,503.395 670.46,503.438C671.116,503.472 672.449,504.293 673.459,504.938C673.738,505.117 674.109,505.637 674.209,505.688C675.237,506.21 676.152,505.897 677.209,506.438C677.682,506.679 678.305,507.734 678.709,507.938C679.749,508.46 680.63,508.163 681.708,508.688C682.077,508.867 681.631,509.393 682.458,509.438C683.115,509.472 684.448,510.294 685.458,510.938C686.309,511.479 687.021,511.779 687.707,512.438C688.372,513.075 689.889,513.077 691.457,513.938C691.773,514.113 691.939,515.318 692.207,515.438C692.601,515.615 693.342,515.213 693.707,515.438C694.003,515.62 694.202,516.823 694.457,516.938C694.853,517.118 695.583,516.717 695.956,516.938C696.471,517.241 696.999,518.147 697.456,518.438C701.277,520.872 704.865,523.073 708.705,525.936C709.129,526.252 708.58,526.64 709.455,526.686C709.645,526.697 710.737,527.274 710.954,527.436C711.202,527.624 711.479,528.835 711.704,528.936C712.724,529.395 713.47,529.457 714.704,530.436C716.073,531.522 717.017,532.977 718.453,534.186C719.825,535.341 721.619,535.99 722.953,537.186C724.263,538.362 725.334,539.745 726.702,540.936C726.912,541.12 727.255,542.347 727.452,542.436C728.43,542.876 729.306,542.888 730.452,543.936C731.803,545.173 732.915,546.4 734.201,547.686C735.78,549.264 737.455,550.982 738.701,552.936C739.673,554.46 743.292,557.032 743.95,559.684C747.413,560.384 748.221,564.21 749.949,566.434C750.881,567.633 752.172,568.399 752.949,569.434C753.856,570.643 754.362,572.057 755.199,573.184C756.071,574.359 757.274,574.915 758.198,576.184C758.705,576.879 758.459,577.793 758.948,578.434C759.386,579.008 759.972,579.247 760.448,579.934C761.253,581.099 761.892,582.475 762.698,583.684C763.019,584.169 763.92,584.737 764.198,585.184C764.583,585.804 764.494,586.692 764.947,587.434C765.255,587.937 766.167,588.484 766.447,588.934C766.848,589.58 766.746,590.391 767.197,591.184C767.468,591.661 768.47,592.266 768.697,592.684C769.157,593.538 769.024,594.175 769.447,594.934C769.714,595.413 770.719,596.015 770.947,596.434C771.721,597.873 771.426,599.04 772.447,600.934C772.697,601.4 773.744,602.032 773.946,602.434C774.635,603.806 774.664,605.353 775.446,606.934C775.69,607.427 776.717,608.012 776.946,608.434C777.394,609.268 777.335,609.924 777.696,610.684C779.055,613.542 780.247,616.097 781.445,618.932C781.679,619.489 781.813,620.475 782.195,621.182C782.397,621.557 783.588,622.381 783.695,622.682C784.431,624.757 784.063,626.985 785.195,628.682C785.677,629.408 785.676,629.865 785.945,630.932C786.11,631.593 786.454,632.218 786.695,633.182C786.86,633.843 787.204,634.468 787.445,635.432C787.604,636.075 788.118,635.943 788.195,636.182C788.708,637.79 788.524,639.906 788.944,641.432C788.961,641.492 789.577,641.711 789.694,642.182C790.207,644.232 791.311,647.842 791.944,650.432C793.721,657.721 795.395,666.998 796.443,675.928C797.128,681.764 797.693,686.287 797.943,692.426C798.006,693.956 797.26,696.259 798.693,697.676L798.693,710.425C797.249,710.829 798.084,714.149 797.943,716.423C797.624,721.618 797.287,728.802 796.443,735.171C796.339,735.958 795.791,736.813 795.694,738.171C795.625,739.144 795.864,740.213 795.694,741.171C795.678,741.251 794.974,741.319 794.944,741.921C794.71,746.357 793.171,752.602 791.944,757.669C790.725,762.7 789.215,767.975 787.445,773.417C787.006,774.764 786.302,775.731 785.945,777.166C785.655,778.325 785.651,779.021 785.195,780.165C784.897,780.911 784.707,781.366 784.445,782.415C784.163,783.546 783.034,786.374 782.195,788.415C782.061,788.74 781.487,788.372 781.445,789.165C781.361,790.768 780.635,791.233 779.946,792.914C779.356,794.346 779.087,796.02 778.446,797.413C778.282,797.768 777.739,797.348 777.696,798.163C777.676,798.514 777.134,799.252 776.946,799.663C776.592,800.432 775.508,801.495 775.446,802.663C775.426,803.012 774.885,803.751 774.696,804.163C774.342,804.932 773.258,805.995 773.196,807.162C773.177,807.512 772.635,808.251 772.447,808.662C772.188,809.223 772.093,810.219 771.697,810.911C771.518,811.224 770.315,811.399 770.197,811.661C770.016,812.059 770.417,812.788 770.197,813.161C769.912,813.646 768.942,814.229 768.697,814.661C768.156,815.61 768.544,816.723 767.947,817.661C767.583,818.234 766.875,818.428 766.447,819.161C766.158,819.656 766.031,820.139 765.697,820.661C765.47,821.015 765.061,821.219 764.947,821.411C764.602,821.992 764.638,822.976 764.198,823.66C764.012,823.944 762.808,824.163 762.698,824.41C762.231,825.444 762.088,826.112 761.198,827.409C760.664,828.188 760.274,828.889 759.698,829.659C759.283,830.214 758.531,830.684 758.198,831.159C758.01,831.43 758.444,832.458 758.198,832.659C757.938,832.87 756.874,833.152 756.699,833.409C756.309,833.977 756.414,835.019 755.949,835.659C755.487,836.292 754.136,836.534 753.699,837.158C753.194,837.88 753.449,838.755 752.949,839.408C752.761,839.651 751.549,839.936 751.449,840.158C750.989,841.179 750.92,841.915 749.949,843.157C749.762,843.395 748.548,843.69 748.45,843.907C747.997,844.911 747.959,845.708 746.95,846.907C746.424,847.532 745.192,847.774 744.7,848.407C744.298,848.924 744.416,850.12 743.95,850.657C742.038,852.856 739.461,854.741 737.201,857.405C734.673,860.387 730.742,864.194 727.452,867.155C726.235,868.249 724.923,869.063 723.703,870.153C723.121,870.674 722.821,871.971 722.203,872.403C721.477,872.911 720.581,872.61 719.953,873.153C718.746,874.196 718.208,875.882 716.954,876.903C716.693,877.114 715.66,876.651 715.454,876.903C715.242,877.163 714.961,878.227 714.704,878.403C714.155,878.778 713.058,878.694 712.454,879.153C711.828,879.628 711.58,880.966 710.954,881.403C710.232,881.907 709.357,881.655 708.705,882.153C708.459,882.339 708.177,883.551 707.955,883.653C706.924,884.118 706.227,884.221 704.955,885.153C704.532,885.462 705.079,885.856 704.205,885.901C703.976,885.915 702.968,886.477 702.705,886.651C702.196,886.991 701.672,887.837 701.206,888.151C700.393,888.702 699.85,889.169 698.956,889.651C698.409,889.948 697.35,889.981 696.706,890.401C696.424,890.587 696.202,891.79 695.956,891.901C695.586,892.069 694.778,891.667 694.457,891.901C693.86,892.333 693.696,892.938 692.957,893.401C692.46,893.712 691.987,893.811 691.457,894.151C691.103,894.376 690.899,894.786 690.707,894.901C690.066,895.28 688.782,896.344 687.707,896.401C687.357,896.419 686.618,896.962 686.208,897.151C685.647,897.409 684.651,897.505 683.958,897.901C683.645,898.077 683.471,899.282 683.208,899.401C682.81,899.579 682.082,899.18 681.708,899.401C681.242,899.673 680.621,900.68 680.208,900.901C679.191,901.438 678.262,901.11 677.209,901.649C676.747,901.885 676.102,902.96 675.709,903.149C674.389,903.786 672.704,903.942 671.209,904.649C670.847,904.821 671.28,905.356 670.46,905.399C670.109,905.419 669.37,905.96 668.96,906.149C658.391,911.03 644.94,915.532 631.465,918.897C624.176,920.716 616.747,922.403 608.967,923.397C602.931,924.168 596.559,924.495 590.22,924.897C588.569,925.001 586.324,924.188 584.971,925.647L575.972,925.647C574.325,924.163 571.815,925.032 569.972,924.897C563.806,924.444 554.75,923.745 548.225,922.647C547.746,922.567 547.195,922.764 546.725,922.647C542.432,921.575 534.127,920.284 528.728,918.897C523.54,917.567 518.354,916.149 512.98,914.399C511.893,914.044 510.586,913.237 509.23,912.899C508.07,912.608 507.375,912.606 506.231,912.149C504.984,911.649 502.645,910.753 500.231,909.899C500.061,909.837 500.041,909.29 499.481,909.149C497.916,908.757 497.054,908.26 495.732,907.649C494.623,907.137 492.932,907.065 491.233,906.149C490.783,905.907 490.119,904.833 489.733,904.649C488.685,904.153 487.793,904.442 486.733,903.899C486.264,903.659 485.634,902.598 485.233,902.399C484.198,901.885 483.292,902.192 482.234,901.649C481.75,901.401 481.151,900.37 480.734,900.151C479.767,899.639 478.671,899.997 477.734,899.401C477.142,899.024 477.005,898.327 476.234,897.901C474.772,897.091 473.181,896.487 471.734,895.651C468.271,893.649 464.488,891.555 461.235,888.901C460.755,888.507 460.161,887.696 459.735,887.401C459.464,887.214 458.436,887.647 458.235,887.401C458.049,887.173 457.707,886.038 457.485,885.901C456.687,885.413 455.933,885.651 455.235,885.153C454.813,884.85 455.359,884.448 454.485,884.403C453.689,884.36 452.526,882.977 451.485,882.153C443.633,875.93 434.044,868.1 426.738,860.405C425.675,859.284 423.998,858.567 422.988,857.405C422.768,857.153 423.241,856.114 422.988,855.905C420.103,853.546 416.963,849.753 413.989,846.157C413.804,845.934 412.582,845.614 412.489,845.407C412.029,844.386 411.96,843.649 410.989,842.407C410.802,842.169 409.588,841.875 409.489,841.657C409.027,840.635 408.95,839.909 407.989,838.658C407.082,837.477 405.941,836.179 404.989,834.909C404.426,834.155 404.073,833.418 403.489,832.659C402.817,831.784 402.093,830.995 401.239,829.659C401.013,829.305 400.604,829.102 400.489,828.909C400.153,828.344 400.179,827.319 399.739,826.659C399.554,826.383 398.349,826.153 398.239,825.909C397.773,824.877 397.58,824.225 396.739,822.91C396.207,822.078 395.725,821.559 395.239,820.661C394.925,820.077 394.914,819.113 394.489,818.411C394.308,818.112 393.104,817.917 392.989,817.661C392.81,817.264 393.21,816.534 392.989,816.161C392.701,815.671 391.742,815.098 391.489,814.661C391.33,814.388 391.723,813.352 391.489,813.161C390.483,812.338 390.178,811.848 389.239,810.161C389.018,809.765 388.534,810.262 388.489,809.411C388.394,807.6 385.901,803.44 384.739,801.163C384.425,800.546 384.404,799.684 383.989,798.913C383.753,798.473 382.664,797.791 382.489,797.413C381.782,795.878 381.691,793.857 380.989,792.164C380.853,791.837 380.281,792.208 380.239,791.414C380.205,790.758 379.252,788.899 378.739,787.665C373.738,775.604 369.701,761.723 366.74,746.42C366.433,744.835 366.55,744.155 365.99,741.921C365.804,741.18 365.58,739.743 365.24,737.421C365.073,736.272 364.615,736.11 364.49,735.171C363.93,730.944 364.075,726.733 363.74,722.423C363.684,721.708 363.084,720.727 362.99,719.423C362.92,718.43 363.041,717.419 362.99,716.423C362.914,714.891 363.683,712.594 362.24,711.175L362.24,697.676C362.929,697.512 362.981,697.047 362.99,696.176C363.048,690.476 363.483,683.818 363.74,678.928C363.767,678.409 364.492,678.154 364.49,678.178C364.711,676.077 364.422,674.245 364.49,672.93C364.52,672.361 365.234,672.219 365.24,672.18C365.781,668.542 366.029,664.569 366.74,660.93C367.131,658.935 367.392,658.294 367.49,656.432C367.524,655.784 368.209,655.824 368.24,655.682C368.701,653.616 368.503,651.619 368.99,649.682C369.028,649.532 369.597,649.501 369.74,648.932C371.178,643.185 372.711,636.841 374.24,632.434C374.573,631.476 374.528,630.703 374.99,629.434C375.107,629.111 376.31,628.344 376.49,627.934C376.932,626.924 376.978,625.636 377.24,624.934C377.58,624.023 377.722,623.359 377.99,622.684C378.368,621.732 378.243,620.92 378.74,619.684C378.881,619.334 380.051,618.618 380.24,618.184C380.719,617.089 380.628,615.977 380.99,615.184C384.487,607.545 388.218,600.413 392.239,593.437C393.018,592.084 393.699,590.204 394.489,588.937C394.769,588.489 395.666,587.922 395.989,587.437C396.164,587.174 396.727,586.166 396.739,585.937C396.797,584.861 397.86,583.577 398.239,582.937C398.353,582.744 398.763,582.541 398.989,582.187C399.332,581.65 399.414,581.182 399.739,580.687C400.043,580.227 400.906,579.687 401.239,579.187C401.414,578.924 401.977,577.916 401.989,577.687C402.035,576.813 402.435,577.36 402.739,576.937C404.477,574.518 406.174,571.811 407.988,569.438C410.394,566.293 413.608,562.95 415.487,560.439C417.254,558.08 419.086,557.03 420.737,555.19C421.776,554.032 421.794,553.173 422.237,552.19C422.327,551.991 423.553,551.653 423.737,551.44C426.961,547.705 430.123,544.783 433.486,541.691C435.782,539.58 438.047,537.451 439.485,535.692C439.693,535.439 440.733,535.913 440.985,535.692C442.756,534.143 444.066,532.254 445.485,531.192C447.796,529.463 449.494,528.181 451.484,526.692C452.576,525.875 453.645,524.486 454.484,524.442C455.358,524.395 454.811,524 455.234,523.692C465.538,516.196 477.07,509.96 488.98,504.194C501.093,498.329 514.143,493.393 527.975,489.945C533.154,488.654 541.147,487.215 545.223,486.195C546.349,485.913 547.808,486.257 548.972,486.195C549.532,486.166 549.695,485.449 549.722,485.445C553.824,484.872 558.153,485.045 562.47,484.695C564.484,484.532 566.38,484.073 568.47,483.945C570.311,483.825 572.825,484.654 574.472,483.188Z" style="fill:url(#_Linear1);fill-rule:nonzero;stroke:rgb(0,160,233);stroke-width:1px;"/>
        </g>
    </g>
    <defs>
        <linearGradient id="_Linear1" x1="0" y1="0" x2="1" y2="0" gradientUnits="userSpaceOnUse" gradientTransform="matrix(0.9999,338,-338,0.9999,579.856,497.987)"><stop offset="0" style="stop-color:rgb(255,255,195);stop-opacity:1"/><stop offset="1" style="stop-color:rgb(228,204,59);stop-opacity:1"/></linearGradient>
    </defs>
</svg>
