<?xml version="1.0" encoding="UTF-8" standalone="no"?>
<!DOCTYPE svg PUBLIC "-//W3C//DTD SVG 1.1//EN" "http://www.w3.org/Graphics/SVG/1.1/DTD/svg11.dtd">
<svg width="100%" height="100%" viewBox="0 0 1163 1409" version="1.1" xmlns="http://www.w3.org/2000/svg" xmlns:xlink="http://www.w3.org/1999/xlink" xml:space="preserve" xmlns:serif="http://www.serif.com/" style="fill-rule:evenodd;clip-rule:evenodd;stroke-linejoin:round;stroke-miterlimit:2;">
    <g id="进步1">
        <path d="M671.985,835.151C659.419,838.587 647.133,841.915 635.241,846.399C634.975,846.5 633.907,846.197 633.741,846.399C633.307,846.93 631.495,847.33 629.241,847.899C627.468,848.347 626.239,849.025 624.741,849.399C623.257,849.77 621.893,850.239 620.243,850.899C619.975,851.005 618.911,850.692 618.743,850.899C617.893,851.938 613.089,853.327 611.243,853.899C609.989,854.288 607.997,854.254 606.745,854.648C604.374,855.394 601.981,856.781 599.245,857.648C597.78,858.112 596.179,858.79 594.745,859.148C592.903,859.608 590.595,859.871 587.997,860.648C586.679,861.042 585.556,861.715 584.247,862.147C582.22,862.817 581.308,863.257 579.747,863.647C578.264,864.018 577.516,864.768 575.997,865.147C573.997,865.647 571.092,865.775 568.498,866.647C568.232,866.737 568.493,867.358 567.748,867.397C565.37,867.522 561.195,869.497 557.999,870.396C555.363,871.139 552.673,872.596 549.75,871.896C547.474,861.174 545.396,850.252 543.001,839.65C529.76,844.121 510.651,851.218 496.507,849.399C496.496,849.398 496.303,848.678 495.757,848.649C494.115,848.563 493.404,848.561 492.007,847.899C491.644,847.727 492.079,847.193 491.257,847.149C490.297,847.099 490.31,845.899 489.757,845.65C489.396,845.487 488.566,845.885 488.257,845.65C486.775,844.514 485.511,842.476 484.507,841.15C483.157,839.367 482.291,836.807 480.757,834.401C480.253,833.611 480.676,831.321 480.007,830.651C479.964,830.608 479.261,830.693 479.257,830.651C478.985,827.634 480.969,823.994 481.507,820.903C482.073,817.646 483.085,813.876 482.257,810.404C481.73,808.193 480.341,806.556 478.507,805.155C477.458,804.352 476.361,803.902 474.757,802.905C474.273,802.604 473.695,801.663 473.257,801.405C472.457,800.934 471.738,801.061 471.007,800.655C470.682,800.474 470.333,799.634 469.507,799.905C469.17,798.458 468.702,797.141 468.007,795.406C467.696,794.63 465.653,788.303 468.757,787.157C468.979,784.63 472.082,784.982 472.507,782.658C470.405,780.733 467.173,780.351 464.258,778.908C463.331,778.449 462.58,777.739 461.258,777.408C457.729,776.526 455.338,770.94 457.508,764.66C459.622,763.275 461.561,761.715 461.258,757.911C460.444,757.725 460.749,756.42 459.758,756.411C456.116,752.347 449.994,755.563 445.51,752.661C445.094,752.392 445.627,751.957 444.76,751.912C443.919,751.867 442.386,749.3 441.76,747.412C440.384,743.259 440.809,738.215 442.51,733.914C442.598,733.691 443.11,733.765 443.26,733.164C443.652,731.599 444.15,730.736 444.76,729.414C445.042,728.804 445.115,727.94 445.51,727.165C445.76,726.674 446.783,726.086 447.01,725.665C447.767,724.259 448.392,720.904 449.26,718.916C449.377,718.647 449.85,718.806 450.01,718.166C450.12,717.725 449.832,717.081 450.01,716.666C450.208,716.203 451.34,715.545 451.51,715.166C451.986,714.108 451.718,713.225 452.26,712.167C452.483,711.73 453.599,711.033 453.76,710.667C453.94,710.256 453.65,709.606 453.76,709.167C453.946,708.425 454.703,707.481 455.26,706.167C456.506,703.225 457.859,700.049 459.01,697.169C459.43,696.117 460.174,694.762 460.51,693.419C460.865,691.997 460.48,691.488 461.26,689.669C461.426,689.282 462.664,688.463 462.76,688.17C463.261,686.632 463.077,684.615 463.51,682.92C463.517,682.892 464.148,682.617 464.26,682.171C464.522,681.121 464.98,679.974 465.01,678.421C465.064,675.605 463.953,673.411 463.51,671.672C463.145,670.236 463.084,669.719 462.76,668.672C461.517,664.657 462.146,657.545 462.76,651.424C463.232,646.721 463.496,642.081 464.26,637.926C464.305,637.682 465.311,637.217 465.01,636.426C464.906,636.154 464.078,636.489 464.26,635.676C464.292,635.533 464.976,635.575 465.01,634.927C465.036,634.426 465.606,634.03 465.76,633.427C466.315,631.257 466.755,629.407 467.26,627.427C467.56,626.252 466.997,624.864 467.26,623.678C467.291,623.537 467.976,623.574 468.01,622.928C468.02,622.729 467.937,622.362 468.01,622.178C468.384,621.243 469.437,618.446 470.26,616.179C472.931,608.823 475.865,601.991 479.259,595.931C482.935,589.368 486.981,583.885 491.258,578.684C495.594,573.41 500.419,568.338 506.256,563.686C506.807,563.247 508.328,561.485 509.256,561.436C509.456,561.425 510.53,560.852 510.756,560.686C511.01,560.499 511.278,559.289 511.506,559.186C511.889,559.013 512.661,559.416 513.006,559.186C513.284,559.001 513.513,557.796 513.756,557.686C514.136,557.515 514.916,557.917 515.256,557.686C515.528,557.5 515.766,556.294 516.006,556.187C516.389,556.014 517.161,556.416 517.506,556.187C517.784,556.001 518.013,554.796 518.256,554.687C518.644,554.512 519.402,554.915 519.756,554.687C520.042,554.503 520.257,553.299 520.506,553.187C520.904,553.007 521.632,553.407 522.006,553.187C522.471,552.914 523.093,551.906 523.506,551.687C524.529,551.145 525.432,551.459 526.506,550.937C526.875,550.758 526.429,550.231 527.256,550.187C527.613,550.168 528.335,549.626 528.756,549.437C533.283,547.4 538.794,545.137 544.504,543.438C545.62,543.106 547.246,542.038 549.004,541.938C551.61,541.791 556.348,540.347 559.503,539.689C560.204,539.543 561.069,539.895 561.753,539.689C562.389,539.497 563.992,539.268 566.253,538.939C586.417,535.999 612.295,538.784 629.245,543.438C630.671,543.83 631.196,543.825 632.245,544.188C634.261,544.887 637.573,545.492 640.493,546.438C641.581,546.791 642.888,547.598 644.243,547.938C645.403,548.228 646.098,548.23 647.243,548.688C647.743,548.887 650.446,550.869 651.743,550.937C652.538,550.979 655.673,553.118 656.991,553.187C657.649,553.221 658.983,554.043 659.991,554.687C660.272,554.866 660.643,555.386 660.741,555.437C661.77,555.959 662.684,555.646 663.741,556.187C664.239,556.442 664.813,557.449 665.241,557.686C665.514,557.839 666.552,557.457 666.741,557.686C666.903,557.885 667.302,559.082 667.491,559.186C668.45,559.713 669.548,559.341 670.491,559.936C670.78,560.12 670.989,561.323 671.239,561.436C672.274,561.903 672.936,562.059 674.239,562.936C677.075,564.841 679.882,566.771 682.489,568.935C685.907,571.772 688.895,574.712 692.237,577.934C692.887,578.561 693.104,579.543 693.737,580.183C694.827,581.286 696.477,582.019 697.487,583.183C698.577,584.442 699.321,586.151 700.487,587.683C702.325,590.1 704.591,592.874 706.485,595.931C706.794,596.428 706.897,596.901 707.235,597.431C707.462,597.785 707.872,597.988 707.985,598.181C708.616,599.244 708.839,600.316 709.485,601.931C709.823,602.774 710.481,603.39 710.985,604.18C711.174,604.478 711.671,604.809 711.735,604.93C712.272,605.949 711.946,606.877 712.485,607.93C712.714,608.379 713.809,609.05 713.985,609.43C714.514,610.581 714.344,611.521 714.735,612.429C714.932,612.893 715.184,613.457 715.485,613.929C716.01,614.754 717.089,618.05 717.733,619.928C718.962,623.493 719.975,627.392 720.733,631.177C721.137,633.193 721.098,635.941 721.483,637.926C721.503,638.03 722.202,638.058 722.233,638.676C722.331,640.51 722.805,641.204 722.983,643.175C723.585,649.81 722.983,656.004 722.983,661.923C722.983,667.797 723.438,673.886 722.983,680.671C722.391,689.511 720.444,697.923 717.733,705.417C717.295,706.631 716.754,707.814 716.235,709.167C716.131,709.433 716.438,710.5 716.235,710.667C716.147,710.738 715.528,710.573 715.485,710.667C715.356,710.939 715.704,711.987 715.485,712.167C714.803,712.724 714.323,713.521 713.985,714.416C713.885,714.681 714.186,715.751 713.985,715.916C713.901,715.984 713.274,715.828 713.235,715.916C713.116,716.187 713.448,717.242 713.235,717.416C713.147,717.488 712.528,717.322 712.485,717.416C712.356,717.688 712.704,718.737 712.485,718.916C711.518,719.707 709.79,723.728 708.735,725.665C708.319,726.429 707.639,726.584 707.235,727.165C707.047,727.435 707.481,728.464 707.235,728.665C707.135,728.746 706.544,728.56 706.485,728.665C706.331,728.939 706.717,729.976 706.485,730.164C706.397,730.236 705.78,730.071 705.735,730.164C705.606,730.436 705.954,731.485 705.735,731.664C705.635,731.747 705.047,731.558 704.985,731.664C704.305,732.84 702.799,734.96 702.735,736.164C702.684,737.137 701.583,737.099 701.237,737.663C700.762,738.436 700.883,739.196 700.487,739.913C700.266,740.309 699.782,739.814 699.737,740.663C699.729,740.813 699.817,741.291 699.737,741.413C699.219,742.202 698.008,742.836 697.487,743.663C697.01,744.415 697.128,745.207 696.737,745.912C696.516,746.308 696.032,745.813 695.987,746.662C695.979,746.813 696.067,747.29 695.987,747.412C695.423,748.272 694.393,748.691 693.737,749.662C692.467,751.538 691.393,753.619 689.987,755.661C689.628,756.183 688.839,756.681 688.487,757.161C688.153,757.619 688.096,758.182 687.737,758.661C686.546,760.253 685.895,761.079 684.739,763.16C684.518,763.556 684.034,763.061 683.989,763.91C683.981,764.06 684.069,764.538 683.989,764.66C683.376,765.595 682.356,766.012 681.739,766.91C680.44,768.796 679.307,771.073 677.989,772.909C677.561,773.505 676.948,773.663 676.489,774.409C676.198,774.881 676.081,775.424 675.739,775.909C675.178,776.706 674.026,777.378 673.489,778.158C672.194,780.043 671.413,782.39 669.741,784.157C668.134,785.801 667.678,788.595 665.991,790.157C667.954,793.785 667.807,797.677 668.241,801.405C668.598,804.485 668.598,807.866 668.991,811.154C669.083,811.925 669.643,812.807 669.741,814.154C669.94,816.964 669.997,819.354 670.491,823.153C670.491,823.165 671.212,823.354 671.239,823.902C671.302,825.067 670.958,826.526 671.239,827.652C671.434,828.447 672.592,832.255 671.985,835.151ZM546.001,587.683C537.762,587.942 532.768,591.448 526.503,593.682C526.293,591.833 524.497,590.343 523.503,589.182C522.315,587.794 521.32,585.527 519.003,585.433C514.221,588.9 510.286,593.214 505.504,596.681C506.612,601.073 510.895,602.289 512.254,606.43C510.682,608.246 509.6,610.246 508.504,611.679C506.908,613.766 506.464,615.859 505.504,618.429C505.391,618.732 504.928,618.485 504.754,619.179C504.491,620.228 504.302,620.683 504.004,621.428C503.78,621.988 504.028,622.925 503.254,622.928L492.005,622.928C491.229,628.902 490.422,634.843 490.505,641.676C494.953,641.227 497.189,642.991 501.754,642.426C502.057,650.121 505.048,655.13 507.004,661.173C505.481,664.9 500.542,665.21 499.505,669.422C503.655,674.021 507.341,679.084 511.504,683.67C514.284,680.951 516.929,678.097 520.503,676.171C520.991,678.006 522.872,678.304 524.252,679.171C524.705,679.455 525.225,680.4 525.752,680.671C526.805,681.21 527.733,680.884 528.752,681.421C529.164,681.637 529.787,682.65 530.252,682.92C531.753,683.795 533.313,683.982 534.002,684.42C535.402,685.313 537.626,684.984 537.752,686.67C535.937,688.605 537.89,694.307 536.252,696.419C539.428,697.209 542.434,697.727 545.251,697.918C547.358,698.063 548.563,697.081 549.001,697.169C549.281,697.225 548.938,697.906 549.751,697.918C551.875,697.949 553.493,697.896 555.75,697.918C555.82,693.989 556.998,691.167 556.5,686.67C564.8,686.971 569.608,683.78 575.248,681.421C576.927,682.888 578.084,683.312 579.747,685.17C580.872,686.427 581.496,689.639 583.497,689.669C583.487,689.669 586.563,686.612 586.497,686.67C589.948,683.701 592.995,681.488 595.495,679.171C596.122,678.591 596.985,678.128 596.995,676.921C594.776,674.142 592.372,671.545 590.247,668.672C593.251,664.927 595.542,660.47 597.745,655.924C599.233,654.912 597.509,650.689 599.995,650.675C602.46,652.209 607.589,651.079 611.243,651.424C610.253,644.323 613.397,637.731 611.243,631.927L600.745,631.927C600.454,625.718 598.079,621.594 596.995,616.179C595.515,615.66 594.997,614.179 594.745,612.429C597.702,612.636 597.038,609.223 599.995,609.43C600.77,607.456 602.97,606.904 603.745,604.93C601.073,603.353 599.843,600.333 597.745,598.181C596.081,596.366 594.444,594.225 593.245,592.932C592.665,592.306 592.204,591.442 590.997,591.432C589.839,592.734 587.87,593.277 586.497,594.432C585.13,595.581 584.447,598.265 581.997,598.181C578.227,595.079 573.4,592.461 569.249,590.682C567.853,590.083 565.249,590.405 564.749,588.433C565.337,585.27 566.113,579.144 565.499,577.184C558.986,577.198 553.243,576.441 547.501,575.684C546.153,578.835 547.007,584.188 546.001,587.683ZM655.487,582.433C653.872,583.067 655.768,587.213 653.989,587.683C648.28,587.473 645.622,590.315 641.239,591.432C639.587,589.585 639.149,586.524 635.991,586.183C634.583,587.525 633.169,588.861 631.491,589.932C630.932,592.124 627.442,591.383 627.741,594.432C629.177,596.497 631.069,598.103 632.241,600.431C630.348,601.539 629.141,603.331 628.491,605.68C626.948,607.136 627.036,610.224 625.491,611.679C623.622,611.049 621.473,610.698 618.743,610.93C617.534,614.47 617.048,618.734 617.243,623.678C620.579,623.091 621.743,624.677 624.741,624.428C625.262,629.407 627.196,632.973 628.491,637.176C627.05,638.985 624.97,640.154 623.243,641.676C623.507,644.161 625.489,644.929 626.991,646.175C627.093,649.074 630.032,649.133 630.741,651.424C633.737,650.671 635.046,648.23 637.491,646.925C638.446,649.219 641.784,649.13 642.739,651.424C644.128,651.141 644.964,651.893 645.739,652.174C646.757,652.543 648.192,652.766 648.739,653.674C649.35,656.798 647.719,659.933 648.739,661.173C653.512,660.9 656.403,662.507 661.487,661.923L661.487,654.424C666.907,654.345 670.022,651.96 674.235,650.675C676.258,651.901 677.803,653.606 678.735,655.924C680.964,655.503 682.471,653.406 683.985,652.174C685.768,650.722 687.751,649.432 689.233,647.675C687.212,646.197 685.647,644.263 684.735,641.676C685.891,640.083 686.891,638.334 687.733,636.426C689.096,634.466 689.508,631.722 690.733,630.427L698.233,630.427C697.776,625.471 699.544,622.739 698.983,617.679C695.79,618.121 694.022,617.139 691.483,616.929C691.294,611.869 689.313,608.6 687.733,604.93C688.335,604.002 689.172,602.714 689.983,601.931C690.891,601.054 693.159,600.746 692.983,598.931C689.784,596.38 687.96,592.455 684.735,589.932C682.887,591.585 681.446,593.643 678.735,594.432C677.022,593.145 674.946,592.221 673.485,590.682C671.36,589.808 668.526,589.642 667.487,587.683C667.085,584.782 668.825,584.022 668.237,580.933C664.024,580.646 660.393,579.779 655.487,580.183L655.487,582.433ZM633.74,674.671C628.32,674.751 625.205,677.136 620.992,678.421C618.074,677.589 618.221,673.692 614.992,673.172C612.039,675.967 608.762,678.441 605.994,681.421C608.021,681.692 607.445,683.458 608.242,684.42C609.285,685.677 611.281,686.136 611.242,687.42C611.244,687.35 609.789,688.124 609.742,688.17C608.306,689.606 608.635,691.531 607.494,692.669C605.486,693.661 606.223,697.398 604.494,698.668C601.301,699.111 599.533,698.129 596.994,697.918C597.451,702.875 595.683,705.606 596.244,710.667C597.664,711.997 601.197,711.213 603.744,711.417C604.197,716.463 605.5,720.659 607.494,724.165C606.709,727.131 602.476,726.647 602.244,730.164C603.019,732.138 605.217,732.69 605.994,734.664C605.832,735.648 607.031,735.035 607.494,735.414C607.746,735.621 607.258,736.68 607.494,736.913C608.402,737.819 609.121,738.433 610.492,738.413C612.836,737.506 613.754,735.175 616.492,734.664C616.662,735.278 617.308,736.128 617.992,736.164C619.656,736.251 619.037,737.56 620.992,737.663C621.822,737.707 621.369,738.228 621.742,738.413C623.625,739.348 626.75,739.32 627.74,741.413C627.972,744.144 627.621,746.293 626.99,748.162C630.875,749.027 635.724,748.928 639.738,749.662C640.408,748.095 640.527,745.41 640.488,741.413C646.244,741.67 649.445,739.371 653.238,737.663C655.404,738.747 656.131,741.269 657.736,742.913C660.111,742.288 661.549,740.725 662.986,739.163C664.299,737.476 667.257,737.435 667.486,734.664C666.533,732.117 663.326,731.823 662.986,728.665C665.197,727.875 665.593,725.272 666.736,723.415C668.097,721.455 668.509,718.711 669.736,717.416C673.072,716.829 674.236,718.415 677.234,718.166C676.673,713.105 678.441,710.374 677.984,705.417C676.011,704.641 673.382,704.521 670.486,704.668C669.468,700.186 668.455,695.699 666.736,691.919C667.754,689.688 670.121,688.806 671.984,687.42C671.884,684.521 668.943,684.462 668.236,682.171C666.72,680.436 665.744,678.163 662.986,677.671C663.119,678.652 661.986,678.046 661.486,678.421C660.144,679.428 659.914,681.809 657.736,681.421C655.574,680.334 653.287,679.371 651.738,677.671C649.648,677.011 647.174,676.735 645.738,675.421C646.515,673.448 646.636,670.819 646.488,667.922C642.277,667.635 638.644,666.767 633.74,667.172L633.74,674.671Z"/>
        <path d="M654.739,599.681C654.747,599.68 654.956,598.973 655.487,598.931C657.175,598.799 663.762,599.125 665.987,599.681C666.161,599.725 666.063,600.396 666.737,600.431C666.966,600.443 667.973,601.006 668.237,601.181C668.508,601.362 670.27,601.667 670.487,601.931C671.577,603.264 673.991,605.91 675.735,607.93C676.034,608.277 676.975,608.334 677.235,608.68C677.434,608.946 676.987,609.976 677.235,610.18C677.327,610.255 677.936,610.082 677.985,610.18C678.124,610.453 677.762,611.496 677.985,611.679C678.909,612.435 680.333,619.257 680.235,622.178C680.196,623.374 679.825,625.164 679.485,626.678C679.032,628.696 678.749,630.031 677.985,631.177C677.756,631.52 677.358,631.729 677.235,631.927C676.526,633.069 675.967,634.195 674.985,635.676C674.708,636.095 674.282,635.558 674.235,636.426C674.223,636.648 672.938,637.732 672.735,637.926C672.075,638.559 671.28,638.92 670.487,639.426C670.114,639.663 667.188,641.613 665.987,641.676C665.546,641.698 665.012,642.248 664.487,642.426C663.831,642.647 662.872,642.154 662.237,642.426C661.921,642.562 662.231,643.072 661.487,643.175C659.337,643.474 657.198,643.343 655.487,643.175C654.649,643.093 652.342,642.91 650.989,642.426C650.704,642.323 650.999,641.716 650.239,641.676C649.157,641.618 648.618,640.248 647.239,640.176C645.077,640.062 641.325,635.545 639.739,633.427C638.919,632.328 638.727,632.372 638.241,630.427C638.247,630.455 637.553,628.23 637.491,628.177C636.151,627.081 635.667,621.948 635.991,618.429C636.182,616.346 637.262,613.849 638.241,611.679C638.362,611.408 638.024,610.356 638.241,610.18C639.378,609.249 639.448,608.791 640.489,607.18C640.759,606.764 641.194,607.297 641.239,606.43C641.305,605.164 642.534,605.363 644.239,604.18C644.509,603.994 644.753,602.787 644.989,602.681C645.376,602.507 646.139,602.91 646.489,602.681C646.772,602.496 646.993,601.291 647.239,601.181C648.278,600.712 649.216,600.991 650.239,600.431C650.608,600.229 650.251,599.853 650.989,599.681C652.168,599.405 653.535,599.851 654.739,599.681Z"/>
        <path d="M546.751,605.68C546.726,605.683 546.996,604.971 547.501,604.93C551.805,604.586 555.098,605.522 558.75,605.68C560.385,605.751 561.111,605.773 562.5,606.43C562.862,606.602 562.428,607.137 563.25,607.18C564.919,607.268 568.015,608.804 570,610.18C570.269,610.366 570.512,611.573 570.75,611.679C571.099,611.837 571.961,611.443 572.25,611.679C572.52,611.901 576.696,615.915 576.75,616.929C576.816,618.193 578.922,618.448 579,619.928C579.008,620.076 578.92,620.559 579,620.678C579.405,621.281 580.993,622.375 581.25,622.928C581.607,623.699 581.705,625.594 582,626.678C582.055,626.879 582.714,626.734 582.75,627.427C582.801,628.374 582.548,629.504 582.75,630.427C582.78,630.565 583.467,630.532 583.5,631.177C583.619,633.435 584.235,634.649 584.25,637.176C584.294,644.748 580.708,652.869 576.751,658.174C576.435,658.597 576.047,658.049 576.001,658.923C575.977,659.391 574.164,661.861 573.001,661.923C572.484,661.95 570.942,663.543 570.001,664.173C562.868,668.947 552.649,671.618 541.504,668.672C540.198,668.327 537.687,667.084 536.255,666.423C535.032,665.858 533.91,665.247 532.505,664.173C531.433,663.353 530.095,662.545 528.755,661.173C527.89,660.287 526.977,659.395 525.755,658.174C525.419,657.838 524.492,657.008 524.255,656.674C523.639,655.805 524.09,654.595 523.505,653.674C523.103,653.042 522.415,653.027 522.005,652.174C521.284,650.674 521.021,649.171 520.505,647.675C520.45,647.517 519.892,647.474 519.755,646.925C519.278,645.017 518.305,640.893 518.255,637.926C518.126,630.327 521.943,621.824 524.254,618.429C524.54,618.009 524.958,618.549 525.004,617.679C525.057,616.68 527.092,615.445 528.754,613.929C529.903,612.881 530.528,611.824 531.754,610.93C534.386,609.01 537.749,607.296 540.003,606.43C540.269,606.328 541.336,606.634 541.503,606.43C542.496,605.214 543.854,606.027 546.751,605.68Z"/>
        <path d="M634.49,686.67C634.494,686.669 634.691,685.941 635.24,685.92C639.58,685.751 644.205,686.73 647.238,688.17C647.767,688.421 648.291,689.392 648.738,689.669C650.404,690.705 652.384,691.656 653.988,694.169C654.41,694.832 655.445,695.781 656.236,697.169C656.394,697.443 656.004,698.479 656.236,698.668C656.371,698.778 657.695,699.314 657.736,699.418C658.033,700.167 658.257,702.864 658.486,703.918C659.408,708.154 659.293,710.525 657.736,715.166C657.65,715.426 657.931,716.507 657.736,716.666C657.648,716.738 657.031,716.572 656.986,716.666C656.857,716.938 657.205,717.987 656.986,718.166C656.9,718.236 656.279,718.074 656.236,718.166C655.791,719.136 656.082,720.267 655.486,721.165C654.685,722.375 651.734,724.491 650.238,725.665C649.619,726.15 649.515,726.686 648.738,727.165C647.978,727.632 645.771,728.971 644.238,729.414C643.984,729.488 642.89,729.228 642.738,729.414C642.695,729.468 642.789,730.156 642.738,730.164C639.324,730.749 632.254,730.332 629.24,729.414C629.138,729.384 628.994,728.791 628.49,728.665C627.043,728.303 625.836,727.952 624.74,727.165C624.482,726.978 624.222,725.769 623.99,725.665C623.64,725.507 622.781,725.902 622.492,725.665C621.824,725.121 621.601,724.025 620.992,723.415C620.441,722.865 619.181,722.527 618.742,721.915C618.549,721.646 618.988,720.617 618.742,720.416C617.722,719.582 617.638,719.749 617.242,718.166C617.25,718.194 616.556,715.969 616.492,715.916C615.664,715.238 616.111,714.888 615.742,713.666C615.539,712.992 615.189,711.519 614.992,709.167C614.953,708.696 615.105,708.124 614.992,707.667C614.928,707.41 614.256,706.641 614.242,706.917C614.273,706.261 615.392,704.394 615.742,703.168C616.193,701.585 616.01,699.733 616.492,698.668C616.652,698.316 617.199,698.731 617.242,697.918C617.285,697.099 618.689,695.924 619.492,694.919C620.847,693.22 621.99,691.694 623.99,690.419C624.345,690.193 624.549,689.784 624.74,689.669C625.381,689.29 626.203,689.362 626.99,688.92C627.469,688.651 628.072,687.646 628.49,687.42C630.031,686.59 631.526,687.016 634.49,686.67Z"/>
    </g>
</svg>
