<?xml version="1.0" encoding="UTF-8" standalone="no"?>
<!DOCTYPE svg PUBLIC "-//W3C//DTD SVG 1.1//EN" "http://www.w3.org/Graphics/SVG/1.1/DTD/svg11.dtd">
<svg width="100%" height="100%" viewBox="0 0 1163 1409" version="1.1" xmlns="http://www.w3.org/2000/svg" xmlns:xlink="http://www.w3.org/1999/xlink" xml:space="preserve" xmlns:serif="http://www.serif.com/" style="fill-rule:evenodd;clip-rule:evenodd;stroke-linejoin:round;stroke-miterlimit:2;">
    <g id="平等1">
        <path d="M567.098,539.18L597.094,539.18C598.012,540.263 599.956,540.318 600.844,541.43C602.174,546.086 601.594,551.303 601.594,557.178L601.594,572.926C602.284,574.47 604.317,573.52 605.344,573.676C612.647,574.785 622.848,575.966 630.84,577.426C632.62,577.751 634.403,577.439 636.84,578.176C637.405,578.347 639.372,579.334 641.34,579.676C641.881,579.77 643.979,579.317 644.338,579.676C644.397,579.735 644.274,580.409 644.338,580.426C647.692,581.248 651.122,581.717 654.838,582.676C655.022,582.724 654.905,583.39 655.588,583.426C657.639,583.534 658.909,584.312 660.835,584.926C662.524,585.465 664.563,585.704 666.085,586.426C666.448,586.598 666.014,587.133 666.835,587.176C667.489,587.21 670.889,588.11 672.085,588.676C672.446,588.848 672.014,589.383 672.835,589.426C673.489,589.461 676.889,590.36 678.083,590.926C678.446,591.097 678.012,591.633 678.833,591.676C679.708,591.722 680.749,592.682 681.833,593.176C682.104,593.3 683.155,592.96 683.333,593.176C683.405,593.264 683.239,593.882 683.333,593.926C683.604,594.055 684.653,593.707 684.833,593.926C684.903,594.012 684.741,594.634 684.833,594.676C685.889,595.16 686.772,594.885 687.831,595.426C688.212,595.619 687.747,596.132 688.581,596.176C689.553,596.227 689.519,597.391 690.081,597.676C691.215,598.25 692.172,597.945 693.081,598.426C696.596,600.284 700.102,602.614 703.579,604.425C705.61,609.158 707.682,613.89 709.579,618.674C711.044,622.365 712.374,625.878 714.079,629.923C714.192,630.193 713.868,631.251 714.079,631.423C714.167,631.495 714.784,631.33 714.829,631.423C714.958,631.695 714.61,632.744 714.829,632.923C715.442,633.424 715.348,633.495 715.579,634.423C715.571,634.396 716.266,636.62 716.329,636.673C717.01,637.231 717.491,638.027 717.829,638.923C717.93,639.189 717.626,640.257 717.829,640.423C718.44,640.924 718.348,640.995 718.579,641.923C718.571,641.896 719.266,644.12 719.327,644.173C719.659,644.444 721.188,647.115 721.577,648.673C721.948,650.156 722.698,650.904 723.077,652.423C723.448,653.906 724.198,654.654 724.577,656.173C725.59,660.219 728.001,665.073 729.827,669.672C730.469,671.284 731.333,673.06 732.077,674.921C732.182,675.189 731.87,676.252 732.077,676.421C732.758,676.979 733.239,677.775 733.577,678.671C733.678,678.937 733.374,680.005 733.577,680.171C734.258,680.729 734.739,681.525 735.075,682.421C735.178,682.687 734.874,683.755 735.075,683.921C735.758,684.479 736.237,685.275 736.575,686.171C736.676,686.437 736.374,687.505 736.575,687.671C736.649,687.733 737.299,687.593 737.325,687.671C737.684,688.655 737.663,690.415 738.075,691.421C738.229,691.797 739.491,692.646 739.575,692.921C739.772,693.574 739.301,694.55 739.575,695.171C739.803,695.681 740.839,696.245 741.075,696.671C741.227,696.945 740.846,697.983 741.075,698.171C742.202,699.093 743.067,703.069 744.075,705.669C744.157,705.884 744.678,705.825 744.825,706.419C745.196,707.903 745.944,708.651 746.325,710.169C747.042,713.04 748.542,716.804 750.073,719.919C751.499,721.632 754.456,720.218 756.823,720.669C758.618,721.009 760.561,721.897 761.323,722.917C761.969,723.522 761.768,724.972 762.823,725.167L762.823,729.667C761.071,731.276 762.512,734.079 762.073,737.165C761.989,737.751 761.602,739.11 761.323,740.165C760.987,741.435 760.647,744.157 759.823,746.165C759.69,746.489 759.114,746.122 759.073,746.915C759.063,747.114 759.145,747.481 759.073,747.665C758.708,748.577 757.841,751.317 756.823,752.913C756.661,753.167 756.321,754.962 756.073,755.163C755.985,755.235 755.368,755.069 755.323,755.163C755.194,755.436 755.542,756.485 755.323,756.663C754.587,757.265 754.36,757.323 753.823,758.163C753.302,758.983 752.86,759.571 752.323,760.413C751.587,761.571 751.048,762.118 750.073,763.413C747.678,766.595 745.35,770.132 741.825,772.411C741.409,772.681 741.942,773.116 741.075,773.161C740.114,773.212 740.128,774.413 739.575,774.661C739.204,774.829 738.401,774.427 738.075,774.661C737.417,775.136 737.2,776.409 736.575,776.911C736.315,777.12 735.282,776.659 735.075,776.911C734.885,777.145 734.557,778.265 734.327,778.411C733.387,779.003 732.329,778.61 731.327,779.161C731.01,779.335 730.844,780.54 730.577,780.661C730.165,780.847 729.481,780.462 729.077,780.661C728.176,781.104 727.776,781.718 726.827,782.161C725.741,782.667 724.985,782.458 723.827,782.911C723.516,783.03 723.858,783.618 723.077,783.659C722.796,783.675 720.985,783.468 720.827,783.659C720.044,784.618 717.34,785.45 714.829,785.909C714.131,786.038 713.258,785.704 712.579,785.909C711.405,786.263 707.553,786.483 704.329,786.659C696.03,787.114 685.421,787.097 677.333,784.409C676.213,784.038 674.335,783.511 672.835,782.911C672.314,782.702 672.301,782.251 672.085,782.161C670.993,781.704 670.188,781.925 669.085,781.411C667.981,780.895 666.788,780.087 665.335,779.161C664.516,778.638 663.93,778.198 663.085,777.661C662.233,777.118 661.522,776.819 660.835,776.161C660.198,775.55 659.215,775.263 658.585,774.661C657.731,773.841 656.743,773.307 655.588,772.411C655.163,772.083 655.713,771.708 654.838,771.661C654.442,771.64 649.653,767.661 649.588,766.413C649.565,765.948 647.893,764.067 647.338,763.413C647.153,763.194 645.93,762.866 645.838,762.663C645.667,762.286 646.069,761.497 645.838,761.163C645.317,760.413 644.2,759.782 643.588,758.913C643.399,758.642 643.833,757.614 643.588,757.413C643.374,757.239 642.21,756.872 642.09,756.663C641.928,756.39 642.321,755.354 642.09,755.163C642.001,755.093 641.383,755.257 641.34,755.163C641.21,754.892 641.559,753.843 641.34,753.663C640.522,752.995 639.032,749.546 638.34,747.665C637.915,746.517 637.986,745.263 637.59,743.915C637.524,743.69 636.876,743.878 636.84,743.165C636.776,741.95 636.245,741.894 636.09,740.915C635.895,739.7 636.311,738.376 636.09,737.165C636.073,737.077 635.37,737.022 635.34,736.417C635.288,735.442 635.495,734.378 635.34,733.417C634.986,731.235 633.096,726.536 636.09,723.667C636.571,720.157 642.444,720.622 647.338,720.669C649.204,715.917 650.663,711.276 652.588,706.419C652.862,705.726 653.915,705.349 654.088,704.921C654.346,704.275 653.823,703.315 654.088,702.671C654.221,702.345 654.794,702.712 654.838,701.921C654.852,701.636 655.092,698.576 655.588,698.171C656.297,697.59 656.696,697.621 657.088,696.671C657.493,695.68 657.422,693.951 657.838,692.921C657.987,692.544 659.254,691.698 659.335,691.421C659.536,690.757 659.071,689.81 659.335,689.171C659.473,688.844 660.044,689.214 660.085,688.421C660.1,688.169 660.612,686.706 660.835,686.171C662.012,683.355 663.344,680.466 664.585,677.172C664.686,676.907 664.383,675.838 664.585,675.672C665.292,675.094 665.704,675.125 666.085,674.172C666.192,673.905 665.879,672.841 666.085,672.672C667.112,671.832 668.159,668.316 669.085,665.923C669.708,664.315 670.565,662.593 671.335,660.673C671.44,660.406 671.129,659.342 671.335,659.173C672.016,658.616 672.497,657.819 672.835,656.923C672.936,656.658 672.633,655.589 672.835,655.423C672.917,655.356 673.547,655.512 673.585,655.423C673.702,655.153 673.372,654.097 673.585,653.923C673.672,653.851 674.29,654.016 674.333,653.923C674.463,653.652 674.114,652.603 674.333,652.423C674.413,652.359 675.051,652.508 675.083,652.423C675.563,651.256 675.323,649.283 675.833,647.923C675.946,647.624 676.544,647.944 676.583,647.173C676.641,646.092 678.012,645.552 678.083,644.173C678.1,643.888 678.34,640.828 678.833,640.423C680.249,639.265 679.688,639.998 680.333,637.423C680.325,637.451 681.02,635.226 681.083,635.173C681.706,634.663 681.852,633.253 682.583,631.423C682.71,631.106 683.292,631.46 683.333,630.673C683.376,629.847 684.335,628.166 684.833,626.923C684.938,626.656 684.626,625.592 684.833,625.423C685.325,625.021 686.342,623.43 687.083,621.673C687.196,621.404 686.872,620.345 687.083,620.173C687.169,620.101 687.788,620.267 687.831,620.173C687.962,619.902 687.612,618.853 687.831,618.673C688.706,617.957 688.044,617.56 688.581,616.423C688.725,616.122 689.993,615.908 690.081,615.673C690.473,614.642 689.715,612.765 690.831,611.923C689.776,609.322 687.063,609.595 684.833,608.173C684.534,607.985 684.204,607.487 684.083,607.423C683.292,607.005 682.133,607.195 681.083,606.673C680.749,606.507 680.608,605.297 680.333,605.173C679.934,604.992 679.213,605.39 678.833,605.173C677.967,604.677 677.52,604.124 676.583,603.673C675.54,603.171 674.643,603.465 673.585,602.923C673.161,602.707 672.436,601.569 672.085,601.423C670.919,600.941 669.979,600.978 669.085,600.673C667.958,600.288 666.092,599.777 664.585,599.173C663.885,598.892 662.934,598.133 661.585,597.673C658.559,596.638 656.069,596.447 652.588,595.423C652.499,595.398 652.329,594.796 651.838,594.673C650.678,594.383 649.983,594.381 648.838,593.923C647.969,593.576 647.109,593.557 645.838,593.173C645.352,593.027 645.178,592.445 645.088,592.423C643.254,591.967 641.167,592.161 639.09,591.673C638.934,591.636 638.997,590.958 638.34,590.923C635.385,590.767 631.223,589.298 627.84,588.673C623.835,587.933 619.321,587.746 615.092,587.173C610.79,586.59 606.694,585.738 602.344,585.673C600.987,586.201 601.62,589.937 601.594,592.422C600.815,662.33 602.18,736.452 601.594,807.646C606.749,808.223 612.19,807.609 617.342,807.646C617.17,807.644 617.686,808.375 618.092,808.396C621.495,808.576 626.151,806.228 630.84,807.646C631.977,807.99 632.879,807.842 635.34,807.646C638.754,807.373 642.657,808.25 646.588,808.396C653.109,808.639 659.692,807.851 665.335,809.146C676.217,811.641 685.569,817.793 692.331,826.394C698.698,834.492 703.801,846.088 701.331,859.389C700.532,860.84 697.876,860.434 696.831,861.639L467.359,861.639C467.19,860.557 465.121,861.377 465.109,860.139C462.693,859.475 461.856,856.418 462.109,851.889C462.103,851.99 462.835,851.603 462.859,851.139C462.872,850.894 462.274,846.475 462.859,845.891C462.913,845.836 463.597,845.951 463.609,845.891C463.723,845.334 463.236,843.264 463.609,842.891C464.728,841.773 465.705,836.922 466.609,834.641C466.734,834.328 467.317,834.676 467.359,833.891C467.448,832.203 470.547,828.906 471.859,827.144C473.863,824.451 475.308,822.043 477.859,820.394C478.275,820.123 477.742,819.691 478.609,819.644C479.679,819.586 479.757,818.211 480.859,817.394C483.125,815.713 486.099,814.494 489.108,812.896C489.495,812.689 489.015,812.189 489.858,812.146C490.057,812.133 490.424,812.217 490.608,812.146C491.146,811.93 491.12,811.5 491.358,811.396C492.515,810.891 495.337,810.404 496.608,809.896C499.575,808.708 508.119,807.865 513.106,807.646C526.547,807.053 540.908,807.326 555.101,807.646C557.249,807.695 559.668,808.459 561.85,807.646C563.206,807.119 562.572,803.381 562.6,800.896C563.38,730.988 562.015,656.868 562.6,585.673C527.456,588.526 498.348,597.412 474.111,611.17C475.274,616.124 477.441,620.661 479.36,625.418C482.044,632.069 484.847,638.802 487.609,645.666C488.081,646.84 488.557,647.896 489.109,649.416C489.798,651.312 489.707,652.562 490.609,653.916C490.79,654.187 491.096,655.95 491.359,656.166C491.909,656.616 492.131,658.155 492.859,659.916C492.994,660.243 493.567,659.873 493.609,660.666C493.7,662.408 494.436,662.732 495.109,664.416C495.216,664.683 494.902,665.747 495.109,665.916C495.79,666.473 496.271,667.27 496.609,668.166C496.71,668.431 496.406,669.5 496.609,669.666C496.683,669.728 497.331,669.588 497.359,669.666C497.766,670.785 497.674,672.323 498.109,673.416C498.26,673.795 499.525,674.638 499.609,674.916C499.81,675.58 499.345,676.527 499.609,677.166C499.744,677.493 500.317,677.122 500.359,677.916C500.415,678.986 501.521,679.565 501.859,680.916C502.342,682.849 503.279,684.762 504.109,686.915C504.991,689.204 505.478,691.463 506.359,693.664C506.45,693.893 506.958,693.81 507.109,694.414C507.718,696.849 509.032,699.222 510.109,701.914C510.216,702.18 509.902,703.244 510.109,703.414C510.185,703.476 510.829,703.334 510.859,703.414C511.272,704.504 511.201,706.144 511.609,707.162C511.761,707.541 513.025,708.385 513.109,708.662C513.31,709.326 512.845,710.273 513.109,710.912C513.244,711.24 513.817,710.869 513.859,711.662C513.872,711.908 514.386,713.387 514.609,713.912C515.482,715.971 516.301,718.029 517.609,719.912C519.316,721.824 525.715,719.471 527.358,722.16C528.343,722.426 528.538,723.48 529.608,723.66C530.203,731.289 529.087,737.359 527.358,743.908C526.797,746.035 526.18,748.721 525.108,750.658C524.624,751.533 524.067,751.973 523.608,752.906C523.473,753.178 523.83,754.225 523.608,754.406C523.52,754.478 522.902,754.314 522.858,754.406C522.729,754.678 523.077,755.728 522.858,755.906C522.76,755.986 522.166,755.802 522.108,755.906C521.956,756.18 522.338,757.219 522.108,757.406C520.358,758.838 518.716,761.836 516.859,764.156C515.443,765.924 513.913,767.078 512.359,768.654C512.126,768.891 512.612,769.947 512.359,770.154C511.729,770.67 510.679,770.365 510.109,770.904C509.378,771.596 508.097,774.562 506.359,774.654C505.698,774.689 504.506,776.158 503.359,776.904C502.439,777.502 501.309,777.85 500.359,778.404C499.956,778.637 500.464,779.109 499.609,779.154C498.528,779.211 497.988,780.582 496.609,780.654C495.528,780.711 494.988,782.08 493.609,782.154C493.33,782.168 491.928,782.678 491.359,782.904C489.44,783.654 487.351,784.65 485.36,785.152C480.13,786.471 473.131,786.311 468.112,787.402C465.968,787.869 464.966,786.762 462.113,786.652C455.171,786.383 450.146,786.268 444.115,784.402C442.231,783.82 438.651,782.701 436.616,781.404C436.243,781.166 433.319,779.216 432.116,779.154C431.12,779.1 430.943,777.711 429.866,777.654C428.899,777.602 428.921,776.545 428.366,776.154C428.096,775.965 427.068,776.4 426.866,776.154C426.634,775.869 426.398,774.863 426.116,774.654C424.697,773.598 422.953,772.863 421.616,771.654C419.942,770.139 418.344,767.631 416.366,765.656C415.788,765.078 414.616,764.781 414.116,764.156C413.657,763.58 413.698,762.502 413.366,761.906C413.146,761.51 412.661,762.006 412.616,761.156C412.583,760.514 411.479,759.496 411.116,758.906C410.803,758.396 410.698,757.965 410.366,757.406C410.083,756.93 409.102,756.332 408.866,755.906C408.715,755.633 409.096,754.594 408.866,754.406C408.773,754.33 408.167,754.506 408.116,754.406C407.975,754.133 408.343,753.092 408.116,752.906C408.029,752.836 407.41,753 407.366,752.906C407.237,752.635 407.585,751.586 407.366,751.408C406.754,750.906 406.848,750.836 406.616,749.908C406.623,749.934 405.93,747.711 405.866,747.658C404.492,746.533 404.419,742.502 403.616,739.408C403.568,739.221 402.902,739.342 402.866,738.658C402.81,737.6 403.083,736.531 402.116,736.41L402.116,724.41C403.693,722.963 403.579,721.531 405.866,721.41C406.591,721.373 406.378,720.734 406.616,720.662C409.113,719.891 412.734,721.715 414.865,719.912C418.178,710.189 422.304,700.766 426.114,691.415C426.338,690.868 426.85,689.427 426.864,689.165C426.906,688.371 427.479,688.742 427.614,688.415C427.879,687.777 427.413,686.829 427.614,686.165C427.698,685.889 428.962,685.042 429.114,684.665C429.188,684.484 429.104,684.113 429.114,683.915C429.153,683.172 429.776,683.428 429.864,683.165C430.578,681.024 430.074,680.452 430.614,678.665C430.698,678.388 431.965,677.544 432.114,677.165C433.186,674.459 433.812,670.731 435.114,669.666C435.316,669.5 435.014,668.431 435.114,668.166C435.451,667.27 435.933,666.473 436.614,665.916C436.878,665.701 437.183,663.938 437.364,663.666C438.15,662.488 438.331,660.781 438.864,659.166C440.156,655.252 441.983,651.976 443.363,648.667C443.587,648.133 444.1,646.669 444.113,646.417C444.155,645.623 444.728,645.994 444.863,645.667C445.128,645.029 444.662,644.081 444.863,643.417C444.946,643.141 446.21,642.294 446.363,641.917C446.437,641.735 446.352,641.365 446.363,641.167C446.402,640.424 447.025,640.68 447.113,640.417C447.827,638.276 447.323,637.704 447.863,635.917C447.947,635.639 449.217,634.799 449.363,634.417C450.812,630.673 451.805,624.853 453.863,623.168C454.065,623.002 453.763,621.933 453.863,621.668C454.2,620.772 454.682,619.975 455.363,619.418C455.582,619.239 455.234,618.19 455.363,617.918C455.407,617.824 456.025,617.99 456.113,617.918C456.317,617.751 456.011,616.684 456.113,616.418C457.714,612.268 459.316,609.161 460.613,605.169C462.292,604.278 463.532,603.185 464.363,602.169C464.558,601.931 465.59,602.339 465.863,602.169C466.092,602.027 466.425,600.9 466.613,600.669C466.804,600.437 467.839,600.828 468.113,600.669C468.219,600.607 468.03,600.021 468.113,599.919C468.292,599.7 469.342,600.048 469.613,599.919C469.706,599.875 469.542,599.257 469.613,599.169C469.801,598.94 470.839,599.321 471.113,599.169C471.305,599.064 471.699,597.869 471.863,597.669C472.051,597.44 473.089,597.82 473.363,597.669C474.257,597.178 474.262,596.904 474.863,596.169C475.135,595.836 477.371,595.445 477.863,595.419C479.241,595.346 479.781,593.976 480.863,593.919C481.679,593.876 481.259,593.332 481.613,593.169C483.439,592.33 485.694,591.716 487.612,590.919C490.1,589.885 493.102,588.423 494.361,587.919C496.04,587.247 498.033,586.968 499.611,586.419C500.51,586.106 500.698,585.73 501.861,585.669C502.635,585.628 502.309,585.034 502.611,584.919C503.678,584.515 505.208,584.528 506.361,584.169C523.373,578.876 541.903,574.927 562.604,573.67C563.45,566.753 561.502,552.93 562.604,545.923C563.255,541.782 563.229,541.142 566.354,539.924C566.759,539.771 567.271,539.908 567.098,539.18ZM575.347,553.428C574.753,555.409 575.312,557.528 575.347,559.428C576.846,642.208 574.221,725.834 575.347,807.648C577.628,809.211 579.831,806.502 582.096,808.398C584.883,806.889 586.809,809.156 589.596,807.648L589.596,551.929C586.44,550.336 580.46,551.566 576.096,551.179C575.223,551.305 575.281,552.364 575.347,553.428ZM464.36,629.169C463.614,631.033 462.463,633.54 462.11,634.419C461.491,635.966 461.222,638.105 460.61,639.668C460.539,639.851 460.057,639.925 459.86,640.418C459.637,640.976 459.125,642.398 459.11,642.668C459.043,643.948 457.69,645.017 457.61,646.418C457.552,647.442 456.893,648.048 456.86,648.668C456.817,649.49 456.282,649.055 456.11,649.418C455.451,650.81 454.974,652.853 454.61,653.918C454.081,655.468 453.464,657.114 453.11,657.668C452.478,658.66 451.644,660.782 451.61,661.418C451.568,662.21 450.993,661.843 450.86,662.168C450.385,663.324 450.547,664.037 450.11,665.168C449.744,666.117 448.952,667.274 448.61,668.168C448.158,669.349 448.299,670.027 447.86,671.168C447.034,673.312 444.941,677.146 444.86,678.667C444.818,679.47 444.256,679.079 444.11,679.417C443.308,681.278 442.623,683.601 441.86,685.417C440.059,689.705 437.84,695.09 436.61,698.165C435.936,699.85 435.668,701.263 435.11,702.665C434.888,703.222 434.513,703.134 434.36,703.415C433.596,704.811 433.47,707.167 432.86,708.663C431.252,712.608 428.773,716.253 428.36,720.663C451.557,720.333 477.703,721.101 499.601,720.663C501.055,720.634 502.924,721.392 504.101,719.913C502.425,718.298 502.595,715.895 501.851,713.913C501.789,713.751 501.292,713.64 501.101,713.163C501.027,712.979 501.111,712.612 501.101,712.413C501.06,711.634 500.471,711.972 500.351,711.663C499.516,709.509 499.359,707.96 498.851,707.163C498.219,706.171 497.385,704.05 497.351,703.415C497.309,702.606 496.753,703.009 496.601,702.665C495.719,700.666 495.145,698.604 494.351,696.665C492.712,692.66 491.44,688.737 489.852,684.666C489.665,684.191 489.123,683.566 489.102,683.166C489.06,682.37 488.491,682.747 488.352,682.416C487.914,681.373 488.098,679.872 487.602,678.666C487.199,677.687 486.528,677.336 486.102,676.416C485.817,675.8 486.393,674.78 486.102,674.166C485.964,673.874 484.755,673.78 484.602,673.416C484.169,672.384 484.11,671.128 483.852,670.416C483.529,669.527 483.163,669.321 483.102,668.166C483.061,667.38 482.479,667.734 482.352,667.416C481.886,666.25 482.039,665.55 481.602,664.416C480.372,661.225 479.047,658.294 477.852,655.417C477.007,653.383 476.397,651.37 475.602,649.418C475.379,648.872 475.001,648.941 474.852,648.668C474.089,647.272 473.952,644.918 473.352,643.418C473.274,643.224 472.803,643.17 472.602,642.668C472.529,642.484 472.612,642.117 472.602,641.918C472.561,641.139 471.972,641.477 471.852,641.168C471.108,639.247 470.773,637.328 470.352,636.668C469.72,635.676 468.885,633.554 468.852,632.918C468.81,632.126 468.235,632.493 468.102,632.168C467.261,630.114 467.352,627.79 465.852,626.169C464.945,626.54 464.695,628.331 464.36,629.169ZM693.081,639.667C692.096,642.003 690.56,645.224 690.081,646.417C689.465,647.962 689.237,649.965 688.581,651.666C688.516,651.842 688.026,651.928 687.831,652.416C687.188,654.026 686.827,655.65 686.333,656.916C686.299,657.005 685.657,656.842 685.583,656.916C684.836,657.663 685.698,659.208 684.833,659.916C684.614,660.095 684.963,661.144 684.833,661.416C684.788,661.509 684.172,661.344 684.083,661.416C683.958,661.518 683.366,663.582 683.333,663.666C683.26,663.85 683.344,664.217 683.333,664.416C683.292,665.195 682.702,664.857 682.583,665.166C681.934,666.846 681.35,669 681.083,669.666C681.01,669.849 681.094,670.216 681.083,670.416C681.012,671.795 679.641,672.335 679.583,673.416C679.542,674.207 678.967,673.842 678.833,674.166C677.946,676.34 677.243,679.881 676.583,680.916C676.153,681.59 675.887,682.171 675.833,683.166C675.79,683.988 675.256,683.553 675.083,683.916C674.43,685.299 673.934,687.358 673.586,688.416C673.366,689.072 672.854,690.321 672.836,690.666C672.792,691.457 672.217,691.093 672.086,691.416C671.612,692.575 671.772,693.285 671.336,694.416C670.512,696.551 668.424,700.255 668.336,701.916C668.295,702.707 667.719,702.342 667.586,702.666C664.991,709 663.232,714.732 660.836,720.664L736.575,720.664C736.057,717.133 734.473,714.885 733.577,712.414C733.254,711.525 732.889,711.318 732.827,710.164C732.784,709.379 732.204,709.732 732.077,709.414C731.61,708.25 731.764,707.549 731.327,706.414C730.981,705.52 730.19,704.365 729.827,703.416C729.377,702.234 729.516,701.557 729.077,700.416C728.733,699.523 727.946,698.365 727.577,697.416C725.971,693.285 724.127,687.489 722.327,684.667C721.237,682.958 720.704,679.65 720.077,678.667C719.446,677.675 718.612,675.553 718.579,674.917C718.536,674.137 717.948,674.478 717.829,674.167C717.249,672.679 717.122,671.248 717.079,670.417C717.034,669.595 716.502,670.03 716.329,669.667C715.62,668.17 715.297,666.376 714.829,665.167C714.799,665.086 714.155,665.23 714.079,665.167C713.889,665.01 714.094,663.2 714.079,662.917C714.036,662.117 713.473,662.503 713.329,662.167C712.475,660.164 711.874,658.097 711.079,656.167C710.249,654.148 709.624,652.182 708.829,650.168C708.608,649.605 708.233,649.7 708.079,649.418C707.315,648.021 707.188,645.665 706.579,644.168C706.594,644.198 705.95,643.606 705.829,643.418C704.731,641.696 704.106,638.244 703.579,637.419C702.038,635.001 701.497,632.148 700.581,629.92C700.09,628.725 699.59,628.024 699.081,626.92C699.038,626.462 698.969,626.032 698.331,626.17C696.969,631.146 694.934,635.288 693.081,639.667ZM414.866,732.656C414.983,733.539 414.737,734.785 415.616,734.906C415.794,743.744 421.662,752.881 426.115,758.152C427.198,759.432 428.009,760.846 429.115,761.902C429.374,762.147 430.363,761.65 430.615,761.902C430.848,762.135 430.362,763.197 430.615,763.402C430.908,763.637 431.763,763.244 432.115,763.402C432.329,763.498 432.633,764.715 432.865,764.902C433.511,765.416 434.391,765.145 435.115,765.652C436.235,766.432 436.28,767.842 437.365,767.9C438.171,767.943 437.773,768.502 438.115,768.65C440.624,769.744 443.236,770.578 444.114,771.65C444.28,771.852 445.349,771.549 445.614,771.65C448.052,772.57 450.206,773.406 452.363,773.9C458.538,775.316 474.374,775.078 479.36,773.9C481.833,773.316 483.304,772.943 485.36,772.4C487.56,771.818 488.301,771.137 489.11,770.15C489.3,769.918 490.336,770.307 490.61,770.15C491.984,769.365 493.26,767.959 494.36,767.9C495.437,767.842 495.614,766.453 496.61,766.402C497.484,766.354 496.937,765.959 497.36,765.652C500.417,763.432 503.765,760.945 505.609,758.902C506.145,758.307 506.392,756.848 507.109,755.902C507.369,755.557 508.306,755.494 508.609,755.152C508.85,754.881 508.354,753.908 508.609,753.652C508.819,753.443 509.952,753.893 510.109,753.652C510.316,753.336 510.015,752.529 510.109,752.154C510.35,751.188 511.561,750.82 511.609,749.904C511.652,749.086 512.194,749.508 512.359,749.154C513.08,747.591 513.235,745.512 513.859,743.904C513.982,743.588 514.433,743.859 514.609,743.154C514.871,742.104 515.061,741.65 515.359,740.904C515.432,740.719 515.349,740.352 515.359,740.154C515.396,739.461 516.054,739.604 516.109,739.404C516.681,737.303 516.682,734.875 516.859,732.656L414.866,732.656ZM648.838,732.656C647.965,732.781 648.024,733.842 648.088,734.906C648.266,737.873 649.772,743.014 650.338,743.904C650.981,744.914 651.803,746.246 651.838,746.904C651.911,748.332 653.747,750.375 654.088,750.654C654.307,750.832 653.958,751.881 654.088,752.154C654.131,752.246 654.749,752.082 654.838,752.154C655.077,752.35 654.659,753.381 654.838,753.652C655.092,754.045 655.969,754.701 656.338,755.152C658.247,757.494 659.684,758.494 661.586,760.402C662.795,761.613 663.432,763.182 664.586,764.152C664.866,764.385 665.829,763.895 666.086,764.152C666.307,764.373 665.838,765.475 666.086,765.652C666.952,766.266 668.215,765.818 669.086,766.402C669.536,766.703 670.053,767.502 670.586,767.9C672.35,769.221 673.432,769.356 675.083,770.15C676.012,770.594 676.415,771.289 677.333,771.65C679.022,772.316 680.725,772.629 682.583,773.15C684.467,773.676 686.749,774.447 688.581,774.65C694.977,775.361 706.815,774.462 711.079,773.9C712.551,773.707 713.356,774.033 714.079,773.15C714.247,772.943 715.311,773.256 715.579,773.15C717.547,772.363 720.915,771.322 721.577,770.9C722.085,770.578 722.59,770.406 723.077,770.15C724.768,769.264 725.471,768.643 726.077,767.9C726.258,767.682 727.306,768.031 727.577,767.9C727.672,767.856 727.506,767.24 727.577,767.152C727.77,766.914 728.803,767.318 729.077,767.152C729.852,766.676 730.657,765.41 731.327,764.902C732.788,763.793 734.515,762.418 735.825,761.152C739.126,757.964 741.204,755.006 743.325,751.404C743.723,750.725 744.01,751.166 744.075,749.904C744.12,749.059 744.62,749.541 744.825,749.154C747.387,744.334 749.395,738.602 750.073,732.656L648.838,732.656ZM687.083,842.143C686.2,840.758 685.661,839.912 685.583,838.393C685.526,837.318 684.137,837.139 684.083,836.143C684.012,834.766 682.452,834.4 681.833,833.893C681.581,833.689 682.045,832.656 681.833,832.393C679.911,830.025 676.803,828.32 675.083,827.146C674.827,826.969 674.547,825.904 674.333,825.646C674.139,825.404 673.106,825.822 672.836,825.646C672.379,825.348 671.831,824.475 671.336,824.146C670.042,823.285 667.398,822.301 666.086,821.896C662.961,820.928 660.192,820.559 657.088,820.396C656.567,820.369 656.311,819.643 656.338,819.646C645.62,818.535 632.629,819.646 619.592,819.646L546.1,819.646C531.535,819.646 515.562,819.035 506.355,820.396C503.838,820.768 502.855,820.746 501.855,821.146C500.349,821.75 498.482,822.26 497.356,822.646C495.102,823.416 494.129,824.16 492.856,824.896C491.188,825.861 490.685,826.131 489.856,827.146C489.652,827.393 488.623,826.945 488.356,827.146C487.041,828.137 486.074,830.037 484.606,831.643C483.07,833.33 479.457,836.506 479.356,838.393C479.284,839.773 477.914,840.312 477.856,841.393C477.814,842.172 477.227,841.832 477.106,842.143C476.151,844.586 475.806,847.213 475.606,849.641L689.329,849.641C689.297,847.09 687.813,843.285 687.083,842.143Z" style="fill-rule:nonzero;"/>
    </g>
</svg>
