<?xml version="1.0" encoding="UTF-8" standalone="no"?>
<!DOCTYPE svg PUBLIC "-//W3C//DTD SVG 1.1//EN" "http://www.w3.org/Graphics/SVG/1.1/DTD/svg11.dtd">
<svg width="100%" height="100%" viewBox="0 0 1163 1409" version="1.1" xmlns="http://www.w3.org/2000/svg" xmlns:xlink="http://www.w3.org/1999/xlink" xml:space="preserve" xmlns:serif="http://www.serif.com/" style="fill-rule:evenodd;clip-rule:evenodd;stroke-linejoin:round;stroke-miterlimit:2;">
    <g id="市场2_1_">
        <path d="M559.605,551.754C559.086,555.655 561.541,556.903 562.495,559.491C565.223,560.064 562.408,556.115 562.495,556.053C563.413,555.397 563.173,554.279 564.422,551.755C571.286,547.276 583.057,547.176 584.656,538C587.1,539.633 586.788,542.962 587.548,545.737C588.21,548.16 589.349,550.952 589.476,553.475C589.749,555.238 592.808,551.866 594.292,550.895C596.105,549.712 598.147,548.777 600.073,547.457C600.386,547.243 600.755,545.852 601.038,545.737C601.491,545.555 602.585,546.009 602.964,545.737C603.773,545.159 604.081,543.7 604.892,543.158C605.234,542.929 606.558,543.444 606.818,543.158C607.744,542.151 607.918,541.598 609.711,540.579C610.459,540.152 611.984,538.87 613.563,537.999C614.202,537.647 614.809,537.527 615.491,537.14C616.546,536.54 617.3,536.036 618.382,535.421C619.476,534.799 620.39,534.456 621.275,533.702C622.257,532.861 625.97,532.288 628.019,531.123C633.392,528.067 647.976,527.742 655.96,530.263C656.831,530.538 658.548,530.628 659.815,531.123C660.469,531.379 661.194,532.572 661.741,532.842C662.854,533.392 663.745,533.915 664.632,534.561C666.245,535.735 669.636,536.824 671.378,538.859C671.638,539.163 671.056,540.344 671.378,540.579C672.687,541.535 672.796,541.344 673.304,543.158C673.294,543.126 674.185,545.677 674.267,545.737C675.617,546.722 675.246,551.964 675.232,556.053C673.152,557.439 672.523,559.911 670.414,561.211C669.275,561.914 667.904,561.579 666.56,562.071C666.142,562.224 666.613,562.883 665.595,562.931C665.339,562.943 664.868,562.847 664.632,562.931C663.614,563.294 662.542,563.218 659.816,563.79C659.007,563.959 658.861,564.541 657.888,564.649C640.109,566.627 615.361,556.245 597.185,560.351C596.328,560.544 594.697,560.803 593.331,561.21C588.811,562.561 584.931,565.181 580.805,566.368C579.959,566.611 578.727,566.057 577.914,566.368C577.506,566.524 577.906,567.11 576.95,567.228C565.59,568.632 560.062,566.105 552.861,562.07C552.117,563.562 553.568,564.149 553.825,564.649C553.987,564.961 553.547,566.166 553.825,566.369C554.619,566.949 556.623,567.368 556.716,568.948C556.729,569.168 556.618,569.609 556.716,569.808C558.143,572.73 559.75,576.336 560.57,579.265C561.865,583.889 563.704,590.222 564.424,596.458C561.539,596.593 558.384,596.773 555.753,597.318C555.556,597.359 555.634,598.138 554.789,598.178C552.204,598.3 551.717,598.246 549.008,599.038C548.676,599.134 548.993,599.853 548.044,599.897C547.788,599.91 547.316,599.813 547.081,599.897C546.186,600.217 544.251,600.793 542.263,601.617C540.147,602.495 538.74,603.934 536.482,604.196C535.66,603.644 533.253,604.018 532.628,603.337C531.978,602.628 531.509,600.841 529.738,600.757C528.502,600.699 528.512,599.507 527.811,599.038C527.468,598.809 526.146,599.323 525.884,599.038C525.779,598.923 526.019,598.246 525.884,598.178C525.531,597.999 524.201,598.444 523.957,598.178C523.865,598.077 524.077,597.369 523.957,597.318C523.608,597.17 522.26,597.569 522.029,597.318C521.007,596.202 516.461,594.911 513.358,593.88C510.658,592.982 507.892,591.442 504.687,591.301C504.542,589.338 507.267,588.708 508.541,587.863C509.738,587.068 511.449,585.183 513.358,585.284C513.713,581.57 517.796,581.253 520.104,578.407C520.353,578.099 519.787,576.92 520.104,576.688C520.217,576.605 521.01,576.794 521.067,576.688C521.233,576.375 520.786,575.173 521.067,574.968C522.012,574.278 522.306,574.212 522.993,573.248C523.201,572.957 523.639,570.902 523.957,570.669C524.07,570.586 524.864,570.776 524.92,570.669C525.086,570.356 524.639,569.155 524.92,568.949C525.551,568.489 528.668,564.729 528.774,562.932C528.832,561.958 530.661,559.177 531.665,557.774C531.878,557.475 532.583,556.997 532.627,556.915C533.268,555.739 532.87,554.648 533.59,553.477C533.893,552.985 535.168,553.033 535.518,552.617C535.775,552.312 535.198,551.131 535.518,550.897C535.637,550.81 536.416,551.01 536.481,550.897C537.133,549.764 536.694,548.57 537.445,547.459C537.677,547.115 539.223,546.894 539.372,546.599C539.594,546.16 539.076,545.275 539.372,544.88C539.609,544.561 541.157,544.299 541.299,544.02C541.513,543.595 540.997,542.671 541.299,542.3C541.914,541.542 543.213,540.875 544.189,539.721C545.51,538.161 547.068,537.152 549.007,535.423C551.212,533.456 550.942,533 555.752,531.125C555.836,531.093 559.467,530.417 559.606,530.265C560.928,528.823 564.114,530.793 565.386,529.405C566.193,528.526 568.156,528.657 571.168,529.405C572.98,529.856 574.155,530.971 575.984,531.125C574.954,528.854 574.717,526.176 573.093,525.107C572.494,524.712 570.899,525.373 570.203,525.107C569.882,524.984 570.03,524.434 569.239,524.247C567.342,523.8 567.418,524.342 566.348,523.387C566.165,523.225 563.742,523.324 563.456,523.387C562.8,523.533 562.59,524.23 562.493,524.247C561.272,524.465 559.843,523.966 558.639,524.247C551.768,525.849 547.392,529.267 543.222,533.704C542.447,534.53 541.111,535.315 540.332,536.283C539.561,537.242 539.258,538.576 538.405,539.721C537.714,540.648 536.056,541.508 535.514,542.3C535.299,542.615 535.819,543.798 535.514,544.02C535.401,544.102 534.608,543.913 534.55,544.02C534.384,544.332 534.831,545.534 534.55,545.739C534.429,545.827 533.654,545.625 533.586,545.739C533.402,546.054 533.878,547.246 533.586,547.459C533.473,547.542 532.68,547.352 532.623,547.459C532.457,547.772 532.904,548.973 532.623,549.178C531.993,549.638 528.875,553.398 528.769,555.196C528.696,556.435 526.935,557.055 526.842,558.635C526.769,559.874 525.008,560.493 524.915,562.073C524.847,563.217 521.374,568.909 520.098,570.67C519.751,571.147 519.193,570.536 519.134,571.53C519.099,572.115 517.379,573.628 516.243,574.968C514.49,577.038 512.764,578.107 509.498,580.126C508.886,580.503 508.142,581.528 507.571,581.845C503.206,584.266 493.877,586.806 487.337,583.565C486.829,583.313 487.464,582.756 486.373,582.705C485.391,582.659 483.966,581.039 482.519,579.267C481.983,578.61 481.024,578.101 480.592,577.547C480.35,577.237 480.907,576.058 480.592,575.828C477.185,573.34 479.416,566.225 481.556,562.073C482.054,561.107 482.935,561.055 483.483,560.354C483.724,560.044 483.167,558.865 483.483,558.635C483.622,558.533 484.354,558.764 484.446,558.635C484.67,558.322 484.138,557.14 484.446,556.916C485.285,556.303 485.64,555.858 486.373,555.196C486.783,554.826 487.891,553.731 488.3,553.477C488.647,553.261 489.969,553.758 490.227,553.477C490.34,553.353 490.084,552.697 490.227,552.617C491.784,551.745 493.442,551.574 495.044,550.897C495.505,550.703 496.628,549.271 496.972,549.178C497.852,548.94 498.987,549.428 499.862,549.178C500.184,549.086 499.884,548.363 500.826,548.319C501.188,548.301 503.515,548.538 503.716,548.319C503.781,548.247 503.636,547.478 503.716,547.459C506.12,546.901 508.978,547.261 512.387,546.599C514.52,546.185 521.719,544.595 525.877,544.88C526.537,543.944 527.86,543.433 528.768,542.3C529.016,541.992 528.451,540.812 528.768,540.581C529.112,540.329 530.455,540.026 530.695,539.721C530.939,539.411 530.379,538.232 530.695,538.001C532.443,536.725 534.302,534.31 536.476,531.984C536.713,531.73 538.284,531.36 538.403,531.124C538.6,530.733 538.098,529.722 538.403,529.404C539.129,528.648 540.504,528.39 541.294,527.685C542.065,526.996 542.409,525.742 543.22,525.106C543.99,524.504 545.225,524.839 546.111,524.246C546.58,523.933 546.631,522.803 547.075,522.527C548.155,521.854 549.619,521.455 550.929,520.808C555.247,518.672 558.903,516.264 566.345,517.37C566.199,517.348 566.871,518.132 567.309,518.23C569.209,518.653 570.293,519.862 572.127,519.949C573.991,520.037 581.246,527.727 581.762,530.265C582.809,535.428 580.842,539.367 578.871,541.44C574.649,545.884 562.668,544.875 559.605,551.754ZM637.651,556.912C643.235,557.803 648.788,559.537 654.03,558.631C654.114,558.616 654.346,557.916 654.995,557.771C656.37,557.464 656.942,557.448 657.886,556.912C658.574,556.52 659.175,556.42 659.814,556.052C663.443,553.959 666.593,550.96 666.558,547.455C666.531,544.735 664.667,543.887 663.667,543.157C663.347,542.924 663.923,541.743 663.667,541.437C663.073,540.729 661.495,540.36 660.776,539.718C658.862,538.011 657.993,537.117 655.958,536.28C653.812,535.396 652.802,534.683 650.177,534.56C649.439,534.525 649.275,533.709 649.214,533.701C643.866,532.968 638.937,534.409 635.724,534.56C634.865,534.601 634.98,535.372 634.761,535.42C632.081,536.007 630.406,536.343 628.017,537.139C625.964,537.823 624.195,538.811 623.199,538.858C622.115,538.909 622.734,539.48 622.234,539.718C618.269,541.609 614.978,543.448 611.636,545.735C608.093,548.16 605.394,551.18 602.001,552.613C601.79,553.693 600.501,554.37 602.964,554.332C616.973,553.433 627.666,555.318 637.651,556.912ZM520.1,549.175C515.43,549.966 501.369,551.643 498.902,554.333C498.672,554.584 497.324,554.185 496.975,554.333C496.855,554.383 497.067,555.092 496.975,555.192C496.728,555.461 495.401,555.008 495.047,555.192C494.779,555.333 494.31,556.665 494.084,556.912C493.821,557.199 492.495,556.676 492.157,556.912C490.606,557.993 489.262,560.426 489.267,560.35C489.209,561.323 488.585,560.756 488.303,561.209C486.602,563.941 485.465,568.437 487.34,569.806C487.66,570.039 487.083,571.221 487.34,571.526C488.684,573.126 490.161,573.66 492.157,574.105C495.712,574.898 501.09,574.74 503.719,573.245C505.801,572.061 506.379,571.968 507.573,570.666C507.835,570.379 509.16,570.899 509.5,570.666C510.83,569.752 512.25,567.609 513.354,566.368C515.32,564.16 517.23,561.67 518.172,560.35C518.998,559.193 520.054,557.665 520.099,556.912C520.154,555.974 520.849,556.462 521.062,556.052C522.226,553.813 521.771,550.987 523.952,550.034C523.843,548.985 523.664,547.998 522.024,548.315C521.867,549.239 521.153,548.997 520.1,549.175Z"/>
        <path d="M674.264,567.228C672.463,570.042 670.258,572.926 667.52,574.965C666.75,575.539 665.391,575.305 664.629,575.825C663.871,576.342 663.625,576.999 662.701,577.544C662.004,577.957 660.586,577.886 659.812,578.404C659.38,578.692 659.257,579.896 658.847,580.124C657.861,580.672 656.87,580.512 655.956,580.983C654.249,581.864 651.95,582.858 649.212,584.421C648.579,584.783 647.862,585.82 647.284,586.14C645.817,586.954 644.37,587.593 642.466,588.719C641.929,589.037 642.62,589.526 641.503,589.579C639.706,589.663 636.556,593.868 634.759,595.597C632.409,596.94 632.241,600.228 628.978,600.755C627.79,599.523 625.664,599.127 623.197,599.036C622.449,591.779 624.492,587.01 624.16,580.123C622.369,579.86 624.002,582.974 623.197,583.561C623.117,583.62 622.256,583.489 622.232,583.561C621.902,584.684 621.535,586.686 621.271,587.859C620.716,590.319 620.298,593.404 620.306,596.455C609.245,595.52 595.699,593.175 583.691,593.876C581.529,594.002 579.85,594.518 577.911,594.736C576.142,594.934 574.171,593.862 573.093,595.595C570.724,595.018 570.837,592.278 570.203,590.437C568.453,585.356 566.486,578.291 564.421,572.384C572.163,573.578 578.369,573.672 585.619,571.524C586.16,571.364 586.998,570.976 587.547,570.664C588.475,570.136 592.391,568.764 594.291,568.085C595.25,567.743 595.834,567.526 597.182,567.226C598.342,566.967 603.041,565.709 606.817,565.506C615.973,565.015 624.149,566.749 632.833,568.085C635.224,568.453 638.101,569.449 640.542,569.804C642.106,570.032 643.786,569.632 645.358,569.804C648.315,570.127 654.294,571.076 659.813,570.664C664.574,570.311 669.266,568.838 674.264,567.228Z"/>
        <path d="M602,697.896L610.672,697.896C610.231,707.171 612.383,714.134 611.635,723.686C610.235,722.357 606.701,722.928 603.926,722.826C602.641,715.091 602.049,706.736 602,697.896Z"/>
        <path d="M588.51,699.616C589.33,699.457 589.418,699.951 589.475,700.476C590.448,707.058 591.418,713.641 591.401,721.107C588.991,721.288 586.172,719.96 584.656,718.529C583.522,717.456 582,714.579 581.766,713.37C580.844,708.614 583.648,704.634 585.62,701.336C586.397,700.596 588.26,700.824 588.51,699.616Z"/>
        <path d="M611.635,736.582C614.338,740.012 613.18,744.714 613.561,749.477C613.7,751.187 614.44,752.92 614.526,754.635C614.987,763.678 614.208,772.887 615.489,781.283C611.419,781.262 609.266,782.946 605.854,781.283C606.594,765.435 604.6,752.028 604.891,736.582L611.635,736.582Z"/>
        <path d="M625.125,739.16L628.016,739.16C627.743,740.941 630.862,739.781 631.87,740.88C633.141,742.267 635.63,744.884 637.651,746.897C638.038,747.283 639.249,747.368 639.579,747.757C639.835,748.063 639.259,749.243 639.579,749.477C640.452,750.115 641.071,751.028 641.505,752.056C641.634,752.358 641.245,753.585 641.505,753.776C642.73,754.669 642.025,755.524 642.468,757.214C642.654,757.913 643.425,758.068 643.433,758.934C643.451,760.918 642.331,763.789 641.505,765.811C640.095,769.261 637.685,771.164 634.761,773.549C632.372,775.496 630.167,779.364 626.089,777.846C626.813,764.019 624.559,752.848 625.125,739.16Z"/>
        <path d="M726.295,764.09C736.08,771.585 749.182,789.229 746.529,803.635C746.515,803.707 745.605,803.823 745.564,804.494C745.455,806.377 745.453,807.191 744.601,808.794C744.38,809.208 743.695,808.711 743.638,809.653C743.624,809.892 739.618,814.727 737.857,814.809C736.621,814.868 736.63,816.06 735.929,816.529C735.587,816.758 734.265,816.245 734.001,816.529C732.956,817.671 728.966,819.179 726.294,819.968C723.106,820.907 719.024,822.563 714.731,823.406C713.987,821.913 715.436,821.326 715.694,820.827C715.856,820.515 715.417,819.311 715.694,819.107C715.807,819.025 716.602,819.214 716.659,819.107C716.823,818.795 716.378,817.593 716.659,817.387C716.772,817.306 717.565,817.494 717.622,817.387C717.788,817.076 717.341,815.873 717.622,815.668C718.827,814.787 720.395,810.87 721.477,807.932C722.907,804.038 724.286,799.953 725.331,795.036C725.505,794.209 725.13,793.278 725.331,792.457C725.505,791.736 726.165,791.603 726.294,790.738C726.599,788.683 726.067,785.277 726.294,783.001C726.513,780.789 727.247,778.914 727.257,776.983C727.281,772.699 726.012,768.588 726.295,764.09Z"/>
        <path d="M426.637,825.127C426.71,825.084 427.589,825.179 427.601,825.127C428.292,821.84 428.382,818.605 429.527,815.67C429.561,815.583 430.398,815.737 430.491,815.67C430.772,815.466 430.325,814.264 430.491,813.951C430.548,813.844 431.342,814.033 431.454,813.951C431.725,813.753 431.308,812.539 431.454,812.231C432.298,810.446 433.82,808.316 434.345,807.933C434.626,807.727 434.179,806.525 434.345,806.213C434.402,806.106 435.196,806.295 435.308,806.213C435.611,805.991 435.098,804.809 435.308,804.493C435.545,804.14 436.924,804.005 437.236,803.634C437.792,802.973 437.786,801.653 438.199,801.055C438.63,800.433 438.764,799.913 439.163,799.335C440.291,797.698 441.288,797.005 442.053,795.897C442.519,795.221 443.937,794.051 443.98,793.317C444.034,792.413 445.375,791.422 445.907,790.739C448.838,786.975 451.68,784.262 454.578,781.282C456.482,779.325 458.358,777.158 460.36,775.264C460.925,774.73 463.34,773.656 464.214,772.686C463.628,773.335 468.001,769.697 464.214,770.107C463.409,771.78 461.883,771.213 460.36,771.827C460.041,771.954 459.764,773.335 459.397,773.547C458.941,773.806 457.969,773.345 457.47,773.547C457.157,773.672 456.864,775.054 456.507,775.265C456.063,775.529 455.072,775.067 454.579,775.265C454.318,775.37 453.897,776.773 453.616,776.985C450.12,779.617 446.7,782.261 443.98,785.582C444.275,786.624 441.197,788.547 441.09,786.441C441.853,767.598 443.623,750.529 449.761,734.862C451.073,731.514 452.838,728.01 454.578,724.546C455.775,722.163 456.996,720.217 457.469,718.529C457.667,717.822 458.306,717.943 458.433,717.669C459.594,715.144 460.365,713.988 461.323,712.511C462.546,710.626 463.195,709.427 464.213,708.212C466.192,705.853 467.298,703.46 469.031,702.195C469.345,701.965 468.79,700.785 469.031,700.476C469.826,699.449 471.55,698.416 471.922,697.896C472.367,697.273 472.425,696.736 472.885,696.177C473.856,694.995 475.708,693.886 476.739,692.738C477.403,691.999 477.052,690.989 477.703,690.158C478.265,689.442 479.971,689.149 480.593,688.44C481.214,687.733 481.005,686.504 481.557,685.86C482.042,685.294 482.918,684.782 483.484,684.141C489.885,676.887 496.385,670.6 502.754,663.509C507.436,658.297 512.455,652.357 517.208,646.316C517.817,645.542 518.577,645.248 519.135,644.596C519.78,643.844 519.451,642.854 520.099,642.017C521.156,640.651 522.901,640.082 522.989,638.579C523.048,637.586 523.611,638.195 523.953,637.719C526.406,634.302 528.022,630.446 530.698,628.262C531.768,627.388 533.895,627.397 535.515,626.543C535.905,626.337 536.068,625.099 536.478,624.824C537.132,624.387 538.792,624.228 539.369,623.964C542.047,622.741 545.227,620.375 548.04,621.385C545.628,625.913 543.701,631.43 542.258,635.14C541.853,636.184 541.914,637.212 541.296,638.578C541.118,638.971 539.641,639.821 539.369,640.297C538.673,641.51 539.04,642.534 538.405,643.736C538.171,644.179 536.778,644.933 536.478,645.455C535.783,646.667 536.174,647.706 535.515,648.893C535.26,649.352 533.896,650.075 533.587,650.613C532.893,651.823 533.291,652.868 532.624,654.051C532.363,654.514 531.008,655.229 530.698,655.77C530.006,656.977 530.428,658.045 529.735,659.208C529.647,659.354 529.019,659.722 528.771,660.068C525.297,664.93 522.859,669.732 520.1,674.682C519.602,675.575 518.578,675.744 518.173,676.401C517.526,677.452 517.639,679.042 517.209,679.84C516.966,680.292 516.268,681.174 516.246,681.559C516.189,682.507 515.513,681.997 515.282,682.419C514.606,683.66 514.951,684.64 514.318,685.857C514.091,686.295 512.688,687.06 512.391,687.577C511.696,688.79 512.04,689.804 511.429,691.015C508.641,696.538 505.43,702.416 504.684,709.068C503.421,709.082 503.456,711.453 504.684,711.647C506.229,705.029 509.728,698.719 512.392,693.594C512.637,693.126 513.333,692.273 513.356,691.875C513.438,690.498 515.942,687.145 516.247,686.717C517.074,685.561 518.129,684.032 518.174,683.279C518.247,682.045 520.033,681.841 520.101,680.7C520.17,679.523 522.824,675.698 522.991,675.542C523.837,674.755 524.222,673.939 524.918,672.963C525.347,672.363 525.511,671.812 525.882,671.243C526.9,669.681 528.699,668.195 528.773,666.945C528.831,665.964 529.432,666.549 529.737,666.086C531.574,663.291 533.2,660.305 534.554,658.348C535.687,656.712 535.627,655.741 536.481,654.05C536.635,653.744 538.184,653.554 538.408,653.191C539.127,652.024 538.67,650.89 539.372,649.752C539.475,649.584 540.076,649.256 540.335,648.892C540.982,647.986 541.828,647.279 542.261,646.313C543.021,644.617 544.561,641.124 545.152,640.295C545.551,639.737 545.834,639.12 546.116,638.576C549.313,632.426 552.472,626.343 553.824,619.663C556.03,616.76 560.882,616.218 565.387,615.365C566.008,625.119 563.307,636.545 561.533,642.874C559.877,648.785 558.361,653.823 556.715,658.348C555.978,660.376 554.466,663.366 555.752,663.506C559.413,657.156 563.739,648.7 566.351,642.874C566.939,641.563 566.942,640.765 567.315,639.436C567.722,637.982 568.877,636.221 569.242,635.138C571.619,628.091 572.294,620.997 574.059,613.646C589.623,611.726 606.616,613.073 619.346,616.225C619.41,626.746 623.758,634.997 628.018,642.015C628.78,643.27 629.495,645.035 629.944,645.453C630.79,646.241 631.174,647.057 631.872,648.032C632.561,648.998 633.128,649.671 633.798,650.611C634.489,651.576 635.054,652.249 635.726,653.19C636.869,654.788 637.488,654.944 638.617,655.769C638.937,656.002 638.361,657.183 638.617,657.489C639.224,658.212 640.859,658.488 641.508,659.208C642.297,660.084 641.613,661.868 643.436,661.788C643.493,660.596 642.961,659.911 642.471,659.208C642.112,658.691 640.899,658.087 640.545,657.489C639.711,656.079 639.484,653.873 638.617,652.331C638.359,651.871 637.012,651.144 636.691,650.612C636.171,649.752 636.097,648.721 635.726,648.033C634.74,646.201 633.904,645.497 633.798,643.735C633.745,642.833 632.999,643.24 632.835,642.875C629.696,635.886 627.829,628.179 626.091,619.664C630.394,620.394 633.042,622.555 635.726,624.822C637.984,626.728 639.193,629.074 640.544,630.84C640.769,631.134 642.138,631.457 642.47,631.699C642.792,631.934 642.21,633.115 642.47,633.419C643.501,634.621 645.183,635.567 646.325,636.857C646.915,637.523 647.743,637.984 648.253,638.577C648.851,639.275 648.567,640.431 649.216,641.156C650.269,642.333 651.905,643.368 653.07,644.594C657.031,648.762 660.185,652.611 663.67,656.63C664.264,657.315 665.08,657.746 665.596,658.349C666.213,659.07 665.909,660.162 666.561,660.929C667.481,662.012 669.024,662.909 669.452,663.508C669.897,664.132 669.946,664.673 670.415,665.228C671.358,666.346 673.315,667.553 674.269,668.666C674.91,669.415 674.585,670.417 675.234,671.245C675.795,671.96 677.543,672.233 678.125,672.965C678.695,673.682 678.648,674.911 679.088,675.544C679.447,676.059 680.608,676.7 681.016,677.264C682.35,679.11 682.588,679.741 683.905,680.702C684.218,680.93 683.673,682.11 683.905,682.421C684.284,682.925 685.327,683.549 685.833,684.141C687.228,685.766 687.812,687.13 688.724,688.439C689.083,688.955 690.247,689.591 690.652,690.157C692.822,693.201 694.427,696.422 696.433,699.615C698.454,702.831 700.384,705.75 702.214,709.07C704.003,712.318 705.318,715.847 707.03,719.387C707.235,719.808 708.708,720.585 708.958,721.106C709.96,723.191 709.466,723.773 709.923,725.404C710.116,726.093 710.773,726.009 710.886,726.263C712.902,730.814 714.177,735.389 715.702,740.018C718.229,747.678 720.819,755.817 721.485,764.088C722.374,775.17 721.163,785.746 719.557,793.317C719.176,795.112 719.03,796.916 718.592,798.475C717.567,802.138 715.012,810.623 712.813,812.23C712.516,812.446 713.008,813.635 712.813,813.95C712.506,814.441 711.206,815.096 710.885,815.669C709.998,817.247 709.746,819.69 708.957,820.827C708.705,821.189 707.352,821.305 707.029,821.686C706.39,822.447 706.666,823.591 706.066,824.266C705.189,825.25 703.228,826.662 702.212,827.704C699.784,830.191 697.161,832.717 694.503,834.58C691.148,836.935 687.591,838.681 683.903,840.599C683.34,840.892 682.633,842.018 681.977,842.319C680.618,842.939 679.454,842.59 678.123,843.178C677.607,843.406 676.799,844.622 676.195,844.898C674.836,845.518 673.689,845.194 672.341,845.756C671.841,845.966 671.019,847.239 670.413,847.476C669.044,848.011 667.542,847.96 666.559,848.335C664.864,848.983 663.618,849.728 662.704,850.055C661.235,850.58 660.341,850.582 658.85,850.913C656.989,851.33 655.795,852.142 654.032,852.633C650.928,853.501 646.805,854.89 645.36,855.213C640.462,856.305 636.674,857.088 632.835,857.792C626.771,858.903 618.761,859.82 614.528,860.371C610.79,860.856 608.852,860.966 606.819,861.23C605.256,861.433 603.581,861.134 602.003,861.23C587.439,862.106 573.83,861.793 560.57,860.371C554.87,859.76 549.186,858.691 545.153,857.792C542.621,857.228 538.453,855.785 537.445,855.213C536.362,854.597 535.608,854.093 534.554,853.493C533.86,853.098 533.262,853.02 532.627,852.633C530.599,851.394 529.795,850.309 528.773,849.195C528.506,848.904 527.167,849.451 526.846,849.195C526.152,848.639 523.978,846.131 523.955,845.756C523.854,844.059 521.724,843.93 521.065,843.178C519.271,841.132 517.788,838.395 516.247,836.3C515.454,835.223 514.001,834.668 513.356,833.721C513.253,833.57 513.367,833.044 513.356,832.861C513.302,831.939 512.584,832.393 512.392,832.003C505.613,818.125 498.798,802.605 497.94,784.722C495.257,785.109 498.695,780.035 496.013,780.423C496.694,790.888 496.748,805.399 498.904,813.09C499.054,813.629 498.8,814.263 498.904,814.809C499.623,818.627 500.651,821.219 500.831,824.267C500.879,825.081 501.71,824.871 501.793,825.126C502.513,827.322 502.864,830.005 503.72,832.003C503.805,832.199 504.435,832.308 504.684,832.861C504.778,833.072 504.671,833.493 504.684,833.721C504.738,834.629 505.477,834.209 505.647,834.58C506.24,835.871 505.909,836.83 506.611,838.019C506.885,838.486 508.177,839.22 508.538,839.738C509.08,840.516 508.874,841.493 509.501,842.318C510.348,843.43 512.427,844.676 513.355,845.756C514.563,847.161 514.985,848.776 516.246,850.055C517.553,851.382 519.546,852.419 521.064,853.493C521.202,854.51 522.779,855.441 521.064,856.072C506.286,857.903 489.346,859.716 473.851,858.651C471.184,858.467 468.823,857.917 466.143,857.792C465.344,857.754 465.319,856.957 465.179,856.932C463.974,856.719 462.555,856.991 461.325,856.932C460.464,856.892 460.581,856.12 460.362,856.073C455.674,855.042 448.733,853.802 446.873,851.774C446.643,851.523 445.295,851.921 444.945,851.774C444.825,851.723 445.038,851.015 444.945,850.914C444.713,850.661 443.369,851.069 443.019,850.914C442.895,850.86 443.114,850.159 443.019,850.056C442.789,849.805 441.441,850.204 441.092,850.056C440.972,850.006 441.184,849.297 441.092,849.197C440.833,848.916 439.511,849.414 439.165,849.197C438.238,848.616 437.408,846.769 436.274,845.758C434.069,843.791 432.528,843.014 431.456,841.46C430.942,840.715 429.905,840.323 429.529,839.74C428.249,837.754 428.133,834.192 426.639,833.722C426.637,830.857 426.637,827.991 426.637,825.127ZM587.547,684.142C586.211,684.091 585.443,684.564 584.655,685.001C584.075,685.323 583.378,686.374 582.728,686.72C581.775,687.229 580.628,687.162 579.837,687.58C579.589,687.711 579.328,688.181 578.874,688.44C576.875,689.576 576.311,690.727 575.02,691.878C574.254,692.561 572.77,692.825 572.13,693.597C571.59,694.246 571.157,696.193 570.202,697.896C569.936,698.369 569.492,697.85 569.238,698.755C568.894,699.98 568.895,700.502 568.274,701.335C567.322,702.608 566.573,705.625 566.347,707.352C566.026,709.812 565.856,713.612 566.347,715.949C566.36,716.008 567.241,715.898 567.311,715.949C567.577,716.143 567.174,717.362 567.311,717.669C569.04,721.524 570.711,723.643 573.091,726.265C574.229,727.519 575.351,729.25 575.982,729.704C576.361,729.975 577.457,729.522 577.91,729.704C578.246,729.839 578.477,731.22 578.874,731.423C579.315,731.652 581.628,732.277 581.765,732.283C582.77,732.33 582.325,733.001 582.728,733.142C586.074,734.32 590.455,733.31 593.328,735.721C593.539,747.668 594.875,762.81 595.254,772.687C595.32,774.393 596.072,777.209 594.291,778.705C585.77,775.132 578.089,770.809 572.131,764.95C568.193,766.04 564.567,770.405 562.494,772.687C559.569,775.909 559.452,775.299 561.531,776.985C565.049,779.839 567.638,783.666 570.203,785.582C570.923,786.12 572.413,785.978 573.093,786.441C573.793,786.919 574.178,787.641 575.021,788.161C575.68,788.566 576.338,788.622 576.948,789.021C577.563,789.421 578.177,790.362 578.876,790.74C580.318,791.519 581.942,792.283 582.73,792.459C583.286,792.583 584.142,792.247 584.657,792.459C585.144,792.659 586.017,793.905 586.586,794.179C589.631,795.642 593.256,795.033 595.256,796.757L595.256,813.951L605.856,813.951L605.856,797.616C608.784,798.156 614.155,796.517 615.491,798.476L615.491,813.951C617.843,815.421 622.372,813.088 627.054,813.951L627.054,796.757C646.798,795.736 659.853,780.316 659.816,762.37C659.808,758.84 658.337,753.663 657.888,752.056C657.577,750.95 657.136,750.235 656.923,749.477C656.116,746.598 655.894,744.439 654.997,742.6C654.794,742.185 653.364,741.37 653.069,740.88C652.512,739.954 652.587,739.045 652.106,738.3C649.799,734.724 648.727,733.902 646.325,732.283C643.929,730.669 642.554,728.937 640.544,728.844C638.773,728.761 638.079,727.191 636.69,727.124C635.696,727.078 636.114,726.396 635.725,726.265C634.172,725.741 631.811,725.801 629.944,725.406C629.778,725.371 629.692,724.705 628.981,724.547C627.008,724.108 624.004,725.525 624.163,723.688C622.302,719.973 623.446,713.653 623.2,709.073C623.02,705.719 620.692,702.526 623.2,700.478C627.243,701.169 629.448,703.499 633.798,703.916C634.657,699.237 637.581,696.402 637.653,691.02C635.544,690.904 634.428,689.376 632.835,689.301C631.78,689.252 632.339,688.638 631.872,688.442C629.993,687.648 627.14,687.291 625.128,686.722C623.429,686.242 621.913,685.661 620.31,685.003C619.816,680 618.886,675.385 619.347,669.529C616.747,667.837 610.927,669.017 606.82,668.669C606.246,673.768 608.511,676.33 607.785,681.564L600.076,681.564C598.531,678.07 599.529,672.311 598.15,668.669L586.587,668.669C586.35,674.32 588.28,678.043 587.547,684.142Z"/>
    </g>
</svg>
