<?xml version="1.0" encoding="UTF-8" standalone="no"?>
<!DOCTYPE svg PUBLIC "-//W3C//DTD SVG 1.1//EN" "http://www.w3.org/Graphics/SVG/1.1/DTD/svg11.dtd">
<svg width="100%" height="100%" viewBox="0 0 1163 1409" version="1.1" xmlns="http://www.w3.org/2000/svg" xmlns:xlink="http://www.w3.org/1999/xlink" xml:space="preserve" xmlns:serif="http://www.serif.com/" style="fill-rule:evenodd;clip-rule:evenodd;stroke-linejoin:round;stroke-miterlimit:2;">
    <g id="图层_1_1_">
        <g>
            <path d="M576.722,469L584.221,469C584.749,470.361 588.483,469.717 590.97,469.75C593.642,469.785 596.022,469.58 598.469,469.75C598.391,469.745 598.74,470.475 599.219,470.5C613.837,471.269 628.173,473.774 641.213,477.249C642.343,477.55 643.945,478.649 645.713,478.749C646.771,478.809 647.694,479.092 648.713,479.499C653.34,481.35 660.331,483.507 665.96,485.499C666.131,485.559 666.15,486.109 666.71,486.249C668.276,486.641 669.126,487.177 670.46,487.749C672.079,488.443 673.969,489.195 675.709,489.999C676.478,490.353 677.542,491.437 678.709,491.499C679.365,491.534 680.698,492.356 681.708,492.999C682.081,493.237 685.006,495.187 686.208,495.249C686.864,495.284 688.197,496.106 689.207,496.749C689.468,496.915 689.885,497.464 689.957,497.499C690.978,497.996 691.942,497.683 692.957,498.249C693.353,498.47 692.856,498.955 693.707,498.999C693.936,499.011 694.943,499.574 695.207,499.749C695.676,500.062 696.271,500.993 696.706,501.249C696.98,501.411 698.015,501.014 698.206,501.249C698.368,501.447 698.767,502.645 698.956,502.749C699.916,503.277 701.014,502.904 701.956,503.499C702.246,503.682 702.455,504.886 702.706,504.999C703.738,505.465 704.393,505.647 705.705,506.499C707.805,507.859 710.116,509.249 712.454,510.999C713.01,511.415 713.479,512.167 713.954,512.499C714.225,512.688 715.253,512.253 715.454,512.499C716.571,513.865 718.554,515.39 720.703,516.999C721.32,517.461 721.671,518.074 722.203,518.499C723.68,519.677 725.276,520.359 726.703,521.499C727.315,521.989 727.577,523.312 728.202,523.749C728.928,524.255 729.818,523.963 730.452,524.499C731.764,525.609 732.841,527.085 734.202,528.249C739.991,533.2 746.554,539.963 752.198,546.247C753.987,548.238 755.618,549.8 757.448,552.247C757.924,552.881 758.497,553.201 758.948,553.747C760.11,555.15 760.794,556.754 761.948,558.247C762.135,558.488 763.348,558.778 763.448,558.997C763.911,560.025 763.999,560.737 764.948,561.997C765.266,562.421 765.651,561.872 765.698,562.747C765.709,562.954 766.28,564.013 766.446,564.247C766.634,564.506 767.842,564.765 767.946,564.997C768.116,565.371 767.714,566.167 767.946,566.497C768.134,566.76 769.342,567.013 769.446,567.247C769.914,568.282 770.05,568.953 770.946,570.247C771.237,570.668 771.651,570.125 771.696,570.997C771.749,571.993 773.139,572.17 773.196,573.247C773.249,574.243 774.639,574.42 774.696,575.497C774.709,575.736 775.268,576.723 775.446,576.997C775.84,577.602 776.644,578.017 776.946,578.497C777.118,578.77 776.707,579.801 776.946,579.997C777.143,580.159 778.342,580.557 778.446,580.747C778.981,581.724 778.615,582.768 779.196,583.747C779.376,584.05 780.579,584.238 780.696,584.497C780.875,584.895 780.475,585.623 780.696,585.997C780.977,586.476 781.956,587.069 782.194,587.497C782.348,587.77 781.965,588.808 782.194,588.997C782.393,589.16 783.59,589.557 783.694,589.747C784.246,590.75 783.905,591.701 784.444,592.747C784.641,593.129 785.151,592.66 785.194,593.497C785.214,593.846 785.756,594.586 785.944,594.997C786.298,595.765 787.382,596.83 787.444,597.997C787.478,598.655 788.3,599.988 788.944,600.997C789.123,601.277 789.643,601.649 789.694,601.747C790.216,602.776 789.903,603.691 790.444,604.747C790.672,605.19 791.776,605.873 791.944,606.247C792.469,607.418 792.298,608.327 792.694,609.247C792.891,609.71 793.142,610.274 793.444,610.747C793.797,611.3 794.415,612.946 794.944,614.497C795.423,615.898 796.594,618.222 797.192,619.746C797.727,621.108 797.739,622.747 798.692,624.246C799.162,624.98 799.174,625.425 799.442,626.496C799.759,627.764 800.951,630.764 801.692,633.245C805.77,646.871 809.751,663.25 811.442,680.489C811.561,681.718 811.262,683.015 811.442,684.239C811.841,686.985 811.77,692.72 812.192,697.738C812.28,698.789 811.951,699.871 812.94,699.988L812.94,708.987C810.72,710.454 813.331,717.968 812.192,721.736C811.389,724.385 811.272,731.468 810.692,735.984C810.599,736.696 810.125,737.733 809.942,738.983C809.839,739.675 810.143,740.565 809.942,741.233C809.63,742.26 808.923,746.155 808.442,748.732C808.063,750.751 807.35,752.828 806.942,754.731C806.495,756.812 806.66,758.776 806.192,760.731C806.154,760.892 805.476,760.818 805.442,761.481C805.338,763.473 805.31,764.373 804.692,766.73C804.642,766.918 803.979,766.794 803.942,767.48C803.85,769.21 803.797,769.713 803.192,771.229C802.179,773.76 800.785,779.422 799.442,783.228C798.838,784.939 797.807,786.833 797.192,788.477C796.724,789.727 796.037,790.857 795.694,792.227C795.301,793.79 794.719,794.635 794.194,795.976C793.758,797.083 793.949,797.86 793.444,798.976C793.285,799.327 792.737,798.913 792.694,799.726C792.674,800.075 792.133,800.815 791.944,801.226C791.506,802.176 791.258,803.697 790.444,804.975C790.207,805.348 788.256,808.273 788.194,809.474C788.16,810.132 787.338,811.465 786.694,812.474C786.457,812.847 784.507,815.772 784.444,816.974C784.391,817.97 783.002,818.147 782.944,819.223C782.926,819.572 782.384,820.312 782.194,820.723C781.94,821.276 781.84,822.288 781.446,822.973C781.266,823.281 780.062,823.46 779.946,823.723C779.281,825.198 779.324,826.041 778.446,827.472C778.194,827.882 777.742,827.361 777.696,828.222C777.682,828.461 777.124,829.449 776.946,829.722C776.55,830.333 775.756,830.736 775.446,831.222C775.271,831.494 775.685,832.526 775.446,832.721C775.194,832.927 774.112,833.222 773.946,833.471C773.764,833.742 774.188,834.773 773.946,834.971C773.703,835.171 772.603,835.48 772.446,835.721C772.268,835.992 772.687,837.024 772.446,837.221C772.219,837.407 771.083,837.747 770.946,837.971C770.459,838.769 770.688,839.519 770.196,840.22C769.901,840.642 769.493,840.098 769.446,840.97C769.435,841.177 768.865,842.237 768.696,842.47C768.509,842.73 767.3,842.989 767.196,843.22C767.033,843.584 767.432,844.406 767.196,844.72C766.707,845.373 765.452,845.592 764.948,846.22C764.737,846.481 765.198,847.514 764.948,847.72C762.549,849.683 760.045,853.668 757.448,856.718C756.291,858.077 754.896,859.07 753.698,860.468C752.776,861.543 751.703,863.103 750.698,864.217C747.266,868.031 744.034,871.633 740.201,875.466C739.002,876.664 737.689,878.09 736.451,879.216C736.203,879.441 735.159,878.962 734.951,879.216C734.213,880.116 733.313,881.041 731.952,882.215C731.357,882.726 731.074,884.029 730.452,884.465C729.726,884.971 728.833,884.676 728.202,885.215C726.902,886.323 725.826,887.847 724.453,888.964C722.018,890.943 719.269,892.77 716.204,894.964C715.78,895.266 716.327,895.667 715.454,895.713C714.641,895.756 711.446,898.535 710.205,899.463C708.681,900.6 706.419,901.801 704.205,903.212C696.259,908.277 685.566,914.48 675.709,918.96C674.643,919.444 673.792,919.184 672.709,919.71C672.341,919.89 672.787,920.417 671.96,920.46C671.603,920.48 670.881,921.021 670.46,921.21C667.639,922.48 665.587,922.885 662.211,924.21C661.762,924.386 661.167,924.669 660.711,924.96C659.886,925.484 656.59,926.564 654.712,927.209C652.8,927.865 650.514,928.156 648.713,928.709C648.475,928.781 648.685,929.421 647.963,929.459C647.764,929.47 647.397,929.386 647.213,929.459C646.288,929.828 645.598,929.596 643.463,930.209C643.246,930.272 643.42,930.922 642.713,930.959C642.514,930.97 642.147,930.886 641.963,930.959C641.095,931.307 640.234,931.323 638.964,931.709C638.478,931.855 638.303,932.437 638.214,932.459C636.329,932.927 634.167,932.762 632.215,933.209C632.066,933.242 632.117,933.924 631.465,933.958C629.567,934.059 628.645,934.215 626.215,934.708C613.707,937.249 596.977,939.208 580.471,939.208C570.742,939.208 561.78,938.735 552.725,937.708C539.954,936.259 527.748,933.656 515.979,930.209C514.031,929.639 511.921,929.362 509.98,928.709C509.713,928.618 509.976,927.999 509.23,927.959C509.031,927.948 508.665,928.031 508.48,927.959C507.734,927.66 507.279,927.472 506.23,927.209C505.341,926.986 501.525,925.703 499.48,924.96C499.19,924.855 499.494,924.25 498.73,924.21C498.531,924.198 498.165,924.282 497.98,924.21C497.234,923.91 496.779,923.722 495.73,923.46C494.987,923.273 493.717,922.642 491.98,921.96C491.531,921.783 490.937,921.501 490.48,921.21C489.852,920.81 487.517,919.345 485.98,918.96C483.93,918.447 482.615,917.912 480.73,916.711C480.357,916.473 477.433,914.523 476.23,914.461C475.572,914.427 474.239,913.605 473.23,912.961C472.969,912.795 472.552,912.245 472.48,912.211C471.464,911.717 470.484,912.03 469.48,911.461C469.168,911.283 468.994,910.08 468.73,909.962C468.333,909.781 467.604,910.182 467.23,909.962C466.738,909.672 466.168,908.718 465.73,908.462C465.457,908.301 464.421,908.695 464.23,908.462C464.068,908.264 463.67,907.066 463.48,906.962C462.52,906.435 461.422,906.808 460.48,906.212C460.19,906.027 459.981,904.824 459.73,904.712C459.36,904.545 458.554,904.945 458.23,904.712C457.642,904.284 457.458,903.675 456.73,903.212C456.233,902.897 455.764,902.803 455.23,902.463C454.409,901.94 453.823,901.5 452.98,900.963C452.459,900.63 451.147,899.586 449.98,898.713C449.422,898.296 448.958,897.549 448.48,897.213C448.21,897.023 447.182,897.459 446.98,897.213C446.774,896.962 446.479,895.879 446.23,895.713C445.959,895.531 444.929,895.955 444.73,895.713C443.605,894.338 441.608,892.859 439.481,891.214C438.75,890.648 437.95,890.314 437.231,889.714C437.009,889.528 436.687,888.307 436.481,888.214C436.142,888.062 435.255,888.45 434.981,888.214C433.835,887.224 433.231,885.541 431.981,884.465C431.727,884.245 430.689,884.718 430.481,884.465C429.588,883.373 427.755,880.597 425.981,879.216C425.487,878.83 424.231,878.918 423.731,878.466C421.313,876.27 419.352,873.336 416.981,870.967C414.527,868.512 411.785,866.077 409.482,863.468C407.884,861.655 406.105,859.763 404.233,857.468C403.069,856.041 401.28,853.469 399.733,851.469C399.546,851.228 398.333,850.939 398.233,850.719C397.771,849.695 397.694,848.97 396.733,847.72C396.407,847.294 396.029,847.845 395.983,846.97C395.972,846.763 395.401,845.702 395.233,845.47C395.046,845.209 393.837,844.95 393.733,844.72C393.567,844.352 393.968,843.539 393.733,843.22C393.269,842.586 391.92,842.345 391.483,841.72C390.983,841.004 391.201,840.133 390.733,839.471C390.436,839.049 390.029,839.593 389.983,838.721C389.931,837.725 388.541,837.547 388.483,836.471C388.43,835.475 387.041,835.297 386.983,834.221C386.931,833.225 385.541,833.047 385.483,831.972C385.431,830.976 384.041,830.797 383.983,829.722C383.926,828.642 382.533,827.322 381.733,825.972C381.439,825.476 381.318,824.997 380.983,824.472C380.757,824.118 380.347,823.914 380.233,823.723C379.854,823.082 378.791,821.798 378.733,820.723C378.675,819.615 377.261,818.359 376.483,816.974C375.528,815.273 374.734,812.936 373.483,810.974C373.246,810.601 371.296,807.676 371.233,806.475C371.214,806.125 370.673,805.385 370.483,804.975C361.437,785.385 353.555,761.562 350.235,735.234C349.817,731.918 349.849,729.081 349.485,724.735C349.445,724.264 349.599,723.692 349.485,723.236C349.189,722.05 348.794,718.239 348.735,714.986C348.708,713.411 349.386,709.946 347.985,708.987L347.985,699.988C348.709,699.831 348.683,699.35 348.735,698.488C349.318,688.739 349.22,677.8 350.985,670.741C351.102,670.272 350.905,669.72 350.985,669.241C351.591,665.635 351.836,662.945 352.485,659.492C352.861,657.494 353.137,656.857 353.235,654.992C353.27,654.334 353.948,654.397 353.985,654.242C354.553,651.807 354.628,651.042 354.735,648.992C354.77,648.325 355.444,648.409 355.485,648.242C355.947,646.343 355.797,644.01 356.235,642.243C356.257,642.154 356.839,641.979 356.985,641.493C357.369,640.222 357.387,639.362 357.735,638.493C357.808,638.309 357.724,637.942 357.735,637.743C357.772,637.036 358.423,637.21 358.485,636.993C359.099,634.859 358.865,634.167 359.235,633.243C359.308,633.059 359.225,632.692 359.235,632.493C359.273,631.771 359.913,631.98 359.985,631.743C360.538,629.942 360.798,627.646 361.485,625.744C361.971,624.4 362.703,623.452 362.985,622.744C363.589,621.238 364.1,619.371 364.485,618.244C364.797,617.334 364.756,616.436 365.235,615.244C365.376,614.895 366.546,614.178 366.735,613.744C367.203,612.678 367.158,611.509 367.485,610.744C372.506,599.015 378.722,587.348 384.733,577.748C385.017,577.295 385.933,576.758 386.233,576.248C386.453,575.875 386.054,575.146 386.233,574.748C386.345,574.499 387.549,574.285 387.733,573.998C387.961,573.644 387.558,572.886 387.733,572.498C387.842,572.255 389.047,572.025 389.233,571.748C389.463,571.403 389.061,570.631 389.233,570.248C389.339,570.013 390.546,569.763 390.733,569.498C391.226,568.797 390.996,568.046 391.483,567.248C391.619,567.025 392.756,566.685 392.983,566.498C393.229,566.297 392.795,565.269 392.983,564.998C393.423,564.372 394.74,564.112 395.233,563.498C395.47,563.203 395.074,562.352 395.233,561.998C395.334,561.777 396.546,561.492 396.733,561.248C397.232,560.595 396.978,559.721 397.483,558.998C398.424,557.652 400.407,557.435 400.483,555.998C400.53,555.104 402.301,553.507 402.733,552.998C407.244,547.681 411.931,543.05 416.981,538C419.337,535.645 421.277,532.747 423.731,530.501C424.876,529.454 425.753,529.442 426.731,529.001C426.928,528.912 427.271,527.685 427.481,527.501C428.825,526.33 429.926,524.869 431.231,523.751C431.778,523.281 432.959,523.409 433.481,523.001C434.774,521.994 435.086,520.075 436.481,520.001C437.356,519.955 436.807,519.567 437.231,519.251C440.123,517.095 443.201,514.952 445.48,513.252C446.722,512.325 449.918,509.545 450.73,509.502C451.807,509.445 451.983,508.054 452.98,508.002C454.057,507.945 454.233,506.555 455.23,506.502C456.098,506.457 455.563,506.026 455.98,505.752C458.835,503.879 462.026,502.222 464.979,500.502C477.121,493.435 490.285,487.348 503.974,482.504C520.977,476.487 540.845,471.605 561.717,470.505C562.195,470.481 562.546,469.75 562.467,469.755C564.972,469.581 567.454,469.788 569.966,469.755C572.458,469.717 576.193,470.361 576.722,469ZM554.974,485.498C554.435,485.526 554.225,486.248 554.224,486.248C553.241,486.368 552.213,486.177 551.224,486.248C549.845,486.346 549.036,486.873 548.224,486.998C544.098,487.633 539.98,487.723 536.225,488.498C536.141,488.516 535.994,489.118 535.475,489.248C535.004,489.366 534.451,489.145 533.975,489.248C524.802,491.235 514.1,494.647 506.978,497.497C505.833,497.955 505.139,497.957 503.978,498.247C502.635,498.583 501.281,499.329 500.228,499.747C498.532,500.42 498.092,501.162 496.478,501.247C495.672,501.289 496.07,501.847 495.728,501.997C492.911,503.227 490.592,503.984 488.229,504.997C487.789,505.185 487.102,505.726 486.729,505.747C485.562,505.808 484.498,506.892 483.729,507.247C483.318,507.436 482.578,507.977 482.229,507.997C481.153,508.054 479.869,509.118 479.229,509.497C479.036,509.611 478.833,510.02 478.479,510.247C476.462,511.533 474.298,512.162 472.479,513.247C472.036,513.511 471.477,514.454 470.979,514.747C470.606,514.967 469.876,514.568 469.479,514.747C469.224,514.862 469.027,516.065 468.729,516.247C468.031,516.672 467.061,516.683 466.479,516.997C465.581,517.481 465.06,517.963 464.229,518.497C462.915,519.342 462.263,519.531 461.229,519.997C460.989,520.104 460.751,521.31 460.479,521.497C459.837,521.934 458.787,521.917 458.229,522.247C458.036,522.362 457.833,522.77 457.479,522.997C456.083,523.886 455.949,524.368 455.229,525.247C455.03,525.49 454.001,525.065 453.729,525.247C453.48,525.413 453.185,526.496 452.979,526.747C452.776,526.996 451.746,526.549 451.479,526.747C450.403,527.546 449.732,529.131 449.229,529.747C449.024,529.997 447.993,529.542 447.729,529.747C447.244,530.123 446.769,530.807 446.229,531.247C444.317,532.806 442.833,534.397 441.729,535.747C441.522,536 440.482,535.527 440.229,535.747C439.075,536.75 438.375,538.481 437.229,539.497C434.835,541.616 432.066,543.317 429.73,545.496C427.299,547.764 425.237,550.541 422.981,552.995C420.92,555.237 418.286,557.395 416.232,559.745C415.768,560.276 415.881,561.482 415.482,561.995C414.989,562.627 413.753,562.865 413.232,563.495C412.704,564.133 412.989,565.02 412.482,565.745C412.045,566.37 410.724,566.632 410.232,567.245C409.715,567.89 409.988,568.77 409.482,569.495C409.045,570.12 407.693,570.361 407.232,570.995C406.767,571.634 406.87,572.677 406.482,573.245C406.307,573.502 405.241,573.783 404.982,573.995C404.736,574.197 405.173,575.224 404.982,575.495C404.641,575.974 403.903,576.433 403.482,576.995C402.905,577.766 402.52,578.468 401.982,579.245C401.657,579.716 400.796,580.211 400.482,580.745C400.262,581.119 400.661,581.847 400.482,582.245C400.37,582.492 399.166,582.711 398.982,582.995C398.541,583.676 398.576,584.664 398.232,585.245C398.118,585.438 397.709,585.641 397.482,585.995C397.143,586.527 397.044,586.998 396.732,587.495C396.446,587.949 395.533,588.484 395.232,588.995C395.012,589.369 395.411,590.097 395.232,590.495C395.116,590.752 393.913,590.943 393.732,591.245C393.306,591.957 393.301,592.905 392.982,593.495C392.494,594.399 391.963,594.876 391.482,595.745C380.673,615.285 372.517,635.848 367.485,660.987C366.975,663.534 366.224,666.782 365.985,667.736C365.704,668.862 366.048,670.321 365.985,671.486C365.956,672.049 365.24,672.204 365.235,672.236C364.622,676.511 364.334,683.339 363.735,685.734C363.265,687.613 363.76,689.419 363.735,690.984C363.686,694.063 363.25,697.427 362.985,698.483C361.94,702.665 363.276,710.146 363.735,711.982C364.205,713.861 363.711,715.667 363.735,717.231C363.784,720.309 364.221,723.674 364.485,724.73C364.599,725.187 364.445,725.758 364.485,726.23C364.881,730.954 365.605,735.626 365.985,738.229C366.324,740.55 366.549,741.986 366.735,742.728C366.853,743.2 366.632,743.751 366.735,744.228C368.648,753.058 370.531,761.483 372.735,768.975C373.94,773.072 375.689,777.04 376.485,780.223C376.822,781.571 377.581,782.911 377.985,783.973C378.863,786.284 379.694,787.81 380.235,789.971C380.641,791.596 382.439,794.356 382.485,795.221C382.528,796.047 383.056,795.603 383.235,795.971C383.761,797.051 383.477,797.917 383.985,798.971C384.175,799.365 385.248,800.008 385.485,800.471C386.027,801.528 385.721,802.434 386.235,803.469C386.434,803.87 387.495,804.5 387.735,804.969C388.275,806.024 387.951,806.948 388.485,807.969C388.702,808.383 389.737,808.987 389.985,809.469C390.52,810.514 390.172,811.479 390.735,812.469C390.98,812.898 391.873,813.409 392.235,813.969C392.412,814.241 392.972,815.23 392.985,815.469C393.043,816.544 394.107,817.828 394.485,818.467C394.599,818.66 395.009,818.863 395.235,819.217C395.574,819.749 395.675,820.221 395.985,820.717C396.447,821.457 397.053,821.622 397.485,822.217C397.72,822.54 397.318,823.347 397.485,823.717C397.596,823.962 398.8,824.187 398.985,824.467C399.426,825.138 399.395,826.143 399.735,826.717C399.849,826.909 400.259,827.113 400.485,827.467C401.022,828.31 401.463,828.897 401.985,829.717C402.522,830.559 402.963,831.146 403.485,831.967C404.383,833.374 404.982,833.959 405.735,834.965C413.2,844.942 421.197,854.621 429.732,862.712C432.003,864.863 434.17,867.385 436.481,869.461C438.872,871.608 441.429,873.395 443.98,875.46C446.363,877.391 449.015,879.606 451.48,881.459C452.568,882.277 453.644,883.665 454.48,883.709C455.557,883.767 455.733,885.156 456.73,885.209C457.807,885.267 457.984,886.656 458.98,886.709C459.849,886.754 459.311,887.181 459.73,887.458C461.319,888.519 461.889,888.682 462.73,889.708C462.928,889.951 463.959,889.526 464.23,889.708C464.678,890.008 465.2,890.812 465.73,891.208C467.788,892.748 469.876,893.609 470.979,894.958C471.174,895.195 472.205,894.789 472.479,894.958C472.924,895.23 473.497,896.138 473.979,896.457C474.241,896.634 475.249,897.195 475.479,897.207C476.646,897.27 477.71,898.353 478.479,898.707C478.89,898.896 479.63,899.438 479.979,899.457C481.146,899.52 482.21,900.603 482.979,900.957C483.39,901.146 484.13,901.688 484.479,901.707C485.646,901.77 486.71,902.853 487.479,903.206C487.89,903.396 488.63,903.938 488.979,903.956C490.181,904.019 493.105,905.97 493.479,906.206C493.951,906.508 494.515,906.758 494.979,906.956C498.058,908.276 501.485,909.477 504.728,910.706C506.616,911.422 509.758,912.714 510.727,912.955C511.776,913.219 512.231,913.407 512.977,913.705C514.121,914.163 514.816,914.166 515.977,914.455C516.47,914.578 516.64,915.181 516.727,915.205C518.788,915.811 519.979,915.643 521.227,915.955C522.495,916.272 524.025,917.194 524.977,917.455C527.219,918.068 527.36,918.094 529.477,918.204C530.133,918.239 530.074,918.92 530.227,918.954C532.352,919.448 534.753,919.243 536.977,919.704C537.063,919.724 537.206,920.324 537.727,920.454C538.198,920.572 538.75,920.351 539.227,920.454C546.143,921.952 553.141,922.788 560.225,923.454C594.557,926.681 627.452,920.885 652.462,912.205C653.413,911.877 654.206,911.922 655.462,911.455C655.789,911.335 656.548,910.139 656.962,909.956C658.011,909.496 659.216,909.514 659.962,909.206C661.199,908.697 663.052,907.74 663.712,907.706C664.514,907.664 664.123,907.102 664.462,906.956C666.892,905.912 669.321,905.433 670.46,904.706C671.47,904.063 672.803,903.241 673.46,903.206C674.626,903.145 675.69,902.061 676.46,901.707C676.87,901.518 677.61,900.977 677.96,900.957C679.126,900.895 680.19,899.811 680.958,899.457C681.369,899.269 682.109,898.727 682.458,898.707C683.569,898.648 684.77,897.579 685.458,897.207C687.532,896.088 689.753,894.625 690.708,893.458C690.902,893.22 691.935,893.63 692.208,893.458C692.656,893.178 693.222,892.282 693.708,891.958C693.971,891.783 694.978,891.221 695.208,891.208C696.074,891.162 695.539,890.732 695.958,890.458C697.556,889.408 698.116,889.235 698.956,888.208C699.155,887.967 700.185,888.392 700.456,888.208C700.906,887.907 701.425,887.106 701.956,886.709C702.727,886.133 703.427,885.742 704.206,885.209C706.622,883.557 708.666,881.896 710.206,880.709C712.425,879.001 714.435,877.642 716.204,876.21C721.429,871.983 725.952,867.615 730.452,863.463C732.64,861.442 734.368,859.999 735.701,858.213C738.201,854.861 741.499,852.04 743.95,849.213C747.216,845.451 750.331,841.463 752.95,837.966C753.766,836.872 755.155,835.805 755.2,834.966C755.245,834.092 755.64,834.64 755.95,834.216C757.942,831.477 759.3,828.879 761.198,825.967C761.499,825.509 762.366,824.966 762.698,824.467C762.874,824.204 763.435,823.196 763.448,822.968C763.493,822.105 763.94,822.629 764.198,822.218C765.043,820.864 765.545,819.224 766.448,817.718C766.716,817.274 767.682,816.736 767.948,816.219C768.482,815.174 768.134,814.208 768.698,813.219C768.941,812.789 769.836,812.278 770.198,811.719C770.376,811.446 770.934,810.457 770.948,810.219C771.01,809.052 772.093,807.988 772.448,807.22C772.636,806.809 773.178,806.069 773.198,805.72C773.26,804.553 774.343,803.489 774.696,802.72C774.886,802.309 775.427,801.57 775.446,801.221C775.509,800.053 776.592,798.99 776.946,798.221C777.751,796.481 778.503,794.59 779.196,792.972C779.767,791.638 780.304,790.788 780.696,789.222C780.837,788.662 781.385,788.643 781.446,788.472C782.3,786.059 783.198,783.719 783.696,782.473C784.153,781.327 784.155,780.632 784.446,779.473C784.784,778.118 785.587,776.809 785.946,775.724C788.924,766.749 791.536,758.065 793.444,748.727C795.079,740.739 796.163,729.553 797.194,722.481C797.37,721.276 797.157,719.95 797.194,718.731C797.307,715.023 797.673,711.585 797.944,709.732C798.632,705.009 797.565,698.779 797.194,696.234C797.018,695.029 797.231,693.703 797.194,692.484C797.081,688.776 796.715,685.339 796.444,683.485C796.265,682.26 796.579,680.965 796.444,679.735C795.31,669.335 793.376,660.212 791.194,651.238C787.605,636.468 782.837,623.115 776.946,610.743C775.508,607.718 773.962,604.733 772.448,601.744C771.028,598.942 769.62,595.613 767.948,594.245C767.716,594.054 768.106,593.02 767.948,592.745C767.702,592.317 766.758,591.709 766.448,591.245C766.272,590.982 765.711,589.975 765.698,589.745C765.641,588.669 764.577,587.385 764.198,586.745C764.085,586.552 763.675,586.349 763.448,585.995C763.107,585.461 763.015,584.992 762.698,584.495C761.856,583.18 761.665,582.529 761.198,581.495C761.094,581.262 759.885,581.008 759.698,580.745C759.466,580.416 759.868,579.619 759.698,579.245C759.594,579.014 758.385,578.755 758.2,578.495C758.032,578.262 757.461,577.202 757.45,576.995C757.403,576.121 757.007,576.668 756.7,576.245C756.221,575.585 756.452,574.714 755.95,573.995C755.512,573.37 754.161,573.129 753.7,572.495C753.234,571.855 753.339,570.813 752.95,570.245C752.773,569.988 751.71,569.707 751.45,569.495C751.2,569.29 751.655,568.259 751.45,567.995C750.602,566.911 749.093,566.27 748.45,565.745C748.196,565.538 748.671,564.498 748.45,564.245C747.45,563.095 745.695,562.399 744.7,561.245C744.232,560.702 744.355,559.516 743.95,558.995C743.462,558.367 742.259,558.089 741.702,557.495C740.661,556.388 739.753,554.89 738.702,553.745C734.976,549.687 730.479,544.573 726.704,541.746C724.35,539.984 723.302,538.125 721.454,536.497C720.832,535.948 719.929,536.253 719.204,535.747C718.58,535.311 718.311,533.995 717.705,533.497C716.487,532.501 715.717,532.453 714.705,531.997C714.481,531.897 714.2,530.684 713.955,530.497C713.301,530 712.427,530.251 711.705,529.747C711.08,529.309 710.835,527.966 710.206,527.497C709.516,526.983 708.755,527.236 707.956,526.747C707.732,526.611 707.392,525.474 707.206,525.247C707.005,525.001 705.977,525.436 705.706,525.247C705.081,524.807 704.819,523.49 704.206,522.997C703.911,522.76 703.06,523.156 702.707,522.997C702.47,522.89 702.226,521.684 701.957,521.497C701.329,521.062 700.255,521.071 699.707,520.747C699.514,520.632 699.311,520.223 698.957,519.997C698.42,519.655 697.952,519.573 697.457,519.247C696.997,518.945 696.458,518.081 695.958,517.747C695.694,517.572 694.687,517.009 694.458,516.997C693.382,516.94 692.098,515.876 691.458,515.497C691.265,515.383 691.062,514.973 690.708,514.747C690.185,514.414 689.703,514.286 689.208,513.997C688.475,513.569 688.281,512.862 687.709,512.497C686.771,511.9 685.657,512.288 684.709,511.747C684.276,511.501 683.693,510.533 683.209,510.247C682.836,510.027 682.106,510.427 681.709,510.247C681.445,510.129 681.271,508.925 680.959,508.747C680.266,508.351 679.269,508.255 678.71,507.997C678.299,507.807 677.559,507.267 677.21,507.247C676.043,507.184 674.979,506.102 674.21,505.747C672.471,504.943 670.58,504.191 668.961,503.497C668.521,503.309 667.833,502.767 667.461,502.747C666.661,502.705 667.045,502.139 666.711,501.997C665.19,501.352 663.065,501.14 661.462,500.497C661.131,500.365 661.429,499.926 660.712,499.747C659.641,499.479 659.195,499.465 658.462,498.997C656.567,497.79 653.774,497.518 651.713,496.747C651.409,496.634 651.656,496.17 650.963,495.997C649.913,495.735 649.458,495.545 648.714,495.247C647.568,494.789 646.873,494.787 645.714,494.497C645.222,494.373 645.051,493.772 644.964,493.747C642.902,493.142 641.71,493.309 640.465,492.997C639.195,492.68 637.665,491.757 636.715,491.497C634.474,490.884 634.33,490.858 632.216,490.747C631.559,490.713 631.618,490.033 631.466,489.997C629.28,489.489 627.063,489.748 624.717,489.247C624.62,489.226 624.492,488.629 623.967,488.497C623.494,488.379 622.943,488.601 622.467,488.497C615.417,486.97 608.529,486.152 601.47,485.497C597.372,485.117 592.885,484.984 588.721,484.747C583.901,484.473 579.654,483.517 575.223,483.997C574.839,484.039 574.31,484.755 574.473,484.747C567.249,485.092 560.722,485.195 554.974,485.498Z" style="fill-rule:nonzero;"/>
        </g>
    </g>
</svg>
