<?xml version="1.0" encoding="UTF-8" standalone="no"?>
<!DOCTYPE svg PUBLIC "-//W3C//DTD SVG 1.1//EN" "http://www.w3.org/Graphics/SVG/1.1/DTD/svg11.dtd">
<svg width="100%" height="100%" viewBox="0 0 1163 1409" version="1.1" xmlns="http://www.w3.org/2000/svg" xmlns:xlink="http://www.w3.org/1999/xlink" xml:space="preserve" xmlns:serif="http://www.serif.com/" style="fill-rule:evenodd;clip-rule:evenodd;stroke-linejoin:round;stroke-miterlimit:2;">
    <g id="国家1">
        <path d="M626.087,540.439L639.425,540.439C638.31,542.296 635.715,541.382 633.15,541.435C630.492,541.489 627.272,542.201 626.087,540.439Z" style="fill:rgb(95,50,47);"/>
        <path d="M609.611,542.43C609.949,540.204 613.477,542.027 615.102,541.435C614.764,543.66 611.237,541.838 609.611,542.43Z" style="fill:rgb(166,164,163);"/>
        <path d="M591.564,543.426C592.908,541.148 597.553,543.06 600.196,542.43L600.196,543.426L591.564,543.426Z" style="fill:rgb(166,164,163);"/>
        <path d="M600.196,543.426L600.196,542.43L604.902,542.43C604.805,544.629 601.575,542.853 600.196,543.426Z" style="fill:rgb(95,50,47);"/>
        <path d="M581.365,544.421C581.233,542.263 584.148,543.97 585.287,543.426L585.287,544.421L581.365,544.421Z" style="fill:rgb(166,164,163);"/>
        <path d="M585.286,544.421L585.286,543.426L591.563,543.426C590.979,545.671 587.164,543.815 585.286,544.421Z" style="fill:rgb(95,50,47);"/>
        <path d="M575.088,545.417C575.233,543.943 576.984,544.504 578.227,544.421L578.227,545.417L575.088,545.417Z" style="fill:rgb(166,164,163);"/>
        <path d="M578.227,545.417L578.227,544.421L581.365,544.421C581.218,545.895 579.468,545.333 578.227,545.417Z" style="fill:rgb(95,50,47);"/>
        <path d="M623.733,545.417C625.333,543.132 630.25,545.057 633.15,544.421C635.792,545.052 640.436,543.139 641.779,545.417L623.733,545.417Z" style="fill:rgb(95,50,47);"/>
        <path d="M569.595,546.412C569.741,544.937 571.491,545.499 572.734,545.416C572.589,546.891 570.838,546.329 569.595,546.412Z" style="fill:rgb(166,164,163);"/>
        <path d="M611.18,546.412C611.765,544.166 615.579,546.023 617.455,545.416C616.872,547.661 613.054,545.806 611.18,546.412Z" style="fill:rgb(95,50,47);"/>
        <path d="M617.455,545.417L643.348,545.417C644.941,549.105 640.338,550.53 637.856,552.385C630.616,557.794 618.948,561.351 612.749,568.312C611.49,572.24 612.065,574.813 611.18,578.266C611.092,578.606 610.437,578.283 610.395,579.262C610.31,581.275 609.75,582.401 608.825,584.239C608.724,584.442 608.01,585.347 608.043,585.235C607.155,588.298 607.136,591.755 606.473,595.189C606.431,595.413 605.724,595.296 605.689,596.185C605.672,596.56 605.888,598.963 605.689,599.171C605.326,599.546 604.378,601.237 604.903,604.148C603.84,604.455 604.254,606.64 604.119,608.129L604.119,612.111C602.417,611.943 603.765,615.641 603.334,617.088L603.334,623.061C601.582,623.49 603.018,627.966 602.551,630.029L602.551,635.006C600.849,634.839 602.196,638.536 601.767,639.983C600.226,653.292 597.212,664.733 592.35,673.827C590.966,674.726 589.922,676.054 589.214,677.808L588.428,677.808C584.918,677.995 580.136,677.562 576.659,677.808C575.417,677.895 573.666,677.325 573.52,678.803L558.613,678.803C555.971,679.433 551.326,677.52 549.983,679.799L542.921,679.799C541.045,680.405 537.229,678.549 536.643,680.795L531.151,680.795C530.011,681.339 527.096,679.631 527.228,681.79L522.521,681.79C521.278,681.873 519.528,681.311 519.382,682.785L515.459,682.785C514.216,682.868 512.466,682.306 512.32,683.781L509.181,683.781C507.939,683.864 506.189,683.302 506.044,684.777C501.677,684.584 497.568,685.918 493.49,686.768C490.299,687.432 487.772,687.929 484.859,688.759C484.362,688.9 483.783,688.602 483.29,688.759C479.146,690.072 470.622,692.796 465.244,694.731C463.797,695.252 461.719,695.247 460.537,696.722C458.748,696.72 460.044,693.678 460.537,692.74C461.051,691.762 462.591,688.169 462.89,685.772C464.502,685.495 464.456,683.114 465.244,681.791C475.763,653.66 485.462,624.489 488.782,587.226C489.847,586.918 489.433,584.734 489.567,583.245L489.567,579.264C490.632,578.955 490.217,576.771 490.352,575.282L490.352,570.305C518.906,565.719 543.244,555.784 571.165,550.396C572.409,550.313 574.159,550.875 574.304,549.401L577.443,549.401C578.685,549.318 580.436,549.879 580.581,548.405L584.504,548.405C586.631,547.789 590.731,549.669 591.565,547.41L599.412,547.41C601.288,546.804 605.104,548.66 605.689,546.414L611.181,546.414C613.054,545.806 616.872,547.661 617.455,545.417ZM536.641,574.283C535.716,574.14 534.863,572.511 534.288,574.283C536.868,576.356 532.963,578.482 532.718,580.256C534.085,580.331 535.159,580.034 535.857,579.261C536.236,580.437 536.693,581.517 537.426,582.247C538.514,581.636 537.544,578.415 538.996,578.265C540.457,578.129 541.618,577.61 542.133,576.274C537.652,578.028 541.303,571.006 539.779,571.296C539.098,572.754 538.606,574.453 536.641,574.283ZM506.826,589.214C505.898,588.231 505.154,588.684 503.687,588.219C502.536,587.854 498.723,585.305 498.195,587.223C498.987,587.015 498.717,587.717 498.981,588.219C499.293,588.812 499.49,588.787 499.765,589.214C500.942,591.039 501.337,592.741 502.119,594.192C502.583,595.053 504.117,595.133 503.687,597.178C502.638,600.822 500.695,603.335 499.765,607.133C503.187,606.164 505.415,603.682 508.396,602.155C510.047,605.701 513.206,607.334 515.458,610.118C514.925,606.48 514.363,602.88 514.673,598.173C517.245,595.132 521.422,594.128 523.304,590.21L513.888,590.21C514.556,588.647 513.271,586.8 513.103,585.233C512.835,582.722 513.97,579.658 512.319,578.264C510.595,582.051 509.378,586.479 506.826,589.214ZM541.35,589.214C544.901,587.362 542.714,592.793 544.488,593.196C545.202,589.666 548.409,589.849 549.195,588.219C548.92,588.791 548.373,586.79 548.41,586.227C548.506,584.797 549.772,584.557 549.98,583.242C547.645,584.561 545.998,584.262 544.488,582.246C545.303,586.932 542.68,587.252 541.35,589.214ZM538.211,605.142C537.977,607.099 539.271,607.116 539.78,608.128C540.53,609.982 537.43,611.455 539.78,612.11C540.717,608.631 542.466,609.328 544.488,611.115L544.488,606.136C545.838,606.19 546.499,605.371 546.842,604.146C543.673,605.511 544.064,602.362 542.919,601.159C542.16,603.516 541.543,606.051 538.211,605.142ZM526.442,617.087C527.482,620.049 527.247,622.137 525.657,624.055C528.37,623.266 528.97,625.161 530.365,626.046C529.48,621.273 533.358,622.543 534.288,620.073C532.221,620.373 531.713,618.695 531.934,616.091C532.37,616.094 532.824,615.285 531.934,615.096C531.611,617.795 528.202,619.203 526.442,617.087Z" style="fill:rgb(194,42,32);"/>
        <path d="M483.289,547.408C482.728,545.794 486.989,545.794 486.428,547.408L483.289,547.408Z" style="fill:rgb(166,164,163);"/>
        <path d="M599.41,547.408C599.994,545.163 603.811,547.019 605.687,546.412C605.103,548.658 601.286,546.802 599.41,547.408Z" style="fill:rgb(95,50,47);"/>
        <path d="M584.503,548.403C585.338,546.144 589.436,548.024 591.564,547.408C590.73,549.667 586.63,547.787 584.503,548.403Z" style="fill:rgb(95,50,47);"/>
        <path d="M577.442,549.398C577.685,548.047 579.405,548.573 580.58,548.402C580.435,549.876 578.684,549.315 577.442,549.398Z" style="fill:rgb(95,50,47);"/>
        <path d="M647.27,548.403L647.27,554.375L646.488,554.375C646.939,552.625 645.537,548.526 647.27,548.403Z" style="fill:rgb(95,50,47);"/>
        <path d="M571.164,550.394C571.408,549.043 573.129,549.568 574.303,549.399C574.158,550.872 572.407,550.311 571.164,550.394Z" style="fill:rgb(95,50,47);"/>
        <path d="M644.917,552.384L644.917,556.367C644.077,563.595 642.403,569.767 640.209,575.279L626.872,575.279C626.773,573.08 623.544,574.856 622.164,574.283C619.741,574.038 617.729,573.274 615.888,572.292C615.309,570.186 616.876,570.954 617.455,570.302C617.769,569.949 617.922,568.574 618.241,568.311C618.526,568.075 619.603,568.63 619.809,568.311C619.885,568.194 619.712,567.373 619.809,567.315C620.094,567.145 621.192,567.605 621.379,567.315C621.961,566.412 622.795,565.773 623.732,565.324C624.009,565.192 625.128,565.593 625.3,565.324C625.373,565.214 625.209,564.38 625.3,564.329C625.583,564.172 626.689,564.61 626.871,564.329C626.946,564.212 626.772,563.392 626.871,563.333C627.156,563.162 628.252,563.623 628.438,563.333C628.962,562.52 629.04,562.645 630.009,562.338C629.978,562.347 632.307,561.427 632.363,561.343C632.971,560.398 634.239,560.563 636.284,559.351C636.816,559.038 637.408,557.676 637.855,557.361C638.142,557.158 639.227,557.667 639.423,557.361C639.512,557.225 639.311,556.448 639.423,556.366C639.71,556.152 640.792,556.677 640.993,556.366C641.62,555.394 641.716,555.11 642.56,554.373C643.393,553.652 643.949,552.904 644.917,552.384Z" style="fill:rgb(194,42,32);"/>
        <path d="M644.917,552.384C646.189,551.673 646.189,557.078 644.917,556.367L644.917,552.384Z" style="fill:rgb(95,50,47);"/>
        <path d="M646.488,554.375L647.27,554.375C647.138,555.865 647.55,558.05 646.488,558.357L646.488,554.375Z" style="fill:rgb(166,164,163);"/>
        <path d="M718.67,562.339C719.008,560.113 722.537,561.936 724.162,561.344L724.162,562.339L718.67,562.339Z" style="fill:rgb(166,164,163);"/>
        <rect x="724.162" y="561.344" width="13.34" height="0.995" style="fill:rgb(95,50,47);"/>
        <path d="M737.502,562.339L737.502,561.344C738.639,561.888 741.556,560.181 741.423,562.339L737.502,562.339Z" style="fill:rgb(166,164,163);"/>
        <path d="M709.254,563.334C709.593,561.108 713.121,562.932 714.747,562.339C714.409,564.564 710.88,562.742 709.254,563.334Z" style="fill:rgb(166,164,163);"/>
        <path d="M702.978,564.33C703.125,562.855 704.874,563.418 706.117,563.334C705.969,564.809 704.221,564.246 702.978,564.33Z" style="fill:rgb(166,164,163);"/>
        <path d="M496.628,565.325C496.773,563.851 498.523,564.412 499.765,564.33C499.62,565.803 497.869,565.242 496.628,565.325Z" style="fill:rgb(95,50,47);"/>
        <path d="M697.486,565.325C697.632,563.851 699.382,564.412 700.625,564.33C700.477,565.803 698.729,565.242 697.486,565.325Z" style="fill:rgb(166,164,163);"/>
        <path d="M491.135,566.32L491.135,565.324L494.273,565.324C494.127,566.799 492.377,566.237 491.135,566.32Z" style="fill:rgb(95,50,47);"/>
        <path d="M721.024,566.32C722.113,564.05 726.485,565.949 728.872,565.324C727.782,567.595 723.408,565.696 721.024,566.32Z" style="fill:rgb(95,50,47);"/>
        <path d="M728.871,565.325L733.577,565.325C734.162,567.57 737.978,565.715 739.854,566.321C744.37,567.23 749.082,567.885 750.839,572.293C750.608,574.323 748.716,574.246 748.485,576.275C745.256,576.826 743.41,579.128 739.853,579.262C738.713,579.806 735.798,578.098 735.93,580.257L728.083,580.257C726.704,580.83 723.474,579.054 723.376,581.253C720.845,580.551 720.633,582.535 719.452,584.239C718.001,586.336 716.545,589.341 714.745,592.203C714.078,593.262 713.094,593.98 712.392,595.189C710.924,597.71 709.76,600.691 708.467,603.152C708.1,603.854 707.267,604.506 706.899,605.143C706.308,606.164 706.159,607.502 705.33,609.124C705.047,609.677 704.592,608.97 704.546,610.12C704.535,610.339 704.628,610.931 704.546,611.116C704.254,611.756 703.224,612.54 702.976,613.107C702.816,613.471 703.217,614.847 702.976,615.098C701.075,617.072 698.789,624.844 697.484,629.033C695.423,635.657 693.481,642.562 693.563,649.937C692.496,650.246 692.91,652.43 692.777,653.918L692.777,658.895C691.501,660.095 691.828,665.316 691.993,668.849C692.064,670.425 691.608,672.646 692.777,672.83C692.432,677.372 693.319,681.52 694.345,684.776C694.456,685.13 694.129,686.543 694.345,686.767C694.433,686.858 695.087,686.648 695.13,686.767C695.256,687.126 694.906,688.526 695.13,688.758C695.223,688.853 695.869,688.633 695.914,688.758C696.05,689.118 695.685,690.51 695.914,690.748C696.012,690.851 696.643,690.616 696.698,690.748C696.849,691.112 696.461,692.494 696.698,692.74C696.791,692.835 697.436,692.616 697.483,692.74C697.619,693.101 697.254,694.493 697.483,694.731C697.876,695.137 700.912,696.973 699.054,697.717L692.776,697.717C692.531,696.448 690.815,696.783 689.636,696.722C684.682,696.467 677.323,696.467 672.375,696.722C671.132,696.785 669.384,696.257 669.236,697.717L662.961,697.717C661.335,698.309 657.808,696.487 657.469,698.713L652.76,698.713C651.38,699.285 648.153,697.509 648.053,699.708L644.131,699.708C642.991,700.252 640.075,698.544 640.206,700.703L636.282,700.703C635.042,700.786 633.291,700.225 633.146,701.699L629.221,701.699C628.08,702.242 625.166,700.536 625.297,702.695L621.376,702.695C619.996,703.267 616.765,701.491 616.666,703.691L611.959,703.691C610.083,704.296 606.268,702.441 605.684,704.686L590.776,704.686C590.908,702.527 587.993,704.235 586.852,703.691C582.741,702.937 578.765,702.006 575.869,699.709C575.735,697.217 577.073,696.592 578.223,695.728C579.862,694.491 581.171,692.832 582.145,690.75C583.176,690.399 583.38,688.998 584.499,688.76C586.659,686.856 588.49,684.533 589.99,681.792C591.132,679.109 592.516,677.496 593.914,674.824C594.205,674.269 594.651,674.982 594.7,673.828C594.734,672.977 595.888,671.623 596.267,670.841C596.937,669.463 598.893,665.479 599.406,662.878C599.521,662.293 599.22,661.439 599.406,660.888C599.582,660.367 600.872,659.294 600.975,658.897C601.384,657.335 601.393,654.751 601.76,652.924C602.482,649.342 603.667,645.372 603.327,640.979C604.393,640.671 603.979,638.486 604.112,636.998L604.112,633.017C605.868,632.588 604.431,628.111 604.896,626.049L604.896,619.081C606.599,619.248 605.252,615.551 605.682,614.103L605.682,610.122C606.745,609.814 606.333,607.63 606.466,606.14C607.431,595.422 610.503,587.372 612.743,578.269C613.441,577.496 614.514,577.2 615.882,577.274C616.809,578.42 618.653,578.4 620.589,578.269C620.457,580.428 623.372,578.72 624.512,579.265L632.359,579.265C632.954,580.91 638.824,580.91 639.42,579.265L649.621,579.265C651.494,578.659 655.312,580.515 655.895,578.269L659.034,578.269C660.278,578.187 662.027,578.748 662.173,577.274C675.461,575.551 686.9,571.481 699.835,569.311C701.077,569.228 702.828,569.789 702.973,568.315L705.327,568.315C706.569,568.232 708.32,568.794 708.465,567.319L712.39,567.319C713.529,566.775 716.446,568.483 716.311,566.324L721.019,566.324C723.408,565.696 727.782,567.595 728.871,565.325Z" style="fill:rgb(194,42,32);"/>
        <path d="M733.577,565.325C735.454,565.931 739.271,564.075 739.854,566.321C737.979,565.714 734.162,567.57 733.577,565.325Z" style="fill:rgb(95,50,47);"/>
        <path d="M712.395,567.315C712.26,565.157 715.176,566.864 716.316,566.32C716.45,568.479 713.533,566.771 712.395,567.315Z" style="fill:rgb(95,50,47);"/>
        <path d="M705.332,568.312C705.574,566.96 707.296,567.486 708.47,567.316C708.325,568.79 706.574,568.228 705.332,568.312Z" style="fill:rgb(95,50,47);"/>
        <path d="M699.84,569.307C700.084,567.954 701.805,568.481 702.978,568.311C702.833,569.785 701.082,569.224 699.84,569.307Z" style="fill:rgb(95,50,47);"/>
        <path d="M487.212,569.307C486.783,570.753 488.129,574.451 486.428,574.283C486.857,572.837 485.51,569.139 487.212,569.307Z" style="fill:rgb(166,164,163);"/>
        <path d="M675.517,570.302C675.664,568.828 677.413,569.389 678.656,569.307C678.508,570.781 676.76,570.22 675.517,570.302Z" style="fill:rgb(166,164,163);"/>
        <path d="M657.472,574.283C657.618,572.81 659.368,573.371 660.611,573.289C660.463,574.762 658.713,574.201 657.472,574.283Z" style="fill:rgb(166,164,163);"/>
        <path d="M622.164,574.283C623.544,574.856 626.773,573.08 626.872,575.279C625.492,574.707 622.262,576.482 622.164,574.283Z" style="fill:rgb(95,50,47);"/>
        <path d="M646.488,575.279C647.322,573.019 651.421,574.9 653.549,574.283L653.549,575.279L646.488,575.279Z" style="fill:rgb(166,164,163);"/>
        <path d="M653.548,575.279L653.548,574.283L657.472,574.283C657.604,576.441 654.688,574.734 653.548,575.279Z" style="fill:rgb(95,50,47);"/>
        <path d="M490.35,575.279C490.216,576.768 490.63,578.952 489.565,579.261C489.631,577.685 489.187,575.464 490.35,575.279Z" style="fill:rgb(95,50,47);"/>
        <path d="M659.039,578.265C659.282,576.914 661.005,577.439 662.178,577.27C662.032,578.744 660.283,578.184 659.039,578.265Z" style="fill:rgb(95,50,47);"/>
        <path d="M740.638,581.251C744.969,581.436 747.784,579.701 750.055,577.27C752.108,579.62 747.905,582.449 747.701,585.233C743.972,589.129 740.572,593.443 737.502,598.173C730.643,608.384 723.795,618.611 719.454,632.017C717.904,632.705 717.364,634.672 717.101,636.994C710.984,652.791 706.155,670.223 704.547,691.742C703.482,692.051 703.895,694.234 703.762,695.724L703.762,697.714C701.698,696.685 701.12,693.767 699.056,692.737C696.927,685.813 694.234,679.607 694.346,669.842L694.346,655.906C696.048,656.074 694.704,652.375 695.131,650.93C696.267,643.649 697.099,636.661 699.056,630.026C699.131,629.766 699.689,629.8 699.839,629.03C700.206,627.167 700.629,625.144 701.407,623.058C701.587,622.577 702.148,623.154 702.191,622.062C702.203,621.821 702.11,621.28 702.191,621.066C702.449,620.399 703.511,619.644 703.761,619.076C703.921,618.712 703.52,617.335 703.761,617.085C703.86,616.983 704.492,617.216 704.546,617.085C704.693,616.721 704.31,615.338 704.546,615.094C704.637,614.999 705.282,615.218 705.33,615.094C705.466,614.732 705.101,613.34 705.33,613.103C705.799,612.613 707.635,610.355 707.682,609.12C707.693,608.92 707.601,608.287 707.682,608.125C708.224,607.081 709.474,606.214 710.038,605.139C712.128,601.159 713.682,597.286 716.313,593.194C718.248,590.188 720.585,586.357 723.376,583.24C723.522,583.074 723.989,583.372 724.16,583.24C726.545,582.615 730.92,584.514 732.008,582.244L737.5,582.244C738.742,582.165 740.494,582.726 740.638,581.251Z" style="fill:rgb(194,42,32);"/>
        <path d="M512.319,578.265C513.969,579.659 512.835,582.723 513.103,585.234C513.271,586.8 514.556,588.647 513.888,590.211L523.304,590.211C521.422,594.129 517.245,595.134 514.673,598.174C514.363,602.881 514.925,606.481 515.458,610.119C513.206,607.335 510.047,605.702 508.396,602.156C505.415,603.683 503.188,606.165 499.765,607.134C500.695,603.336 502.638,600.823 503.687,597.179C504.117,595.134 502.583,595.054 502.119,594.193C501.337,592.743 500.942,591.041 499.765,589.215C499.49,588.789 499.293,588.813 498.981,588.22C498.717,587.719 498.987,587.016 498.195,587.224C498.723,585.306 502.536,587.854 503.687,588.22C505.154,588.685 505.897,588.231 506.826,589.215C509.378,586.479 510.595,582.051 512.319,578.265Z" style="fill:rgb(229,211,55);"/>
        <path d="M620.595,578.265C621.735,578.81 624.651,577.102 624.518,579.261C623.378,578.716 620.463,580.424 620.595,578.265Z" style="fill:rgb(95,50,47);"/>
        <path d="M649.626,579.261C650.21,577.016 654.027,578.871 655.9,578.265C655.318,580.511 651.499,578.655 649.626,579.261Z" style="fill:rgb(95,50,47);"/>
        <path d="M486.427,579.261C485.997,580.707 487.344,584.405 485.642,584.238C486.073,582.792 484.726,579.093 486.427,579.261Z" style="fill:rgb(166,164,163);"/>
        <path d="M632.365,579.261L639.426,579.261C638.829,580.906 632.959,580.906 632.365,579.261Z" style="fill:rgb(95,50,47);"/>
        <path d="M735.932,580.256C735.8,578.098 738.715,579.805 739.855,579.261C739.988,581.42 737.072,579.712 735.932,580.256Z" style="fill:rgb(95,50,47);"/>
        <path d="M723.378,581.251C723.476,579.053 726.706,580.829 728.085,580.255C727.988,582.455 724.757,580.679 723.378,581.251Z" style="fill:rgb(95,50,47);"/>
        <path d="M737.502,582.247C737.743,580.896 739.466,581.421 740.638,581.251C740.494,582.726 738.742,582.165 737.502,582.247Z" style="fill:rgb(95,50,47);"/>
        <path d="M544.489,582.247C545.999,584.263 547.646,584.561 549.981,583.243C549.773,584.558 548.507,584.798 548.411,586.228C548.374,586.791 548.92,588.792 549.196,588.22C548.41,589.85 545.203,589.666 544.489,593.197C542.715,592.794 544.902,587.364 541.351,589.215C542.68,587.252 545.303,586.932 544.489,582.247Z" style="fill:rgb(229,211,55);"/>
        <path d="M724.162,583.243C725.249,580.973 729.625,582.872 732.01,582.247C730.922,584.517 726.547,582.618 724.162,583.243Z" style="fill:rgb(95,50,47);"/>
        <path d="M489.566,583.243C489.432,584.732 489.846,586.917 488.781,587.224C488.847,585.648 488.404,583.427 489.566,583.243Z" style="fill:rgb(95,50,47);"/>
        <path d="M485.643,587.224C485.577,588.8 486.02,591.021 484.858,591.206C484.992,589.716 484.577,587.532 485.643,587.224Z" style="fill:rgb(166,164,163);"/>
        <path d="M542.919,601.159C544.065,602.362 543.673,605.511 546.842,604.146C546.499,605.371 545.838,606.19 544.488,606.136L544.488,611.115C542.466,609.328 540.717,608.631 539.78,612.11C537.43,611.455 540.53,609.983 539.78,608.128C539.271,607.115 537.977,607.099 538.211,605.142C541.543,606.051 542.16,603.516 542.919,601.159Z" style="fill:rgb(229,211,55);"/>
        <path d="M604.902,604.146C604.839,605.722 605.28,607.942 604.118,608.127C604.252,606.639 603.838,604.454 604.902,604.146Z" style="fill:rgb(95,50,47);"/>
        <path d="M606.472,606.136C606.339,607.626 606.751,609.811 605.688,610.118C605.753,608.543 605.311,606.323 606.472,606.136Z" style="fill:rgb(95,50,47);"/>
        <path d="M604.117,612.11C603.689,613.556 605.034,617.254 603.332,617.087C603.763,615.64 602.415,611.942 604.117,612.11Z" style="fill:rgb(95,50,47);"/>
        <path d="M605.688,614.1C605.258,615.547 606.605,619.245 604.902,619.078C605.331,617.631 603.986,613.933 605.688,614.1Z" style="fill:rgb(95,50,47);"/>
        <path d="M603.332,623.06C602.865,625.122 604.303,629.599 602.549,630.028C603.016,627.965 601.58,623.488 603.332,623.06Z" style="fill:rgb(95,50,47);"/>
        <path d="M604.902,626.046C604.437,628.108 605.874,632.585 604.118,633.014C604.585,630.951 603.148,626.474 604.902,626.046Z" style="fill:rgb(95,50,47);"/>
        <path d="M602.549,635.004C602.12,636.45 603.466,640.148 601.765,639.981C602.194,638.535 600.847,634.837 602.549,635.004Z" style="fill:rgb(95,50,47);"/>
        <path d="M604.117,636.995C603.984,638.484 604.398,640.668 603.332,640.976C603.4,639.401 602.956,637.18 604.117,636.995Z" style="fill:rgb(95,50,47);"/>
        <path d="M693.565,649.936C693.498,651.512 693.94,653.733 692.779,653.917C692.911,652.428 692.497,650.244 693.565,649.936Z" style="fill:rgb(95,50,47);"/>
        <path d="M695.132,650.931C694.705,652.376 696.049,656.076 694.347,655.907C694.778,654.462 693.43,650.764 695.132,650.931Z" style="fill:rgb(95,50,47);"/>
        <path d="M692.779,658.894L692.779,672.83C691.61,672.646 692.066,670.424 691.995,668.849C691.829,665.315 691.502,660.094 692.779,658.894Z" style="fill:rgb(95,50,47);"/>
        <path d="M694.347,661.88L694.347,669.843C693.053,669.402 693.053,662.323 694.347,661.88Z" style="fill:rgb(95,50,47);"/>
        <path d="M573.518,678.802C573.664,677.324 575.415,677.894 576.657,677.807C580.134,677.561 584.916,677.994 588.426,677.807C586.857,679.664 584.223,678.755 581.364,678.802C578.829,678.845 575.873,678.77 573.518,678.802Z" style="fill:rgb(95,50,47);"/>
        <path d="M549.98,679.798C551.324,677.52 555.969,679.433 558.61,678.802C557.268,681.08 552.621,679.167 549.98,679.798Z" style="fill:rgb(95,50,47);"/>
        <path d="M536.641,680.794C537.227,678.548 541.042,680.404 542.919,679.798C542.334,682.044 538.517,680.188 536.641,680.794Z" style="fill:rgb(95,50,47);"/>
        <path d="M527.226,681.789C527.094,679.63 530.009,681.338 531.149,680.794C531.282,682.952 528.367,681.245 527.226,681.789Z" style="fill:rgb(95,50,47);"/>
        <path d="M519.381,682.784C519.527,681.31 521.277,681.872 522.52,681.789C522.276,683.14 520.554,682.615 519.381,682.784Z" style="fill:rgb(95,50,47);"/>
        <path d="M573.518,682.784C574.088,680.974 576.853,681.789 579.01,681.789C581.169,681.789 583.934,680.974 584.503,682.784L573.518,682.784Z" style="fill:rgb(95,50,47);"/>
        <path d="M512.319,683.78C512.465,682.305 514.215,682.867 515.458,682.784C515.214,684.135 513.493,683.61 512.319,683.78Z" style="fill:rgb(95,50,47);"/>
        <path d="M552.334,683.78C552.201,681.622 555.117,683.329 556.257,682.784L572.734,682.784C572.211,684.716 569.843,683.729 568.811,683.78C563.086,684.063 557.173,683.563 552.334,683.78Z" style="fill:rgb(166,164,163);"/>
        <path d="M506.043,684.775C506.188,683.3 507.938,683.862 509.18,683.779C508.938,685.131 507.217,684.605 506.043,684.775Z" style="fill:rgb(95,50,47);"/>
        <path d="M533.504,684.775C533.842,682.549 537.371,684.372 538.997,683.779L538.997,684.775L533.504,684.775Z" style="fill:rgb(95,50,47);"/>
        <path d="M538.996,684.775L538.996,683.779L544.488,683.779C544.15,686.006 540.621,684.183 538.996,684.775Z" style="fill:rgb(166,164,163);"/>
        <path d="M524.873,685.771C524.741,683.612 527.656,685.32 528.796,684.776L528.796,685.771L524.873,685.771Z" style="fill:rgb(95,50,47);"/>
        <path d="M528.796,685.771L528.796,684.776L533.504,684.776C533.406,686.974 530.176,685.198 528.796,685.771Z" style="fill:rgb(166,164,163);"/>
        <path d="M517.812,686.766C517.957,685.292 519.708,685.853 520.95,685.77L520.95,686.766L517.812,686.766Z" style="fill:rgb(95,50,47);"/>
        <path d="M520.95,686.766L520.95,685.77L524.873,685.77C525.006,687.929 522.09,686.222 520.95,686.766Z" style="fill:rgb(166,164,163);"/>
        <path d="M513.888,687.761C513.756,685.603 516.671,687.31 517.812,686.766C517.944,688.924 515.029,687.217 513.888,687.761Z" style="fill:rgb(166,164,163);"/>
        <path d="M505.257,688.757C505.403,687.281 507.153,687.844 508.396,687.76L508.396,688.757L505.257,688.757Z" style="fill:rgb(95,50,47);"/>
        <path d="M508.396,688.757L508.396,687.76L511.535,687.76C511.388,689.236 509.638,688.673 508.396,688.757Z" style="fill:rgb(166,164,163);"/>
        <path d="M499.765,689.753C499.911,688.278 501.661,688.839 502.904,688.757C502.759,690.231 501.008,689.669 499.765,689.753Z" style="fill:rgb(95,50,47);"/>
        <path d="M496.628,690.747C496.773,689.273 498.523,689.835 499.765,689.753C499.62,691.226 497.869,690.665 496.628,690.747Z" style="fill:rgb(166,164,163);"/>
        <path d="M707.684,690.747L707.684,694.729L706.902,694.729C707.034,693.239 706.621,691.055 707.684,690.747Z" style="fill:rgb(95,50,47);"/>
        <path d="M704.548,691.743C704.482,693.319 704.925,695.541 703.763,695.725C703.896,694.235 703.483,692.052 704.548,691.743Z" style="fill:rgb(95,50,47);"/>
        <path d="M706.902,694.729L707.684,694.729C707.552,696.218 707.965,698.403 706.902,698.711L706.902,694.729Z" style="fill:rgb(166,164,163);"/>
        <path d="M669.24,697.715C669.387,696.255 671.136,696.784 672.379,696.72C677.326,696.465 684.686,696.465 689.64,696.72C690.819,696.781 692.535,696.446 692.78,697.715L669.24,697.715Z" style="fill:rgb(95,50,47);"/>
        <path d="M657.472,698.711C657.811,696.485 661.338,698.307 662.964,697.715C662.626,699.942 659.096,698.119 657.472,698.711Z" style="fill:rgb(95,50,47);"/>
        <path d="M648.056,699.707C648.156,697.508 651.383,699.284 652.763,698.712C652.667,700.911 649.435,699.134 648.056,699.707Z" style="fill:rgb(95,50,47);"/>
        <path d="M640.209,700.702C640.078,698.543 642.994,700.251 644.134,699.707C644.266,701.865 641.35,700.157 640.209,700.702Z" style="fill:rgb(95,50,47);"/>
        <path d="M633.15,701.697C633.295,700.224 635.046,700.784 636.286,700.701C636.044,702.053 634.323,701.528 633.15,701.697Z" style="fill:rgb(95,50,47);"/>
        <path d="M667.671,701.697C668.291,699.804 670.733,700.755 672.378,700.701C674.728,700.625 676.85,700.762 678.655,700.701L678.655,701.697L667.671,701.697Z" style="fill:rgb(95,50,47);"/>
        <rect x="678.656" y="700.701" width="5.491" height="0.996" style="fill:rgb(166,164,163);"/>
        <path d="M684.147,701.697L684.147,700.701C687.305,701.34 692.492,699.408 694.347,701.697L684.147,701.697Z" style="fill:rgb(95,50,47);"/>
        <path d="M625.301,702.693C625.17,700.535 628.084,702.241 629.225,701.697C629.358,703.855 626.442,702.149 625.301,702.693Z" style="fill:rgb(95,50,47);"/>
        <path d="M656.687,702.693C657.025,700.466 660.554,702.29 662.178,701.697L662.178,702.693L656.687,702.693Z" style="fill:rgb(95,50,47);"/>
        <path d="M662.178,702.693L662.178,701.697L667.671,701.697C667.332,703.923 663.804,702.1 662.178,702.693Z" style="fill:rgb(166,164,163);"/>
        <path d="M694.347,701.697L699.057,701.697L699.057,702.693C697.675,702.12 694.446,703.896 694.347,701.697Z" style="fill:rgb(166,164,163);"/>
        <path d="M699.057,702.693L699.057,701.697C700.229,701.867 701.951,701.342 702.193,702.693L699.057,702.693Z" style="fill:rgb(95,50,47);"/>
        <path d="M452.69,703.688C452.836,702.212 454.586,702.775 455.827,702.692C455.682,704.167 453.931,703.605 452.69,703.688Z" style="fill:rgb(166,164,163);"/>
        <path d="M616.67,703.688C616.769,701.489 620,703.265 621.38,702.692C621.281,704.892 618.052,703.115 616.67,703.688Z" style="fill:rgb(95,50,47);"/>
        <path d="M648.056,703.688C647.924,701.528 650.84,703.237 651.981,702.692L651.981,703.688L648.056,703.688Z" style="fill:rgb(95,50,47);"/>
        <path d="M651.981,703.688L651.981,702.692L656.687,702.692C656.588,704.892 653.359,703.115 651.981,703.688Z" style="fill:rgb(166,164,163);"/>
        <path d="M586.856,703.688C587.997,704.232 590.912,702.524 590.78,704.683C589.64,704.14 586.725,705.848 586.856,703.688Z" style="fill:rgb(95,50,47);"/>
        <path d="M605.688,704.684C606.272,702.439 610.087,704.294 611.963,703.689C611.38,705.933 607.562,704.077 605.688,704.684Z" style="fill:rgb(95,50,47);"/>
        <path d="M641.779,704.684C641.647,702.525 644.563,704.233 645.703,703.689C645.833,705.848 642.918,704.14 641.779,704.684Z" style="fill:rgb(166,164,163);"/>
        <path d="M630.793,705.678C630.662,703.521 633.577,705.229 634.718,704.684L634.718,705.678L630.793,705.678Z" style="fill:rgb(95,50,47);"/>
        <path d="M634.718,705.678L634.718,704.684L637.857,704.684C637.71,706.158 635.96,705.597 634.718,705.678Z" style="fill:rgb(166,164,163);"/>
        <path d="M622.948,706.675C622.817,704.516 625.732,706.223 626.873,705.678L626.873,706.675L622.948,706.675Z" style="fill:rgb(95,50,47);"/>
        <path d="M626.872,706.675L626.872,705.678L630.793,705.678C630.928,707.838 628.012,706.129 626.872,706.675Z" style="fill:rgb(166,164,163);"/>
        <path d="M615.102,707.669C615.201,705.472 618.43,707.248 619.81,706.675L619.81,707.669L615.102,707.669Z" style="fill:rgb(95,50,47);"/>
        <path d="M619.81,707.669L619.81,706.675L622.948,706.675C622.804,708.149 621.052,707.587 619.81,707.669Z" style="fill:rgb(166,164,163);"/>
        <path d="M592.348,708.665C590.969,708.093 587.74,709.868 587.641,707.669C589.02,708.242 592.251,706.467 592.348,708.665Z" style="fill:rgb(95,50,47);"/>
        <path d="M604.117,708.665C604.702,706.42 608.518,708.275 610.394,707.669L610.394,708.665L604.117,708.665Z" style="fill:rgb(95,50,47);"/>
        <path d="M610.395,708.665L610.395,707.669L615.102,707.669C615.003,709.868 611.775,708.093 610.395,708.665Z" style="fill:rgb(166,164,163);"/>
        <path d="M592.348,708.665L604.118,708.665C603.543,710.518 600.793,709.606 598.626,709.661C596.4,709.718 592.991,710.421 592.348,708.665Z" style="fill:rgb(166,164,163);"/>
        <path d="M415.028,836.079C414.894,837.567 415.309,839.752 414.244,840.059C414.377,838.57 413.964,836.387 415.028,836.079Z" style="fill:rgb(95,50,47);"/>
        <path d="M407.182,837.074C407.048,838.563 407.461,840.748 406.396,841.055C406.531,839.567 406.116,837.381 407.182,837.074Z" style="fill:rgb(166,164,163);"/>
        <path d="M485.643,563.334C486.956,564.654 488.271,565.971 491.135,565.325L491.135,566.321C488.147,566.793 486.237,565.897 485.643,563.334Z" style="fill:rgb(166,164,163);"/>
        <path d="M480.151,554.375C479.716,556.147 479.747,558.51 478.582,559.353C478.464,556.88 478.987,555.222 480.151,554.375Z" style="fill:rgb(166,164,163);"/>
        <path d="M469.167,597.178C468.732,598.95 468.764,601.312 467.597,602.155C467.48,599.684 468.002,598.025 469.167,597.178Z" style="fill:rgb(166,164,163);"/>
        <path d="M436.213,725.586C435.778,727.359 435.809,729.721 434.644,730.565C434.526,728.094 435.049,726.434 436.213,725.586Z" style="fill:rgb(166,164,163);"/>
        <path d="M415.812,804.225C415.697,801.757 415.666,799.394 417.382,799.248C416.027,799.852 417.442,803.971 415.812,804.225Z" style="fill:rgb(166,164,163);"/>
        <path d="M647.27,548.403C647.893,544.961 646.399,544.201 645.703,542.43C647.238,542.568 649.425,546.872 647.27,548.403Z" style="fill:rgb(166,164,163);"/>
        <path d="M621.38,540.439L626.087,540.439C627.272,542.2 630.492,541.489 633.15,541.435C635.715,541.382 638.31,542.296 639.425,540.439L640.995,540.439C641.788,542.087 644.327,541.521 645.702,542.43C646.398,544.201 647.892,544.96 647.269,548.403C645.537,548.527 646.938,552.625 646.487,554.375L646.487,558.357C645.471,563.708 644.431,569.022 642.562,573.29C641.8,573.317 641.955,574.507 641.778,575.28C642.323,576.059 646.156,577.495 646.487,575.28L653.548,575.28C654.688,574.735 657.604,576.442 657.472,574.284C658.713,574.202 660.463,574.763 660.611,573.29C666.489,573.449 670.276,570.954 675.517,570.303C676.76,570.22 678.508,570.782 678.656,569.308C685.359,568.522 691.249,566.704 697.486,565.326C698.729,565.243 700.477,565.805 700.625,564.331L702.979,564.331C704.222,564.247 705.97,564.81 706.118,563.335L709.256,563.335C710.882,562.743 714.411,564.565 714.749,562.34L741.425,562.34C746.577,563.36 751.241,564.803 753.981,569.308C754.107,569.516 753.879,570.069 753.981,570.303C754.882,571.479 754.867,573.822 754.763,576.275C754.293,581.649 751.406,583.958 750.057,588.22C746.067,592.449 742.406,597.095 739.073,602.156C737.431,603.392 736.122,605.051 735.148,607.134C735.001,607.94 734.363,608.126 734.366,609.124C731.321,614.553 727.742,619.303 725.735,626.047C724.123,626.324 724.169,628.705 723.381,630.028C715.87,647.376 710.358,667.258 707.687,690.748C706.624,691.056 707.038,693.24 706.905,694.73L706.905,698.712C706.866,703.621 705.298,703.625 702.196,702.693C701.954,701.342 700.232,701.868 699.06,701.697L694.35,701.697C692.495,699.408 687.308,701.34 684.15,700.701L678.659,700.701C676.853,700.762 674.731,700.625 672.382,700.701C670.736,700.754 668.295,699.804 667.675,701.697L662.182,701.697C660.558,702.29 657.029,700.466 656.691,702.693L651.985,702.693C650.844,703.237 647.928,701.529 648.06,703.689L645.706,703.689C644.566,704.233 641.65,702.525 641.782,704.684L634.721,704.684C633.58,705.229 630.665,703.521 630.796,705.678L626.875,705.678C625.734,706.223 622.819,704.516 622.95,706.675L619.812,706.675C618.432,707.248 615.203,705.472 615.104,707.669L610.397,707.669C608.521,708.275 604.705,706.42 604.12,708.665L592.35,708.665C592.253,706.467 589.022,708.242 587.643,707.669C584.153,708.098 581.661,706.791 579.012,705.678C576.77,704.737 574.373,703.877 572.736,701.698C571.278,699.939 573.076,698.792 573.52,696.721C576.202,694.151 578.558,691.166 580.582,687.761C582.222,686.525 583.531,684.867 584.505,682.784C583.936,680.974 581.171,681.789 579.012,681.789C576.855,681.789 574.09,680.974 573.52,682.784L556.259,682.784C555.119,683.329 552.203,681.622 552.336,683.78L538.998,683.78C537.372,684.372 533.844,682.55 533.505,684.776L528.797,684.776C527.656,685.32 524.741,683.612 524.874,685.771L520.951,685.771C519.708,685.854 517.958,685.292 517.813,686.767C516.672,687.311 513.757,685.604 513.889,687.762L508.397,687.762C507.154,687.845 505.404,687.283 505.258,688.759L502.905,688.759C501.662,688.841 499.912,688.28 499.766,689.755C498.524,689.837 496.773,689.276 496.629,690.749C481.51,692.805 468.607,697.67 455.828,702.695C454.587,702.778 452.837,702.215 452.691,703.691C452.168,704.554 450.396,704.273 450.337,705.68C450.282,707.002 449.259,706.002 448.767,706.677C447.72,708.118 447.621,709.201 447.199,710.656C446.802,712.025 446.92,713.575 446.413,715.635C446.334,715.957 445.669,715.668 445.629,716.63C445.613,717.009 445.362,721.07 444.844,721.608C443.723,722.773 445.239,722.064 444.844,723.6C444.717,724.096 443.419,724.209 443.275,724.595C442.971,725.412 443.547,726.741 443.275,727.579C443.136,728.013 442.534,727.525 442.491,728.573C442.427,730.13 442.021,730.351 441.707,731.561C441.267,733.258 441.286,734.751 440.922,736.54C440.872,736.784 440.175,736.629 440.138,737.533C439.975,741.439 438.907,742.933 437.784,746.493C437.672,746.846 438,748.259 437.784,748.484C437.269,749.016 436.747,750.902 436.216,753.461C435.876,755.094 435.783,756.974 435.431,758.437C435.348,758.778 435.629,760.223 435.431,760.429C434.688,761.2 434.27,761.159 433.861,762.42C432.592,766.338 432.001,770.775 430.723,775.36C429.272,775.508 430.241,778.731 429.154,779.342C427.144,791.392 423.164,800.942 421.307,813.186C419.678,813.44 421.093,817.559 419.739,818.163L419.739,819.158C418.573,820.002 418.603,822.363 418.17,824.137C417.559,826.349 416.522,828.018 416.601,831.103C414.972,831.36 416.386,835.478 415.032,836.082C413.968,836.39 414.381,838.573 414.248,840.062C412.833,841.874 413.171,844.882 412.678,847.03C412.653,847.141 412.021,847.378 411.893,848.026C411.459,850.226 411.107,849.9 411.109,853.003C409.844,855.049 407.174,855.314 404.047,854.994L404.047,848.026C405.947,847.119 406.125,844.025 406.4,841.058C407.465,840.75 407.051,838.566 407.186,837.077C409.041,832.02 410.478,826.526 411.894,821.15C412.347,819.427 412.226,817.656 412.679,816.173C412.804,815.764 413.421,816.21 413.463,815.177C413.474,814.911 413.386,814.426 413.463,814.181C414.058,812.296 415.564,808.17 415.817,804.227C417.446,803.973 416.032,799.854 417.387,799.25C418.099,796.17 419.008,793.168 419.741,790.292C420.329,787.978 420.663,785.377 421.309,783.323C421.594,782.421 422.954,777.61 423.664,775.36C423.775,775.005 423.447,773.592 423.664,773.369C424.74,772.251 425.227,767.566 426.017,764.411C426.365,763.017 427.217,761.812 427.586,760.429C427.973,758.976 427.975,756.97 428.37,755.451C430.237,748.278 433.144,739.615 434.648,730.566C435.813,729.722 435.782,727.361 436.217,725.587C437.98,720.658 438.87,715.106 440.14,708.666C440.353,707.578 442.178,704.905 440.924,702.694C440.623,699.326 444.397,701.127 443.277,696.722C445.429,697.641 443.043,692.803 444.063,691.744C446.191,689.535 447.396,682.169 448.77,676.813C450.4,676.557 448.985,672.439 450.34,671.836C450.812,669.216 451.187,667.162 451.909,664.867C452.021,664.513 451.693,663.101 451.909,662.876C452.518,662.244 452.994,660.507 453.479,657.899C453.634,657.065 454.151,656.908 454.263,655.907C454.225,656.248 453.025,655.374 453.479,654.913C453.553,654.837 454.239,655.008 454.263,654.913C455.629,649.687 457.901,644.717 458.186,636.995C459.328,635.115 459.931,633.86 460.541,631.022C460.612,630.689 460.349,629.23 460.541,629.031C461.055,628.497 461.578,626.611 462.11,624.055C462.641,621.499 462.658,619.089 463.68,617.087C463.96,616.535 464.416,617.242 464.464,616.091C464.48,615.713 464.731,611.651 465.248,611.114C466.269,610.053 467.266,605.644 467.602,602.155C468.769,601.312 468.737,598.95 469.172,597.178C469.81,593.202 471.48,589.445 472.31,585.234C472.645,583.528 472.234,581.394 473.095,579.261C473.315,578.713 474.521,577.721 474.664,577.27C474.842,576.704 474.546,575.874 474.664,575.279C474.837,574.402 475.196,573.573 475.448,572.292C475.592,571.564 478.571,564.691 476.232,562.338C476.672,560.904 477.456,559.909 478.586,559.351C479.752,558.508 479.721,556.146 480.155,554.373C481.788,552.796 479.679,546.47 483.293,547.406L486.432,547.406C489.188,547.95 487.691,553.179 487.216,555.369C485.765,555.518 486.735,558.739 485.647,559.35L485.647,563.332C486.241,565.895 488.151,566.791 491.139,566.318C492.381,566.235 494.131,566.797 494.277,565.322L496.632,565.322C497.873,565.239 499.624,565.801 499.769,564.327C523.801,559.314 545.389,551.198 569.599,546.409C570.842,546.326 572.593,546.888 572.738,545.413L578.231,545.413C579.472,545.33 581.222,545.892 581.369,544.417L585.291,544.417C587.169,543.811 590.983,545.667 591.568,543.422L600.2,543.422C601.58,542.849 604.809,544.625 604.906,542.426L609.615,542.426C611.241,541.834 614.768,543.656 615.106,541.431C616.98,540.829 620.796,542.684 621.38,540.439ZM626.872,575.279L640.209,575.279C642.403,569.767 644.077,563.595 644.917,556.367C646.189,557.078 646.189,551.673 644.917,552.384C643.949,552.904 643.393,553.652 642.563,554.374C641.718,555.111 641.623,555.395 640.996,556.367C640.795,556.678 639.713,556.153 639.426,556.367C639.314,556.449 639.515,557.226 639.426,557.362C639.23,557.668 638.145,557.159 637.858,557.362C637.411,557.677 636.819,559.039 636.287,559.352C634.242,560.563 632.974,560.398 632.366,561.344C632.31,561.428 629.981,562.348 630.012,562.339C629.042,562.647 628.965,562.521 628.441,563.334C628.254,563.624 627.159,563.163 626.874,563.334C626.775,563.393 626.949,564.213 626.874,564.33C626.691,564.611 625.586,564.173 625.303,564.33C625.212,564.381 625.376,565.215 625.303,565.325C625.131,565.594 624.012,565.193 623.735,565.325C622.798,565.774 621.964,566.413 621.382,567.316C621.194,567.606 620.097,567.146 619.812,567.316C619.715,567.375 619.888,568.195 619.812,568.312C619.606,568.631 618.529,568.076 618.244,568.312C617.925,568.575 617.772,569.95 617.458,570.303C616.879,570.955 615.312,570.187 615.891,572.293C617.733,573.275 619.745,574.039 622.167,574.284C622.262,576.482 625.492,574.707 626.872,575.279ZM487.212,569.307C487.123,568.092 486.977,566.95 485.643,567.315C482.839,567.81 483.243,571.802 482.505,574.283C481.69,577.025 480.94,580.261 480.151,583.242C478.944,587.799 476.398,595.063 476.227,599.169C476.187,600.14 475.526,599.834 475.443,600.165C474.64,603.371 474.117,608.058 473.09,609.123C472.873,609.348 473.202,610.76 473.09,611.115C472.336,613.504 471.104,617.909 470.736,619.078C470.087,621.138 469.729,623.922 469.168,626.046C467.16,633.626 465.364,641.227 463.676,647.944C463.369,649.163 462.955,649.371 462.89,650.931C462.849,651.914 462.196,651.579 462.106,651.926C461.304,655.002 460.864,659.73 459.752,660.885C459.536,661.109 459.863,662.522 459.752,662.875C459.043,665.127 457.683,669.937 457.398,670.838C457.32,671.082 457.409,671.569 457.398,671.834C457.356,672.832 456.713,672.463 456.613,672.829C455.667,676.288 455.441,681.557 454.259,682.783C454.058,682.991 454.275,685.394 454.259,685.77C454.219,686.745 453.56,686.43 453.475,686.766C452.261,691.548 450.832,695.164 450.336,699.706C450.24,700.59 449.104,702.949 451.121,702.692C451.382,701.695 452.167,701.365 452.69,700.701C453.401,699.796 453.666,698.822 454.258,697.715C455.184,695.989 456.558,694.037 456.612,692.738C456.673,691.262 457.792,689.67 458.18,688.757C458.977,686.885 460.473,685.276 460.535,683.779C460.579,682.681 461.131,683.273 461.319,682.783C461.867,681.354 461.548,680.174 462.104,678.802C462.323,678.258 463.417,677.446 463.674,676.812C464.239,675.409 463.931,674.214 464.458,672.83C464.492,672.741 465.071,672.177 465.242,671.835C465.557,671.208 465.82,670.459 466.027,669.844C466.442,668.613 466.263,667.434 466.811,665.863C466.982,665.373 468.145,664.454 468.38,663.872C468.948,662.467 468.673,661.297 469.166,659.89C476.213,639.75 482.703,615.549 484.857,591.206C486.019,591.021 485.576,588.8 485.642,587.224L485.642,584.238C487.343,584.405 485.997,580.708 486.427,579.261L486.427,574.283C488.128,574.451 486.782,570.753 487.212,569.307ZM623.733,545.417L617.456,545.417C615.58,546.023 611.766,544.167 611.181,546.413L605.689,546.413C603.813,547.019 599.996,545.163 599.412,547.409L591.565,547.409C589.437,548.025 585.339,546.145 584.504,548.404L580.581,548.404C579.406,548.574 577.685,548.049 577.443,549.4L574.304,549.4C573.131,549.569 571.409,549.044 571.165,550.395C543.244,555.782 518.906,565.718 490.352,570.304L490.352,575.281C489.189,575.466 489.633,577.687 489.567,579.263L489.567,583.244C488.405,583.428 488.848,585.649 488.782,587.225C485.462,624.488 475.763,653.659 465.244,681.79C463.633,682.067 463.679,684.448 462.89,685.771C462.591,688.168 461.051,691.762 460.537,692.739C460.044,693.677 458.748,696.718 460.537,696.721C461.719,695.245 463.797,695.25 465.244,694.73C470.622,692.795 479.147,690.071 483.29,688.758C483.784,688.601 484.363,688.899 484.859,688.758C487.772,687.927 490.299,687.431 493.49,686.767C497.568,685.917 501.677,684.583 506.044,684.776C507.217,684.606 508.939,685.131 509.181,683.78L512.32,683.78C513.494,683.611 515.215,684.135 515.459,682.784L519.382,682.784C520.556,682.615 522.277,683.14 522.521,681.789L527.228,681.789C528.369,681.245 531.284,682.952 531.151,680.794L536.643,680.794C538.519,680.188 542.336,682.044 542.921,679.798L549.983,679.798C552.624,679.168 557.271,681.08 558.613,678.802L573.52,678.802C575.875,678.769 578.831,678.845 581.367,678.802C584.225,678.755 586.859,679.664 588.429,677.807L589.215,677.807C590.597,676.908 591.643,675.581 592.351,673.826C597.213,664.731 600.227,653.291 601.768,639.982C603.469,640.149 602.123,636.451 602.552,635.005L602.552,630.028C604.306,629.599 602.868,625.122 603.335,623.06L603.335,617.087C605.037,617.254 603.692,613.556 604.12,612.11L604.12,608.128C605.282,607.942 604.841,605.722 604.904,604.147C604.38,601.236 605.327,599.545 605.69,599.17C605.889,598.962 605.673,596.558 605.69,596.184C605.725,595.295 606.432,595.413 606.474,595.188C607.137,591.754 607.157,588.297 608.044,585.234C608.011,585.346 608.726,584.441 608.826,584.238C609.752,582.401 610.311,581.275 610.396,579.261C610.438,578.282 611.093,578.605 611.181,578.265C612.067,574.813 611.492,572.24 612.75,568.311C618.949,561.35 630.617,557.793 637.857,552.384C640.339,550.529 644.942,549.105 643.349,545.416L641.779,545.416C640.436,543.138 635.792,545.051 633.15,544.42C630.249,545.056 625.332,543.132 623.733,545.417ZM721.024,566.32L716.316,566.32C715.176,566.864 712.26,565.157 712.395,567.315L708.47,567.315C707.296,567.485 705.574,566.96 705.332,568.311L702.978,568.311C701.805,568.481 700.084,567.954 699.84,569.307C686.904,571.477 675.466,575.548 662.178,577.27C661.005,577.439 659.282,576.914 659.039,578.265L655.9,578.265C654.027,578.871 650.21,577.016 649.626,579.261L624.517,579.261C624.65,577.102 621.734,578.81 620.594,578.265C618.658,578.397 616.814,578.416 615.887,577.27C615.672,574.925 612.411,576.662 612.748,578.265C610.508,587.368 607.435,595.418 606.471,606.136C605.31,606.323 605.752,608.543 605.687,610.118L605.687,614.099C603.985,613.932 605.331,617.63 604.901,619.077L604.901,626.045C603.147,626.473 604.585,630.95 604.117,633.013L604.117,636.994C602.956,637.179 603.399,639.4 603.332,640.975C603.672,645.368 602.486,649.338 601.765,652.92C601.398,654.747 601.389,657.331 600.98,658.893C600.876,659.29 599.586,660.363 599.411,660.884C599.225,661.435 599.526,662.289 599.411,662.874C598.898,665.476 596.942,669.459 596.272,670.837C595.892,671.619 594.739,672.973 594.705,673.824C594.656,674.977 594.21,674.264 593.919,674.82C592.522,677.492 591.137,679.105 589.995,681.788C587.835,683.692 586.005,686.014 584.504,688.756C583.385,688.994 583.181,690.395 582.15,690.746C580.509,691.982 579.202,693.642 578.228,695.724C577.078,696.589 575.74,697.214 575.874,699.705C578.77,702.002 582.746,702.933 586.857,703.687C586.726,705.846 589.641,704.138 590.781,704.682L605.689,704.682C607.563,704.076 611.381,705.931 611.964,703.687L616.671,703.687C618.053,703.114 621.281,704.891 621.381,702.691L625.302,702.691C626.443,702.147 629.359,703.854 629.226,701.695L633.151,701.695C634.324,701.526 636.046,702.05 636.287,700.699L640.211,700.699C641.352,700.155 644.268,701.862 644.136,699.704L648.058,699.704C649.437,699.131 652.669,700.908 652.765,698.709L657.474,698.709C659.098,698.117 662.628,699.939 662.966,697.713L699.058,697.713C700.915,696.969 697.879,695.133 697.487,694.727C697.258,694.49 697.623,693.097 697.487,692.736C697.44,692.612 696.795,692.831 696.702,692.736C696.465,692.49 696.853,691.109 696.702,690.744C696.647,690.612 696.015,690.847 695.918,690.744C695.689,690.507 696.054,689.115 695.918,688.754C695.873,688.629 695.227,688.849 695.134,688.754C694.91,688.522 695.26,687.122 695.134,686.763C695.091,686.644 694.437,686.854 694.349,686.763C694.133,686.539 694.46,685.127 694.349,684.772C693.323,681.516 692.436,677.368 692.781,672.826L692.781,653.913C693.942,653.728 693.5,651.508 693.567,649.932C693.485,642.557 695.427,635.652 697.488,629.028C698.794,624.839 701.079,617.067 702.98,615.093C703.221,614.843 702.82,613.467 702.98,613.102C703.228,612.535 704.258,611.751 704.55,611.111C704.632,610.925 704.539,610.334 704.55,610.115C704.596,608.965 705.051,609.672 705.334,609.119C706.163,607.497 706.313,606.159 706.903,605.138C707.271,604.501 708.104,603.848 708.471,603.147C709.764,600.687 710.928,597.705 712.396,595.184C713.097,593.976 714.082,593.257 714.749,592.198C716.549,589.336 718.005,586.331 719.456,584.234C720.637,582.53 720.849,580.546 723.38,581.248C724.759,580.675 727.989,582.452 728.087,580.252L735.934,580.252C737.074,579.708 739.99,581.416 739.857,579.257C743.414,579.123 745.259,576.821 748.489,576.27C749.355,575.597 752.558,572.962 750.843,572.288C749.085,567.88 744.373,567.225 739.858,566.316C739.275,564.07 735.458,565.927 733.581,565.32L728.875,565.32C726.485,565.949 722.113,564.051 721.024,566.32ZM747.701,585.234C747.904,582.449 752.107,579.62 750.055,577.271C747.784,579.702 744.969,581.437 740.638,581.252C739.466,581.421 737.743,580.897 737.502,582.248L732.01,582.248C729.625,582.873 725.249,580.974 724.162,583.244C723.991,583.376 723.523,583.078 723.378,583.244C720.588,586.36 718.25,590.192 716.315,593.198C713.683,597.291 712.129,601.163 710.04,605.143C709.476,606.218 708.226,607.085 707.684,608.129C707.603,608.291 707.695,608.924 707.684,609.124C707.637,610.359 705.801,612.617 705.332,613.107C705.103,613.344 705.468,614.736 705.332,615.098C705.284,615.222 704.639,615.003 704.548,615.098C704.312,615.342 704.695,616.725 704.548,617.089C704.494,617.22 703.861,616.987 703.763,617.089C703.522,617.339 703.923,618.715 703.763,619.08C703.513,619.648 702.45,620.403 702.193,621.07C702.112,621.284 702.205,621.825 702.193,622.066C702.15,623.157 701.589,622.58 701.409,623.062C700.631,625.147 700.208,627.171 699.841,629.034C699.691,629.805 699.133,629.77 699.058,630.03C697.101,636.665 696.269,643.653 695.133,650.934C693.431,650.767 694.779,654.465 694.348,655.91L694.348,661.883C693.054,662.325 693.054,669.404 694.348,669.846C694.236,679.611 696.929,685.817 699.058,692.741C699.496,694.174 700.28,695.17 701.41,695.727C701.642,696.611 703.534,700.084 703.764,697.717L703.764,695.727C704.926,695.542 704.483,693.321 704.549,691.745C706.156,670.227 710.986,652.795 717.103,636.997C718.481,636.091 718.537,633.509 719.456,632.02C723.797,618.614 730.644,608.387 737.504,598.176C741.229,594.276 744.628,589.962 747.701,585.234Z" style="fill:rgb(20,16,14);"/>
        <path d="M646.488,575.279C646.157,577.494 642.324,576.058 641.779,575.279C641.956,574.506 641.801,573.316 642.563,573.289C641.758,576.633 645.004,574.838 646.488,575.279Z" style="fill:rgb(95,50,47);"/>
        <path d="M753.979,570.302C754.614,570.491 754.759,571.301 755.547,571.297L755.547,576.275L754.761,576.275C754.865,573.821 754.88,571.479 753.979,570.302Z" style="fill:rgb(95,50,47);"/>
        <path d="M739.071,602.155C742.404,597.094 746.065,592.448 750.055,588.219C746.721,593.281 743.06,597.925 739.071,602.155Z" style="fill:rgb(166,164,163);"/>
        <path d="M735.146,607.133C736.12,605.05 737.429,603.391 739.071,602.155C738.793,603.463 737.689,603.721 737.503,605.141C736.471,605.494 736.267,606.894 735.146,607.133Z" style="fill:rgb(95,50,47);"/>
        <path d="M734.364,609.123C734.361,608.125 734.999,607.939 735.146,607.133C736.267,606.894 736.471,605.494 737.502,605.142C736.793,606.897 735.745,608.224 734.364,609.123Z" style="fill:rgb(166,164,163);"/>
        <path d="M573.518,695.725C575.941,693.489 578.033,690.834 579.795,687.761L580.58,687.761C578.556,691.166 576.2,694.151 573.518,696.721L573.518,695.725Z" style="fill:rgb(95,50,47);"/>
        <path d="M580.58,687.761C581.111,685.449 583.187,685.097 583.719,682.784L584.503,682.784C583.529,684.867 582.22,686.524 580.58,687.761Z" style="fill:rgb(166,164,163);"/>
        <path d="M430.72,775.358C430.939,777.628 430.531,779.1 429.151,779.34C430.239,778.729 429.27,775.507 430.72,775.358Z" style="fill:rgb(95,50,47);"/>
        <path d="M419.736,818.161C421.09,817.557 419.675,813.438 421.304,813.184C421.42,815.653 421.45,818.015 419.736,818.161Z" style="fill:rgb(166,164,163);"/>
        <path d="M404.044,854.991C407.171,855.31 409.841,855.046 411.106,853C410.828,854.308 409.725,854.567 409.536,855.986C407.91,855.395 404.382,857.217 404.044,854.991Z" style="fill:rgb(95,50,47);"/>
        <path d="M448.765,676.812C448.65,674.343 448.619,671.98 450.335,671.835C448.981,672.438 450.395,676.556 448.765,676.812Z" style="fill:rgb(95,50,47);"/>
        <path d="M487.212,555.371C487.431,557.64 487.024,559.113 485.643,559.352C486.731,558.741 485.761,555.521 487.212,555.371Z" style="fill:rgb(95,50,47);"/>
        <path d="M462.889,685.771C463.677,684.448 463.631,682.067 465.243,681.79C464.455,683.112 464.501,685.493 462.889,685.771Z" style="fill:rgb(95,50,47);"/>
        <path d="M589.212,677.807C589.92,676.052 590.964,674.725 592.348,673.826C591.64,675.581 590.594,676.908 589.212,677.807Z" style="fill:rgb(95,50,47);"/>
        <path d="M612.749,578.265C612.412,576.662 615.673,574.925 615.888,577.27C614.52,577.196 613.448,577.492 612.749,578.265Z" style="fill:rgb(95,50,47);"/>
        <path d="M584.503,688.757C586.004,686.015 587.834,683.693 589.994,681.789C588.494,684.53 586.663,686.854 584.503,688.757Z" style="fill:rgb(95,50,47);"/>
        <path d="M578.227,695.725C579.201,693.643 580.508,691.983 582.149,690.747C581.175,692.83 579.866,694.488 578.227,695.725Z" style="fill:rgb(95,50,47);"/>
        <path d="M748.487,576.274C748.717,574.245 750.609,574.322 750.841,572.292C752.556,572.966 749.353,575.601 748.487,576.274Z" style="fill:rgb(95,50,47);"/>
        <path d="M539.78,571.297C541.304,571.006 537.652,578.028 542.134,576.275C541.618,577.611 540.458,578.129 538.997,578.266C537.545,578.416 538.515,581.637 537.427,582.248C536.694,581.518 536.238,580.438 535.858,579.262C535.16,580.035 534.086,580.332 532.719,580.257C532.964,578.483 536.869,576.358 534.289,574.284C534.864,572.512 535.716,574.141 536.642,574.284C538.606,574.453 539.098,572.754 539.78,571.297Z" style="fill:rgb(229,211,55);"/>
        <path d="M699.057,692.739C701.121,693.768 701.699,696.686 703.763,697.716C703.533,700.083 701.641,696.61 701.409,695.726C700.279,695.168 699.494,694.172 699.057,692.739Z" style="fill:rgb(95,50,47);"/>
        <path d="M719.454,632.018C718.535,633.507 718.479,636.089 717.101,636.995C717.365,634.673 717.905,632.706 719.454,632.018Z" style="fill:rgb(95,50,47);"/>
        <path d="M737.502,598.174C740.572,593.445 743.973,589.131 747.701,585.234C744.628,589.962 741.229,594.276 737.502,598.174Z" style="fill:rgb(95,50,47);"/>
        <path d="M415.028,836.079C416.382,835.475 414.968,831.357 416.597,831.1C416.713,833.57 416.744,835.933 415.028,836.079Z" style="fill:rgb(166,164,163);"/>
        <path d="M418.167,824.135C418.601,822.362 418.57,820 419.736,819.156C419.854,821.63 419.33,823.288 418.167,824.135Z" style="fill:rgb(166,164,163);"/>
        <path d="M573.518,695.725C575.281,692.652 577.373,689.997 579.795,687.761C578.033,690.834 575.941,693.489 573.518,695.725Z" style="fill:rgb(166,164,163);"/>
        <path d="M723.378,630.027C724.166,628.703 724.12,626.322 725.732,626.046C725.325,627.518 724.572,628.554 724.162,630.027L723.378,630.027Z" style="fill:rgb(166,164,163);"/>
        <path d="M531.934,615.096C532.824,615.285 532.37,616.094 531.934,616.091C531.713,618.695 532.221,620.373 534.288,620.073C533.357,622.542 529.48,621.273 530.365,626.046C528.969,625.162 528.37,623.267 525.657,624.055C527.247,622.137 527.482,620.049 526.442,617.087C528.202,619.203 531.611,617.795 531.934,615.096Z" style="fill:rgb(229,211,55);"/>
    </g>
</svg>
