<?xml version="1.0" encoding="UTF-8" standalone="no"?>
<!DOCTYPE svg PUBLIC "-//W3C//DTD SVG 1.1//EN" "http://www.w3.org/Graphics/SVG/1.1/DTD/svg11.dtd">
<svg width="100%" height="100%" viewBox="0 0 1163 1409" version="1.1" xmlns="http://www.w3.org/2000/svg" xmlns:xlink="http://www.w3.org/1999/xlink" xml:space="preserve" xmlns:serif="http://www.serif.com/" style="fill-rule:evenodd;clip-rule:evenodd;stroke-miterlimit:10;">
    <g id="生态2_1_">
        <g>
            <path d="M575.472,483.188L587.47,483.188C588.009,484.66 591.719,483.763 594.219,483.938C604.3,484.637 616.494,486.247 626.465,488.438C629.876,489.188 632.736,489.63 636.964,490.688C637.667,490.864 638.842,491.098 639.964,491.438C640.393,491.568 642.349,492.542 643.713,492.938C645.877,493.565 647.657,493.772 649.712,494.438C650.829,494.799 652.717,495.339 654.212,495.938C654.688,496.127 654.801,496.626 654.962,496.688C656.671,497.327 658.642,497.547 660.211,498.188C660.533,498.32 660.171,498.895 660.961,498.938C661.159,498.948 661.526,498.865 661.711,498.938C662.675,499.323 665.318,500.532 666.96,501.188C667.473,501.392 667.503,501.852 667.71,501.938C668.8,502.384 669.616,502.167 670.71,502.688C671.072,502.861 670.637,503.395 671.46,503.438C672.116,503.472 673.449,504.293 674.459,504.938C674.738,505.117 675.109,505.637 675.209,505.688C676.237,506.21 677.152,505.897 678.209,506.438C678.682,506.679 679.305,507.734 679.709,507.938C680.749,508.46 681.63,508.163 682.708,508.688C683.077,508.867 682.631,509.393 683.458,509.438C684.115,509.472 685.448,510.294 686.458,510.938C687.309,511.479 688.021,511.779 688.707,512.438C689.372,513.075 690.889,513.077 692.457,513.938C692.773,514.113 692.939,515.318 693.207,515.438C693.601,515.615 694.342,515.213 694.707,515.438C695.003,515.62 695.202,516.823 695.457,516.938C695.853,517.118 696.583,516.717 696.956,516.938C697.471,517.241 697.999,518.147 698.456,518.438C702.277,520.872 705.865,523.073 709.705,525.936C710.129,526.252 709.58,526.64 710.455,526.686C710.645,526.697 711.737,527.274 711.954,527.436C712.202,527.624 712.479,528.835 712.704,528.936C713.724,529.395 714.47,529.457 715.704,530.436C717.073,531.522 718.017,532.977 719.453,534.186C720.825,535.341 722.619,535.99 723.953,537.186C725.263,538.362 726.334,539.745 727.702,540.936C727.912,541.12 728.255,542.347 728.452,542.436C729.43,542.876 730.306,542.888 731.452,543.936C732.803,545.173 733.915,546.4 735.201,547.686C736.78,549.264 738.455,550.982 739.701,552.936C740.673,554.46 744.292,557.032 744.95,559.684C748.413,560.384 749.221,564.21 750.949,566.434C751.881,567.633 753.172,568.399 753.949,569.434C754.856,570.643 755.362,572.057 756.199,573.184C757.071,574.359 758.274,574.915 759.198,576.184C759.705,576.879 759.459,577.793 759.948,578.434C760.386,579.008 760.972,579.247 761.448,579.934C762.253,581.099 762.892,582.475 763.698,583.684C764.019,584.169 764.92,584.737 765.198,585.184C765.583,585.804 765.494,586.692 765.947,587.434C766.255,587.937 767.167,588.484 767.447,588.934C767.848,589.58 767.746,590.391 768.197,591.184C768.468,591.661 769.47,592.266 769.697,592.684C770.157,593.538 770.024,594.175 770.447,594.934C770.714,595.413 771.719,596.015 771.947,596.434C772.721,597.873 772.426,599.04 773.447,600.934C773.697,601.4 774.744,602.032 774.946,602.434C775.635,603.806 775.664,605.353 776.446,606.934C776.69,607.427 777.717,608.012 777.946,608.434C778.394,609.268 778.335,609.924 778.696,610.684C780.055,613.542 781.247,616.097 782.445,618.932C782.679,619.489 782.813,620.475 783.195,621.182C783.397,621.557 784.588,622.381 784.695,622.682C785.431,624.757 785.063,626.985 786.195,628.682C786.677,629.408 786.676,629.865 786.945,630.932C787.11,631.593 787.454,632.218 787.695,633.182C787.86,633.843 788.204,634.468 788.445,635.432C788.604,636.075 789.118,635.943 789.195,636.182C789.708,637.79 789.524,639.906 789.944,641.432C789.961,641.492 790.577,641.711 790.694,642.182C791.207,644.232 792.311,647.842 792.944,650.432C794.721,657.721 796.395,666.998 797.443,675.928C798.128,681.764 798.693,686.287 798.943,692.426C799.006,693.956 798.26,696.259 799.693,697.676L799.693,710.425C798.249,710.829 799.084,714.149 798.943,716.423C798.624,721.618 798.287,728.802 797.443,735.171C797.339,735.958 796.791,736.813 796.694,738.171C796.625,739.144 796.864,740.213 796.694,741.171C796.678,741.251 795.974,741.319 795.944,741.921C795.71,746.357 794.171,752.602 792.944,757.669C791.725,762.7 790.215,767.975 788.445,773.417C788.006,774.764 787.302,775.731 786.945,777.166C786.655,778.325 786.651,779.021 786.195,780.165C785.897,780.911 785.707,781.366 785.445,782.415C785.163,783.546 784.034,786.374 783.195,788.415C783.061,788.74 782.487,788.372 782.445,789.165C782.361,790.768 781.635,791.233 780.946,792.914C780.356,794.346 780.087,796.02 779.446,797.413C779.282,797.768 778.739,797.348 778.696,798.163C778.676,798.514 778.134,799.252 777.946,799.663C777.592,800.432 776.508,801.495 776.446,802.663C776.426,803.012 775.885,803.751 775.696,804.163C775.342,804.932 774.258,805.995 774.196,807.162C774.177,807.512 773.635,808.251 773.447,808.662C773.188,809.223 773.093,810.219 772.697,810.911C772.518,811.224 771.315,811.399 771.197,811.661C771.016,812.059 771.417,812.788 771.197,813.161C770.912,813.646 769.942,814.229 769.697,814.661C769.156,815.61 769.544,816.723 768.947,817.661C768.583,818.234 767.875,818.428 767.447,819.161C767.158,819.656 767.031,820.139 766.697,820.661C766.47,821.015 766.061,821.219 765.947,821.411C765.602,821.992 765.638,822.976 765.198,823.66C765.012,823.944 763.808,824.163 763.698,824.41C763.231,825.444 763.088,826.112 762.198,827.409C761.664,828.188 761.274,828.889 760.698,829.659C760.283,830.214 759.531,830.684 759.198,831.159C759.01,831.43 759.444,832.458 759.198,832.659C758.938,832.87 757.874,833.152 757.699,833.409C757.309,833.977 757.414,835.019 756.949,835.659C756.487,836.292 755.136,836.534 754.699,837.158C754.194,837.88 754.449,838.755 753.949,839.408C753.761,839.651 752.549,839.936 752.449,840.158C751.989,841.179 751.92,841.915 750.949,843.157C750.762,843.395 749.548,843.69 749.45,843.907C748.997,844.911 748.959,845.708 747.95,846.907C747.424,847.532 746.192,847.774 745.7,848.407C745.298,848.924 745.416,850.12 744.95,850.657C743.038,852.856 740.461,854.741 738.201,857.405C735.673,860.387 731.742,864.194 728.452,867.155C727.235,868.249 725.923,869.063 724.703,870.153C724.121,870.674 723.821,871.971 723.203,872.403C722.477,872.911 721.581,872.61 720.953,873.153C719.746,874.196 719.208,875.882 717.954,876.903C717.693,877.114 716.66,876.651 716.454,876.903C716.242,877.163 715.961,878.227 715.704,878.403C715.155,878.778 714.058,878.694 713.454,879.153C712.828,879.628 712.58,880.966 711.954,881.403C711.232,881.907 710.357,881.655 709.705,882.153C709.459,882.339 709.177,883.551 708.955,883.653C707.924,884.118 707.227,884.221 705.955,885.153C705.532,885.462 706.079,885.856 705.205,885.901C704.976,885.915 703.968,886.477 703.705,886.651C703.196,886.991 702.672,887.837 702.206,888.151C701.393,888.702 700.85,889.169 699.956,889.651C699.409,889.948 698.35,889.981 697.706,890.401C697.424,890.587 697.202,891.79 696.956,891.901C696.586,892.069 695.778,891.667 695.457,891.901C694.86,892.333 694.696,892.938 693.957,893.401C693.46,893.712 692.987,893.811 692.457,894.151C692.103,894.376 691.899,894.786 691.707,894.901C691.066,895.28 689.782,896.344 688.707,896.401C688.357,896.419 687.618,896.962 687.208,897.151C686.647,897.409 685.651,897.505 684.958,897.901C684.645,898.077 684.471,899.282 684.208,899.401C683.81,899.579 683.082,899.18 682.708,899.401C682.242,899.673 681.621,900.68 681.208,900.901C680.191,901.438 679.262,901.11 678.209,901.649C677.747,901.885 677.102,902.96 676.709,903.149C675.389,903.786 673.704,903.942 672.209,904.649C671.847,904.821 672.28,905.356 671.46,905.399C671.109,905.419 670.37,905.96 669.96,906.149C659.391,911.03 645.94,915.532 632.465,918.897C625.176,920.716 617.747,922.403 609.967,923.397C603.931,924.168 597.559,924.495 591.22,924.897C589.569,925.001 587.324,924.188 585.971,925.647L576.972,925.647C575.325,924.163 572.815,925.032 570.972,924.897C564.806,924.444 555.75,923.745 549.225,922.647C548.746,922.567 548.195,922.764 547.725,922.647C543.432,921.575 535.127,920.284 529.728,918.897C524.54,917.567 519.354,916.149 513.98,914.399C512.893,914.044 511.586,913.237 510.23,912.899C509.07,912.608 508.375,912.606 507.231,912.149C505.984,911.649 503.645,910.753 501.231,909.899C501.061,909.837 501.041,909.29 500.481,909.149C498.916,908.757 498.054,908.26 496.732,907.649C495.623,907.137 493.932,907.065 492.233,906.149C491.783,905.907 491.119,904.833 490.733,904.649C489.685,904.153 488.793,904.442 487.733,903.899C487.264,903.659 486.634,902.598 486.233,902.399C485.198,901.885 484.292,902.192 483.234,901.649C482.75,901.401 482.151,900.37 481.734,900.151C480.767,899.639 479.671,899.997 478.734,899.401C478.142,899.024 478.005,898.327 477.234,897.901C475.772,897.091 474.181,896.487 472.734,895.651C469.271,893.649 465.488,891.555 462.235,888.901C461.755,888.507 461.161,887.696 460.735,887.401C460.464,887.214 459.436,887.647 459.235,887.401C459.049,887.173 458.707,886.038 458.485,885.901C457.687,885.413 456.933,885.651 456.235,885.153C455.813,884.85 456.359,884.448 455.485,884.403C454.689,884.36 453.526,882.977 452.485,882.153C444.633,875.93 435.044,868.1 427.738,860.405C426.675,859.284 424.998,858.567 423.988,857.405C423.768,857.153 424.241,856.114 423.988,855.905C421.103,853.546 417.963,849.753 414.989,846.157C414.804,845.934 413.582,845.614 413.489,845.407C413.029,844.386 412.96,843.649 411.989,842.407C411.802,842.169 410.588,841.875 410.489,841.657C410.027,840.635 409.95,839.909 408.989,838.658C408.082,837.477 406.941,836.179 405.989,834.909C405.426,834.155 405.073,833.418 404.489,832.659C403.817,831.784 403.093,830.995 402.239,829.659C402.013,829.305 401.604,829.102 401.489,828.909C401.153,828.344 401.179,827.319 400.739,826.659C400.554,826.383 399.349,826.153 399.239,825.909C398.773,824.877 398.58,824.225 397.739,822.91C397.207,822.078 396.725,821.559 396.239,820.661C395.925,820.077 395.914,819.113 395.489,818.411C395.308,818.112 394.104,817.917 393.989,817.661C393.81,817.264 394.21,816.534 393.989,816.161C393.701,815.671 392.742,815.098 392.489,814.661C392.33,814.388 392.723,813.352 392.489,813.161C391.483,812.338 391.178,811.848 390.239,810.161C390.018,809.765 389.534,810.262 389.489,809.411C389.394,807.6 386.901,803.44 385.739,801.163C385.425,800.546 385.404,799.684 384.989,798.913C384.753,798.473 383.664,797.791 383.489,797.413C382.782,795.878 382.691,793.857 381.989,792.164C381.853,791.837 381.281,792.208 381.239,791.414C381.205,790.758 380.252,788.899 379.739,787.665C374.738,775.604 370.701,761.723 367.74,746.42C367.433,744.835 367.55,744.155 366.99,741.921C366.804,741.18 366.58,739.743 366.24,737.421C366.073,736.272 365.615,736.11 365.49,735.171C364.93,730.944 365.075,726.733 364.74,722.423C364.684,721.708 364.084,720.727 363.99,719.423C363.92,718.43 364.041,717.419 363.99,716.423C363.914,714.891 364.683,712.594 363.24,711.175L363.24,697.676C363.929,697.512 363.981,697.047 363.99,696.176C364.048,690.476 364.483,683.818 364.74,678.928C364.767,678.409 365.492,678.154 365.49,678.178C365.711,676.077 365.422,674.245 365.49,672.93C365.52,672.361 366.234,672.219 366.24,672.18C366.781,668.542 367.029,664.569 367.74,660.93C368.131,658.935 368.392,658.294 368.49,656.432C368.524,655.784 369.209,655.824 369.24,655.682C369.701,653.616 369.503,651.619 369.99,649.682C370.028,649.532 370.597,649.501 370.74,648.932C372.178,643.185 373.711,636.841 375.24,632.434C375.573,631.476 375.528,630.703 375.99,629.434C376.107,629.111 377.31,628.344 377.49,627.934C377.932,626.924 377.978,625.636 378.24,624.934C378.58,624.023 378.722,623.359 378.99,622.684C379.368,621.732 379.243,620.92 379.74,619.684C379.881,619.334 381.051,618.618 381.24,618.184C381.719,617.089 381.628,615.977 381.99,615.184C385.487,607.545 389.218,600.413 393.239,593.437C394.018,592.084 394.699,590.204 395.489,588.937C395.769,588.489 396.666,587.922 396.989,587.437C397.164,587.174 397.727,586.166 397.739,585.937C397.797,584.861 398.86,583.577 399.239,582.937C399.353,582.744 399.763,582.541 399.989,582.187C400.332,581.65 400.414,581.182 400.739,580.687C401.043,580.227 401.906,579.687 402.239,579.187C402.414,578.924 402.977,577.916 402.989,577.687C403.035,576.813 403.435,577.36 403.739,576.937C405.477,574.518 407.174,571.811 408.988,569.438C411.394,566.293 414.608,562.95 416.487,560.439C418.254,558.08 420.086,557.03 421.737,555.19C422.776,554.032 422.794,553.173 423.237,552.19C423.327,551.991 424.553,551.653 424.737,551.44C427.961,547.705 431.123,544.783 434.486,541.691C436.782,539.58 439.047,537.451 440.485,535.692C440.693,535.439 441.733,535.913 441.985,535.692C443.756,534.143 445.066,532.254 446.485,531.192C448.796,529.463 450.494,528.181 452.484,526.692C453.576,525.875 454.645,524.486 455.484,524.442C456.358,524.395 455.811,524 456.234,523.692C466.538,516.196 478.07,509.96 489.98,504.194C502.093,498.329 515.143,493.393 528.975,489.945C534.154,488.654 542.147,487.215 546.223,486.195C547.349,485.913 548.808,486.257 549.972,486.195C550.532,486.166 550.695,485.449 550.722,485.445C554.824,484.872 559.153,485.045 563.47,484.695C565.484,484.532 567.38,484.073 569.47,483.945C571.311,483.825 573.825,484.654 575.472,483.188Z" style="fill:url(#_Linear1);fill-rule:nonzero;stroke:rgb(0,160,233);stroke-width:1px;"/>
        </g>
    </g>
    <defs>
        <linearGradient id="_Linear1" x1="0" y1="0" x2="1" y2="0" gradientUnits="userSpaceOnUse" gradientTransform="matrix(0.9999,338,-338,0.9999,580.856,497.988)"><stop offset="0" style="stop-color:rgb(215,237,175);stop-opacity:1"/><stop offset="1" style="stop-color:rgb(134,174,56);stop-opacity:1"/></linearGradient>
    </defs>
</svg>
