<?xml version="1.0" encoding="UTF-8" standalone="no"?>
<!DOCTYPE svg PUBLIC "-//W3C//DTD SVG 1.1//EN" "http://www.w3.org/Graphics/SVG/1.1/DTD/svg11.dtd">
<svg width="100%" height="100%" viewBox="0 0 1163 1409" version="1.1" xmlns="http://www.w3.org/2000/svg" xmlns:xlink="http://www.w3.org/1999/xlink" xml:space="preserve" xmlns:serif="http://www.serif.com/" style="fill-rule:evenodd;clip-rule:evenodd;stroke-linejoin:round;stroke-miterlimit:2;">
    <g id="世界1">
        <path d="M433.866,589.863L442.197,589.863C442.034,593.484 443.177,595.86 443.479,599.038C440.444,599.2 438.54,600.44 435.148,600.261C433.767,599.744 435.388,596.362 433.866,595.979L433.866,589.863Z"/>
        <path d="M728.657,592.31L728.657,596.591L728.015,596.591C727.812,599.273 728.358,601.134 726.734,602.096C726.112,602.465 725.122,601.567 724.811,601.485C722.916,600.985 719.345,600.939 719.042,599.65C718.729,597.72 720.197,597.49 719.684,595.369C720.949,594.944 719.527,591.956 720.965,591.699C724.002,591.452 725.377,592.789 728.657,592.31Z"/>
        <path d="M445.402,606.989C445.947,606.877 446.006,607.228 446.043,607.601C446.962,610.597 448.328,613.168 449.247,616.164C446.714,617.213 444.325,618.398 441.557,619.222C440.641,615.815 438.394,613.678 438.353,609.435C439.851,609.234 441.001,608.7 442.198,608.212C443.338,607.874 444.859,607.898 445.402,606.989Z"/>
        <path d="M715.841,608.212C719.534,608.152 721.344,609.891 724.17,610.659C723.513,613.904 721.771,616.116 720.966,619.222C717.467,619.301 716.777,616.697 713.278,616.775C713.112,612.949 715.712,611.76 715.841,608.212Z"/>
        <path d="M452.45,624.115C454.917,626.45 456.745,629.395 457.577,633.29C454.298,633.626 453.276,636.117 449.887,636.349C449.17,632.752 446.411,631.103 446.042,627.174C448.233,626.207 450.882,625.677 452.45,624.115Z"/>
        <path d="M708.79,624.115C712.29,624.037 712.981,626.64 716.481,626.562C716.111,630.492 713.353,632.141 712.635,635.737C709.546,635.013 707.818,632.994 704.944,632.067C706.146,629.339 707.949,627.186 708.79,624.115Z"/>
        <path d="M699.82,639.407C703.382,639.676 704.885,641.912 707.508,643.077C706.64,646.326 704.295,648.165 703.024,651.029C700.094,650.359 698.35,648.557 695.974,647.359C696.512,643.998 699.28,642.768 699.82,639.407Z"/>
        <path d="M467.831,649.193C464.75,649.922 463.54,652.438 460.141,652.863C459.4,649.289 456.252,648.011 455.655,644.3C457.558,643.059 460.081,642.408 461.423,640.63C462.458,640.458 462.526,641.208 463.345,641.242C464.391,644.321 467.043,645.868 467.831,649.193Z"/>
        <path d="M638.296,727.486C638.411,729.633 636.133,729.498 635.734,731.157C633.884,731.429 634.218,733.788 632.529,734.214C629.392,733.539 628.728,730.503 626.12,729.321C627.937,726.977 629.991,724.859 631.889,722.592C633.768,722.634 634.269,723.991 635.093,725.039C636.972,725.08 637.473,726.438 638.296,727.486Z"/>
        <path d="M583.825,776.42C584.079,778.906 581.097,778.303 580.62,780.09C579.011,780.798 578.474,782.527 576.133,782.537C575.361,780.011 572.858,779.137 571.648,777.031C571.909,775.242 573.84,775.046 574.852,773.972C576.192,773.212 577.261,772.194 578.056,770.915C581.196,771.589 581.75,774.729 583.825,776.42Z"/>
        <path d="M563.958,781.924C566.588,783.289 567.643,786.155 569.726,788.041C568.848,789.446 567.088,790.008 565.881,791.1C564.273,791.807 563.735,793.538 561.395,793.546C560.489,791.353 558.623,790.076 557.549,788.041C557.628,786.484 558.482,785.669 560.113,785.594C560.67,784.698 561.072,783.656 562.676,783.759C562.903,782.956 563.805,782.799 563.958,781.924Z"/>
        <path d="M554.987,798.439C553.156,801.177 549.374,802.053 547.297,804.556C545.448,804.282 545.782,801.923 544.093,801.497C544.338,799.225 541.497,799.896 542.171,797.215C543.511,796.958 544.66,796.218 546.015,795.38C546.371,795.16 545.915,794.806 546.656,794.769C547.953,794.704 547.835,792.477 550.501,792.934C552.078,794.691 552.781,797.281 554.987,798.439Z"/>
        <path d="M523.585,819.236C519.888,819.988 518.31,822.765 514.613,823.517C513.491,820.917 511.82,818.843 510.768,816.177C514.346,815.513 515.632,812.663 519.739,812.506C520.619,815.134 522.784,816.535 523.585,819.236Z"/>
        <path d="M645.988,813.73C649.465,814.286 651.29,816.416 654.318,817.4C653.266,820.067 651.595,822.141 650.474,824.741C647.661,823.552 645.16,822.064 642.783,820.46C643.18,817.575 645.69,816.71 645.988,813.73Z"/>
        <path d="M502.437,820.46C504.915,821.968 505.807,824.989 506.923,827.8C503.805,828.901 501.776,831.041 497.951,831.469C496.721,829.179 495.555,826.824 494.747,824.128C496.384,823.856 497.693,823.272 498.592,822.293C500.229,822.022 501.538,821.436 502.437,820.46Z"/>
        <path d="M661.367,821.071C663.859,822.158 665.971,823.608 669.057,824.128C668.589,827.354 666.88,829.391 665.852,832.08C663.13,831.008 660.709,829.65 658.163,828.41C658.406,825.175 660.422,823.633 661.367,821.071Z"/>
        <path d="M489.619,835.139C486.548,836.285 483.351,837.311 480.007,838.198C479.638,835.288 478.081,833.511 478.085,830.246C481.624,829.955 483.349,827.931 487.057,827.801C487.251,830.875 489.115,832.358 489.619,835.139Z"/>
        <path d="M676.108,827.8C679.349,828.171 681.739,829.355 684.438,830.245C684.235,833.11 683.068,835.053 682.516,837.584C678.793,837.469 676.47,836.015 673.544,835.139C674.322,832.62 675.728,830.699 676.108,827.8Z"/>
        <path d="M699.82,841.256L695.333,841.256C694.454,840.056 691.407,840.925 690.208,840.032C691.588,837.883 690.702,833.573 692.77,832.08C693.527,832.784 695.037,832.771 696.616,832.693C697.061,833.898 700.191,832.541 700.461,833.917C700.411,836.521 699.388,838.193 699.82,841.256Z"/>
        <path d="M466.549,841.256L460.782,841.256C461.193,838.794 459.949,834.751 461.423,833.304C464.248,833.145 466.38,832.327 469.754,832.694C469.64,835.527 472.19,838.871 470.395,840.643C469.268,840.996 466.629,839.904 466.549,841.256Z"/>
        <path d="M696.615,563.561L710.073,563.561C710.252,564.473 711.705,563.961 712.636,564.173C713.949,564.471 715.341,564.887 716.482,565.396C716.914,565.589 717.398,566.426 717.763,566.62C717.997,566.745 718.883,566.432 719.043,566.62C720.205,567.974 722.663,569.641 724.17,571.514C725.623,573.317 726.354,575.649 728.016,577.63C728.071,578.598 727.707,579.963 728.658,580.077L728.658,583.136C725.808,583.115 722.009,584.594 720.325,583.747C719.679,583.18 720.475,580.083 719.685,579.465C719.609,579.406 719.081,579.542 719.043,579.465C718.933,579.243 719.231,578.388 719.043,578.242C718.961,578.178 718.45,578.325 718.402,578.242C718.275,578.018 718.598,577.171 718.402,577.019C717.813,576.558 717.617,576.337 717.123,575.796C715.653,574.197 712.619,572.734 709.431,572.126C709.228,572.087 708.268,572.265 708.149,572.126C708.113,572.084 708.191,571.521 708.149,571.515C705.533,571.118 701.749,571.293 699.178,571.515C696.34,571.759 692.871,572.545 689.566,573.349C682.082,575.171 674.371,578.571 667.135,581.3C666.946,581.372 667.008,581.789 666.494,581.912C665.157,582.232 664.419,582.638 663.291,583.136C662.633,583.425 661.723,584.309 660.727,584.359C660.522,584.369 659.679,584.825 659.446,584.97C658.993,585.25 658.501,586.02 658.164,586.194C657.3,586.637 656.5,586.366 655.601,586.805C655.186,587.009 654.676,587.847 654.319,588.028C653.58,588.403 653.048,588.281 652.396,588.639C651.863,588.935 651.512,589.652 651.116,589.863C650.262,590.317 649.447,590.037 648.553,590.474C648.123,590.684 647.641,591.497 647.272,591.697C646.719,591.996 646.035,591.957 645.348,592.309C644.91,592.535 644.45,593.31 644.067,593.532C641.669,594.923 638.811,595.664 637.659,597.813C644.891,600.847 651.075,605.175 656.885,609.435C658.362,610.518 660.06,611.46 661.37,612.494C662.602,613.466 663.739,614.842 665.215,616.164C667.903,618.57 670.384,620.938 672.906,623.503C673.582,624.192 674.861,624.606 675.469,625.339C675.646,625.552 675.254,626.394 675.469,626.562C676.527,627.389 677.48,628.233 678.672,629.62C679.237,630.279 680.112,630.849 680.594,631.455C680.766,631.671 680.382,632.511 680.594,632.678C681.214,633.162 681.392,633.27 681.876,633.902C682.476,634.681 683.297,635.028 683.8,635.737C683.955,635.958 683.59,636.798 683.8,636.96C684.771,637.719 684.831,638.092 685.722,639.407C685.952,639.746 686.326,639.312 686.364,640.018C686.407,640.803 687.295,640.796 687.645,641.242C687.815,641.459 687.431,642.299 687.645,642.465C687.73,642.532 688.234,642.38 688.286,642.465C688.42,642.689 688.088,643.534 688.286,643.689C688.362,643.748 688.89,643.613 688.928,643.689C689.038,643.91 688.74,644.766 688.928,644.912C689.013,644.978 689.517,644.827 689.569,644.912C691.457,648.096 693.65,651.899 695.336,655.922C695.428,656.14 695.159,657.007 695.336,657.146C695.706,657.435 697.513,657.618 697.899,658.98C697.419,658.716 696.854,661.111 697.259,661.427C698.352,662.281 699.822,667.345 700.462,669.379C702.747,676.642 704.134,684.291 704.947,693.233C705.587,700.25 705.671,706.896 704.947,714.641C704.737,716.899 704.208,719.368 703.668,722.593C703.415,724.089 703.341,726.035 703.026,727.487C703.005,727.584 702.414,727.584 702.385,728.099C702.299,729.618 702.225,730.435 701.743,732.381C701.325,734.075 700.959,735.701 700.461,737.273C700.401,737.463 699.853,737.299 699.821,737.884C699.81,738.047 699.882,738.347 699.821,738.497C699.502,739.254 697.11,744.263 697.258,745.836C697.389,747.246 698,746.899 698.539,747.671C698.694,747.894 698.332,748.734 698.539,748.895C698.739,749.052 699.695,749.318 699.821,749.506C699.967,749.729 699.615,750.57 699.821,750.73C699.989,750.862 701.012,751.187 701.102,751.34C701.549,752.119 701.23,753.028 701.743,753.788C701.9,754.02 702.929,754.197 703.025,754.4C703.172,754.712 702.829,755.34 703.025,755.623C703.182,755.85 704.212,756.036 704.306,756.235C704.454,756.549 704.111,757.168 704.306,757.459C704.463,757.691 705.492,757.867 705.586,758.07C705.74,758.393 705.399,758.988 705.586,759.292C705.838,759.698 706.641,760.154 706.868,760.516C707.122,760.92 707.222,761.31 707.509,761.741C707.651,761.953 708.12,762.293 708.15,762.351C708.573,763.18 708.304,763.979 708.792,764.799C708.944,765.053 709.972,765.194 710.074,765.409C710.226,765.735 709.886,766.329 710.074,766.633C710.315,767.025 711.15,767.508 711.355,767.858C711.487,768.081 711.159,768.926 711.355,769.082C711.525,769.214 712.548,769.537 712.637,769.692C713.108,770.51 712.816,771.286 713.279,772.138C713.447,772.449 713.881,772.067 713.919,772.748C713.935,773.034 714.398,773.638 714.56,773.973C714.863,774.6 715.789,775.469 715.843,776.42C715.87,776.956 716.573,778.043 717.125,778.865C717.326,779.171 718.992,781.554 719.045,782.537C719.082,783.184 720.909,785.742 720.968,786.817C721.009,787.523 722.544,789.773 722.891,791.099C723.402,793.047 723.981,794.239 724.814,796.602C725.999,799.97 727.236,803.784 728.018,808.225C728.165,809.062 727.757,809.982 728.66,810.06L728.66,823.517L728.018,823.517C727.883,829.882 722.302,836.243 717.125,838.808C715.968,839.382 714.616,839.638 713.279,840.032C712.296,840.321 710.968,840.487 710.074,841.256L708.792,841.256C708.141,838.819 707.858,836.029 707.51,833.304C708.41,832.348 709.728,832.981 710.715,832.694C710.915,832.635 710.74,832.112 711.356,832.081C711.777,832.06 713.688,831.741 713.919,831.47C714.43,830.872 714.509,830.699 715.201,830.246C716.491,829.405 716.743,828.755 717.764,827.187C717.977,826.86 718.912,826.252 719.044,825.963C719.199,825.628 718.95,825.098 719.044,824.741C719.187,824.201 719.48,823.691 719.686,822.904C721.114,817.453 719.899,809.537 718.404,803.943C717.724,801.4 716.798,798.457 715.842,795.993C715.747,795.75 715.234,796.008 715.2,795.381C715.19,795.22 715.262,794.92 715.2,794.77C714.945,794.161 714.783,793.79 714.558,792.935C714.403,792.342 714.037,792.602 713.917,792.323C712.841,789.83 712.115,787.608 710.713,784.982C710.444,784.479 710.426,783.774 710.072,783.149C709.858,782.768 708.964,782.254 708.79,781.924C708.346,781.083 708.611,780.34 708.148,779.479C707.943,779.096 707.038,778.581 706.867,778.255C706.429,777.409 706.689,776.669 706.226,775.807C706.013,775.412 705.132,774.926 704.944,774.583C704.508,773.795 704.813,772.902 704.304,772.138C703.984,771.659 703.387,771.536 703.023,770.916C702.715,770.391 702.749,769.73 702.382,769.081C702.149,768.667 701.32,768.216 701.1,767.857C698.097,762.974 695.69,758.223 692.768,755.011C692.047,756.178 691.722,757.37 690.846,758.681C690.383,759.374 690.127,759.955 689.565,760.515C689.552,760.53 688.881,761.202 688.924,761.126C688.464,761.924 688.78,762.776 688.282,763.573C688.075,763.904 687.68,763.485 687.641,764.184C687.597,764.972 686.694,764.955 686.36,765.408C686.198,765.628 686.57,766.468 686.36,766.632C686.14,766.803 685.224,767.036 685.078,767.243C684.921,767.465 685.286,768.304 685.078,768.467C684.863,768.636 683.937,768.875 683.797,769.08C683.642,769.301 684.003,770.141 683.797,770.302C683.569,770.48 682.673,770.698 682.515,770.915C682.353,771.134 682.725,771.974 682.515,772.137C681.988,772.548 680.654,772.849 680.591,773.972C680.583,774.125 680.089,775.022 679.951,775.196C679.792,775.395 678.756,775.626 678.669,775.806C678.533,776.095 678.872,776.788 678.669,777.031C678.153,777.643 675.544,778.661 675.466,780.09C675.39,781.463 671.769,783.618 670.339,784.982C668.119,787.102 666.266,789.721 663.931,791.711C663.238,792.3 662.065,792.362 661.367,792.935C660.387,793.737 659.594,794.973 658.163,795.994C657.517,796.454 656.892,796.741 656.24,797.217C655.475,797.775 654.996,798.545 654.317,799.051C654.091,799.22 653.211,798.849 653.036,799.051C652.422,799.769 652.305,800.161 651.114,800.886C650.412,801.315 649.911,801.673 649.192,802.11C648.975,802.242 647.441,802.52 647.269,802.721C645.923,804.288 642.638,806.27 639.578,807.003C639.809,807.638 638.345,807.981 638.296,808.227C638.162,808.932 639.578,809.265 639.578,810.062C639.578,809.914 638.945,811.89 638.936,811.897C638.865,811.954 638.332,811.824 638.295,811.897C637.639,813.305 637.055,815.827 634.451,816.179C633.82,814.741 631.241,815.164 631.246,813.12C632.12,813.011 634.354,810.212 631.888,810.673C631.418,811.752 629.2,812.067 628.041,812.508C627.442,812.738 626.223,813.281 624.837,813.732C622.673,814.438 620.009,815.364 617.149,816.179C605.345,819.547 590.378,821.984 573.571,821.073C565.723,820.647 558.165,819.158 551.141,817.402C550.741,817.302 550.261,817.499 549.859,817.402C549.04,817.206 547.331,816.646 545.374,816.179C543.162,815.651 539.078,813.6 535.761,813.12C534.026,811.11 532.86,814.796 530.634,814.343C530.631,812.886 529.22,811.972 528.712,811.284C528.282,810.706 528.567,809.925 528.071,809.449C527.568,808.97 526.742,809.277 526.148,808.84C523.016,806.526 519.329,805.456 515.895,803.334C515.54,803.114 515.995,802.759 515.254,802.721C514.433,802.681 514.444,801.702 513.972,801.499C513.645,801.358 512.983,801.686 512.69,801.499C512.029,801.074 511.449,800.106 510.768,799.662C510.346,799.39 509.947,799.331 509.486,799.051C508.807,798.638 507.958,797.27 506.923,797.217C506.03,797.171 505.916,796.084 505,795.382C504.266,794.819 503.15,794.741 502.437,794.159C501.891,793.712 501.696,792.763 501.155,792.323C500.331,791.651 499.352,791.721 498.592,791.1C497.221,789.977 495.788,787.811 494.106,786.205C492.563,784.734 490.94,783.871 489.619,781.924C489.39,781.586 489.017,782.02 488.979,781.314C488.923,780.294 485.86,779.194 485.774,777.642C485.736,776.961 483.411,775.05 482.57,773.973C481.898,773.113 481.481,772.143 480.648,770.916C480.418,770.575 480.046,771.009 480.007,770.303C479.964,769.52 478.938,769.532 478.726,769.081C478.579,768.768 478.923,768.135 478.726,767.857C478.356,767.332 477.216,766.6 476.803,766.02C476.516,765.618 476.456,765.237 476.162,764.798C475.624,763.99 474.588,761.997 473.599,760.515C473.136,759.822 472.88,759.241 472.317,758.681C471.96,758.324 471.281,757.113 471.036,755.622C469.673,755.507 469.172,757.021 468.473,758.069C468.01,758.762 467.754,759.344 467.191,759.902C466.873,760.22 466.476,761.467 465.909,762.349C465.694,762.684 465.307,762.258 465.268,762.96C465.257,763.155 464.778,763.961 464.627,764.184C464.317,764.639 463.555,765.057 463.345,765.408C462.863,766.217 463.161,767.004 462.704,767.856C462.486,768.261 461.625,768.728 461.422,769.08C461.188,769.48 461.062,769.881 460.781,770.302C460.639,770.514 460.17,770.857 460.14,770.915C459.711,771.756 459.972,772.514 459.499,773.36C459.321,773.676 458.895,773.285 458.858,773.971C458.847,774.166 458.369,774.971 458.217,775.195C457.924,775.627 457.117,776.096 456.935,776.419C456.471,777.244 456.755,778.009 456.294,778.864C456.097,779.232 455.163,779.777 455.013,780.089C454.582,780.982 454.73,781.572 454.372,782.536C454.32,782.673 453.85,782.689 453.731,783.147C453.293,784.819 452.835,785.89 451.809,787.427C451.24,788.28 450.606,790.555 449.886,792.321C448.213,796.427 446.747,800.127 445.401,805.166C445.047,806.491 444.345,808.109 444.119,809.447C443.951,810.44 444.307,811.517 444.119,812.506C444.008,813.087 443.552,813.451 443.478,814.341C443.251,817.057 443.872,819.448 444.119,821.682C444.286,823.203 444.18,823.691 444.76,825.351C444.835,825.567 445.367,825.357 445.401,825.962C445.49,827.586 447.675,829.081 449.246,830.244C449.88,831.882 453.15,831.004 453.091,833.303C451.693,835.23 452.075,838.857 449.887,840.032C449.087,838.901 447.711,839.311 446.683,838.808C446.209,838.576 445.803,837.866 445.402,837.583C445.001,837.306 444.548,837.264 444.12,836.973C443.68,836.673 443.247,836.036 442.838,835.749C437.259,831.853 434.121,823.128 435.148,811.895C435.723,805.606 438.009,799.719 440.274,793.545C445.939,778.106 456.385,760.654 464.627,748.894C464.742,746.229 467.673,749.623 467.19,747.059C465.486,745.989 465.826,743.667 465.268,742.165C465.182,741.935 464.661,742.173 464.627,741.555C464.61,741.251 464.168,740.282 463.986,739.72C463.606,738.541 463.266,737.389 462.704,736.048C462.613,735.832 462.88,734.963 462.704,734.824C461.965,734.248 462.702,732.987 462.063,732.38C462.012,732.331 461.436,732.434 461.422,732.38C461.084,731.109 461.424,729.518 460.781,727.485C460.256,725.828 459.222,720.755 458.858,717.7C458.791,717.14 459.027,716.399 458.858,715.863C458.522,714.802 458.401,711.285 458.217,708.522C458.099,706.756 457.576,704.838 457.576,703.018C457.576,701.335 458.074,699.981 458.217,698.125C458.595,693.225 458.664,688.128 459.499,683.445C462.082,668.949 467.391,655.507 474.238,644.299C474.485,643.895 474.593,643.503 474.879,643.076C475.072,642.787 475.422,642.622 475.52,642.464C475.805,642.005 475.786,641.16 476.161,640.629C476.786,639.743 478.081,639.099 478.725,638.182C478.881,637.96 478.517,637.121 478.725,636.959C478.918,636.808 479.891,636.529 480.006,636.348C480.423,635.697 480.229,635.086 480.647,634.513C480.898,634.169 481.249,634.612 481.288,633.901C481.326,633.226 482.51,632.334 483.21,631.454C484.074,630.369 484.853,629.432 485.773,628.396C486.892,627.136 488.273,625.688 489.618,624.114C490.575,622.996 492.032,621.839 493.464,620.444C495.238,618.716 496.702,616.543 498.591,614.939C498.805,614.757 499.695,615.146 499.872,614.939C500.759,613.905 502.081,612.437 503.717,611.269C505.649,609.889 508.841,607.444 511.407,605.764C512.073,605.328 512.671,605.011 513.329,604.541C514.233,603.895 515.162,603.519 516.533,602.706C516.951,602.458 517.437,601.699 517.815,601.483C518.05,601.348 518.932,601.675 519.097,601.483C519.796,600.668 520.209,600.392 521.66,599.648C522.765,599.081 524.086,598.827 524.865,597.813C519.321,594.471 510.937,589.842 503.717,586.192C501.881,585.263 500.463,584.693 497.949,583.745C497.759,583.673 497.822,583.256 497.308,583.134C495.97,582.814 495.233,582.408 494.104,581.91C493.113,581.474 492.251,581.203 490.899,580.687C490.29,580.454 489.471,579.905 488.336,579.463C487.442,579.115 486.277,578.514 485.132,578.24C484.745,578.148 484.221,578.375 483.85,578.24C483.457,578.097 482.881,577.145 482.568,577.017C482.213,576.872 481.664,577.107 481.286,577.017C480.441,576.816 478.851,576.283 476.8,575.794C476.303,575.675 476.3,575.217 476.159,575.182C474.869,574.859 472.949,574.855 471.673,574.57C471.541,574.541 471.595,573.987 471.032,573.958C467.011,573.757 461.031,571.849 455.011,572.735C455.125,572.718 454.648,573.28 454.37,573.347C452.768,573.729 451.161,573.772 449.243,574.57C448.951,574.692 449.29,575.148 448.602,575.182C447.781,575.223 447.792,576.203 447.32,576.405C447.054,576.52 446.236,576.217 446.038,576.405C445.503,576.915 445.987,578.396 444.756,578.24C443.498,579.078 444.348,581.928 442.193,581.91C439.443,581.477 436.83,580.912 435.144,579.463C436.789,574.303 439.906,570.725 443.475,568.454C448.671,565.146 458.781,563.817 467.827,565.395C468.425,565.499 469.17,565.228 469.749,565.395C470.107,565.498 470.392,566.007 470.39,566.007C472.386,566.365 474.212,566.153 476.158,566.619C476.308,566.655 476.222,567.202 476.799,567.23C478.279,567.305 478.709,567.348 480.003,567.842C481.61,568.456 485.173,569.301 487.693,570.288C487.971,570.397 487.657,570.866 488.334,570.9C488.504,570.908 488.818,570.84 488.975,570.9C489.699,571.176 490.612,571.536 492.179,572.123C492.562,572.267 493.071,572.498 493.461,572.735C494.158,573.159 496.538,573.713 497.947,574.57C498.167,574.704 498.53,575.155 498.588,575.182C499.479,575.593 500.248,575.352 501.151,575.794C501.555,575.992 502.087,576.851 502.433,577.017C503.323,577.444 504.075,577.201 504.996,577.629C505.311,577.775 504.93,578.205 505.637,578.24C506.199,578.268 507.338,578.939 508.2,579.463C508.422,579.599 508.779,580.046 508.841,580.075C509.726,580.486 510.509,580.24 511.404,580.687C511.732,580.851 511.326,581.262 512.045,581.298C512.607,581.326 513.746,581.997 514.608,582.522C516.332,583.571 519.964,585.384 522.298,586.804C523.152,587.324 525.24,588.357 526.784,589.251C527.133,589.453 526.69,589.826 527.425,589.863C529.156,589.95 532.085,593.387 534.474,593.533C535.431,593.591 537.384,592.879 538.319,592.31C538.998,591.896 541.854,590.953 543.446,590.475C556.15,586.661 571.852,584.008 589.587,584.97C600.044,585.537 610.048,587.742 619.066,590.475C620.79,590.997 623.105,591.259 624.833,592.31C625.12,592.484 626.838,592.776 627.397,593.533C629.154,593.468 629.254,592.517 630.601,591.698C631.329,591.256 631.936,591.012 632.524,590.475C633.068,589.977 633.909,589.743 634.447,589.252C634.992,588.754 635.833,588.52 636.37,588.028C636.384,588.015 637.088,587.376 637.012,587.416C637.846,586.978 638.738,587.278 639.574,586.805C639.834,586.658 639.994,585.677 640.215,585.582C640.556,585.436 641.178,585.761 641.496,585.582C641.914,585.348 642.408,584.561 642.778,584.359C643.013,584.231 643.899,584.548 644.06,584.359C644.198,584.196 644.539,583.22 644.701,583.136C645.539,582.696 646.421,582.993 647.265,582.524C647.609,582.333 647.174,581.949 647.905,581.912C648.101,581.903 648.963,581.443 649.188,581.3C649.563,581.06 650.123,580.254 650.469,580.077C651.341,579.631 652.115,579.89 653.032,579.465C653.347,579.319 652.967,578.889 653.673,578.854C654.728,578.801 657.382,577.078 658.8,576.407C669.893,571.172 681.519,565.764 695.328,564.174C696.055,564.09 696.49,564.184 696.615,563.561ZM547.937,602.708C548.601,602.742 549.364,603.592 549.859,603.931C550.941,604.671 551.819,605.736 552.422,605.766C553.086,605.799 553.85,606.65 554.345,606.989C555.258,607.614 556.399,608.799 556.909,608.824C557.565,608.857 558.346,609.708 558.831,610.047C559.876,610.778 561.247,612.454 562.036,612.494C563.214,612.553 563.526,613.825 563.958,614.328C564.133,614.532 565.014,614.163 565.241,614.328C565.945,614.843 566.381,615.538 567.163,616.163C567.654,616.556 568.568,617.615 569.085,617.998C569.835,618.554 570.765,618.545 571.649,619.221C572.317,619.733 572.793,620.477 573.571,621.056C574.26,621.569 574.729,622.306 575.493,622.89C576.347,623.543 577.274,623.505 578.057,624.113C578.969,624.821 579.091,625.904 579.979,625.948C580.595,625.979 581.47,626.831 581.902,627.172C583.184,628.187 584.361,629.717 585.746,630.842C587.12,631.956 588.761,632.721 590.233,633.901C591.608,635.001 592.62,636.364 594.079,637.571C595.107,638.421 596.584,639.504 597.922,640.629C599.266,641.757 600.488,643.203 601.768,644.299C603.128,645.464 604.926,646.31 606.255,647.357C607.294,648.178 607.888,649.466 608.177,649.804C608.329,649.982 609.226,649.699 609.459,649.804C609.537,649.84 609.397,650.344 609.459,650.416C609.932,650.968 616.915,650.464 617.149,650.416C618.791,650.078 621.181,647.413 622.276,647.357C623.015,647.32 622.561,646.965 622.917,646.746C624.294,645.896 624.685,645.838 625.479,644.911C625.658,644.704 626.555,645.099 626.762,644.911C627.097,644.604 627.133,643.411 627.403,643.076C628.2,642.081 629.436,641.293 629.966,640.629C630.374,640.119 630.174,639.335 630.607,638.794C631.365,637.848 632.457,637.193 633.171,636.348C634.205,635.122 634.763,634.249 635.734,633.289C640.14,630.97 644.551,628.657 649.192,626.56C650.163,627.871 651.683,626.937 653.036,627.172C653.077,627.179 653.258,627.684 653.677,627.784C654.081,627.88 654.553,627.697 654.958,627.784C658.192,628.477 661.759,629.152 665.212,629.618C667.831,631.605 670.181,633.848 672.262,636.347C672.982,636.284 673.26,637.236 673.544,636.347C670.862,633.649 668.66,630.572 665.853,627.784C662.8,624.751 658.589,621.349 656.241,618.609C656.066,618.404 655.185,618.777 654.959,618.609C653.951,617.848 653.377,616.211 652.396,616.162C651.219,616.103 650.908,614.831 650.475,614.327C650.304,614.127 649.423,614.481 649.194,614.327C648.767,614.044 648.422,613.448 647.911,613.104C646.956,612.463 645.91,611.297 645.348,611.269C644.622,611.233 645.044,610.836 644.707,610.658C644.095,610.333 643.445,610.433 642.784,610.046C642.11,609.65 641.504,608.584 640.861,608.211C640.75,608.146 640.357,608.218 640.22,608.211C639.285,608.164 638.226,607.294 637.657,606.987C620.13,597.552 597.719,591.423 572.93,593.531C571.184,593.679 569.472,593.34 567.804,593.531C567.844,593.526 567.522,594.056 567.164,594.142C566.776,594.234 566.282,594.115 565.882,594.142C563.89,594.278 563.423,594.576 562.678,594.754C562.278,594.849 561.804,594.694 561.396,594.754C558.853,595.128 557.26,595.497 554.987,595.977C553.493,596.293 552.876,596.328 551.783,596.589C551.383,596.684 551.19,597.188 551.142,597.201C548.601,597.864 545.436,597.738 543.452,599.647C544.877,600.374 547.087,602.665 547.937,602.708ZM496.028,631.456C496.218,631.374 496.459,630.385 496.669,630.233C496.851,630.101 497.788,629.629 497.951,629.621C499.129,629.562 499.441,628.291 499.873,627.787C500.046,627.585 500.926,627.947 501.155,627.787C501.693,627.412 501.905,626.36 502.437,625.952C502.689,625.759 503.417,626.082 503.719,625.952C503.92,625.866 504.134,624.881 504.36,624.729C504.644,624.539 505.321,624.867 505.642,624.729C505.854,624.637 506.038,623.656 506.282,623.505C507.08,623.015 508.072,623.16 508.846,622.282C511.146,623.552 515.776,622.599 519.099,622.893C519.842,622.118 521.706,621.088 522.304,621.059C523.224,621.013 523.375,619.878 524.226,619.835C525.851,619.753 527.004,616.831 528.072,616.776C529.537,616.702 530.95,614.098 531.276,613.718C531.439,613.528 532.323,613.848 532.557,613.718C532.648,613.668 532.487,613.189 532.557,613.106C532.71,612.927 533.606,613.211 533.839,613.106C533.919,613.07 533.777,612.566 533.839,612.495C533.945,612.371 534.931,612.515 535.121,612.495C537.213,612.276 541.084,613.81 541.53,614.329C541.675,614.498 542.583,614.242 542.811,614.329C544.42,614.943 546.822,615.61 547.297,616.164C547.45,616.343 548.346,616.059 548.579,616.164C548.659,616.2 548.517,616.704 548.579,616.775C548.727,616.948 549.63,616.68 549.86,616.775C550.732,617.135 551.538,617.669 552.423,617.999C553.239,618.302 558.18,620.313 557.55,619.222C556.58,618.381 555.308,618.07 554.346,617.387C553.556,616.826 552.689,615.568 551.783,614.94C551.204,614.54 550.368,614.699 549.86,614.328C548.819,613.568 547.992,612.389 547.297,611.882C546.745,611.479 545.979,611.683 545.375,611.27C544.403,610.607 543.832,609.534 542.811,608.824C542.235,608.423 541.394,608.582 540.888,608.212C540.423,607.873 540.166,607.358 539.606,606.988C537.559,605.637 535.586,604.099 533.198,603.319C517.092,610.169 504.401,620.28 493.466,632.067C493.531,632.754 492.534,633.02 493.466,633.291C493.804,631.75 495.292,631.772 496.028,631.456ZM619.713,713.419C618.398,712.193 616.023,708.547 615.226,709.747C616.866,711.054 618.56,713.74 619.713,714.641C619.921,714.806 619.551,715.644 619.713,715.865C620.025,716.294 620.63,716.562 620.994,717.089C621.648,718.039 622.484,718.907 622.917,720.147C623.707,722.422 623.117,724.792 624.199,727.488C622.808,728.265 622.9,729.954 622.276,731.159C622.105,731.485 621.2,731.999 620.994,732.383C620.532,733.243 620.73,733.955 620.353,734.827C620.97,738.112 624.861,738.273 625.478,741.557C621.82,742.345 621.45,746.273 617.789,747.061C616.83,746.141 616.643,744.486 615.226,744.002C614.748,747.752 610.502,750.039 612.022,753.789C608.898,754.782 608.731,758.524 606.896,760.517C606.029,761.459 604.591,761.694 603.692,762.352C602.426,763.28 602.129,764.666 600.487,764.8C598.993,765.322 597.726,762.659 597.284,764.187C599.93,764.948 597.04,765.967 596.643,767.246C593.21,767.826 592.156,773.296 589.592,770.305C589.097,769.727 589.05,768.811 588.31,768.47C587.912,766.813 585.633,766.949 585.747,764.801C587.676,762.969 590.828,762.309 591.516,759.294C590.228,755.908 588.355,753.058 587.671,749.508C587.352,747.856 587.81,746.542 587.671,744.616C587.604,743.682 587.146,742.799 587.029,741.557C586.763,738.725 586.56,736.526 586.388,734.827C586.176,732.716 586.636,731.174 586.388,730.547C586.333,730.406 585.241,730.106 585.106,729.936C584.661,729.368 584.927,728.589 584.465,728.101C582.822,726.362 581.476,726.159 579.338,726.265C578.85,726.288 578.735,726.871 578.697,726.877C574.686,727.455 571.538,726.297 568.445,727.488C565.027,724.838 562.492,721.343 560.113,717.703C561.546,717.437 560.372,714.686 560.753,713.421C561.744,712.531 561.318,710.289 561.395,708.525C562.948,708.278 563.148,706.462 563.958,705.468C564.972,704.226 566.176,703.633 567.164,702.409C567.592,701.877 567.373,701.163 567.804,700.574C568.178,700.064 569.307,699.851 569.726,699.35C569.928,699.109 569.59,698.415 569.726,698.126C569.792,697.987 570.859,697.658 571.008,697.515C571.823,696.738 571.584,696.734 572.93,696.291C574.429,695.799 576.286,696.56 578.698,696.291C582.361,695.884 585.752,695.345 590.234,695.68C589.703,694.537 586.57,695.11 585.747,695.069C585.286,695.046 585.107,694.457 585.106,694.457C580.303,693.895 577.507,693.948 573.572,693.233C571.767,692.905 569.294,693.149 568.446,691.398C568.765,689.682 570.015,688.061 570.368,685.894C570.845,682.959 570.01,679.301 570.368,676.107C570.371,673.535 567.68,673.538 569.086,671.214C570.001,671.067 570.167,670.206 571.008,669.99C574.908,670.345 577.636,673.6 579.98,675.495C580.273,675.732 581.782,678.638 581.903,676.107C581.979,671.956 580.792,669.011 581.262,664.485C584.532,659.452 588.329,654.92 591.515,649.805C592.642,649.453 595.281,650.544 595.361,649.193C587.341,642.576 579.462,635.824 571.008,629.62C570.564,632.66 569.226,636.241 569.086,638.795C569.056,639.356 568.488,639.251 568.446,639.407C567.696,642.117 567.312,645.63 565.882,646.747C565.694,646.893 565.992,647.748 565.882,647.971C565.844,648.047 565.317,647.912 565.242,647.971C565.033,648.134 565.401,648.973 565.242,649.194C565.053,649.454 564.236,650.153 563.959,650.418C562.497,651.815 560.822,652.573 559.473,653.477C559.068,653.748 558.645,654.432 558.192,654.7C557.564,655.073 556.98,654.925 556.269,655.311C555.899,655.513 555.414,656.316 554.988,656.534C554.297,656.889 553.622,656.839 553.065,657.146C550.893,658.344 548.639,659.621 546.657,660.816C546.269,661.049 545.805,661.784 545.376,662.039C544.754,662.408 544.149,662.261 543.453,662.651C543.078,662.861 542.594,663.639 542.172,663.874C541.437,664.282 540.848,664.581 539.608,664.485C539.307,660.174 537.259,654.31 537.045,650.417C537.017,649.907 536.423,649.897 536.404,649.805C535.823,647.047 535.8,644.703 535.123,643.689C534.573,642.866 533.871,641.779 533.841,641.242C533.802,640.534 533.43,640.97 533.2,640.63C532.253,639.234 531.636,637.422 529.996,636.96C531.541,646.745 530.119,657.53 530.637,668.155C530.689,669.222 531.172,670.098 531.278,671.214C531.56,674.172 531.065,676.923 531.278,679.777C529.774,680.057 528.775,681.576 528.074,681.612C526.809,681.675 526.59,683.392 525.511,683.446C524.785,683.483 525.208,683.879 524.87,684.058C524.27,684.376 523.585,684.282 522.947,684.67C522.67,684.838 522.597,685.685 522.307,685.894C521.784,686.268 520.855,686.201 520.384,686.505C520.285,686.57 520.464,687.025 520.384,687.117C520.213,687.317 519.333,686.963 519.102,687.117C518.69,687.391 518.31,688 517.82,688.341C515.053,690.264 512.134,692.067 509.489,693.845C509.388,693.914 509.57,694.362 509.489,694.457C509.318,694.658 508.438,694.304 508.208,694.457C507.795,694.731 507.416,695.34 506.926,695.68C506.046,696.291 505.214,696.933 504.362,697.515C503.936,697.806 503.481,697.848 503.08,698.126C502.672,698.411 502.231,699.044 501.799,699.35C501.385,699.643 500.911,699.686 500.517,699.961C500.109,700.247 499.668,700.879 499.235,701.185C497.571,702.359 495.662,703.581 494.109,704.856C492.458,706.208 490.167,707.419 489.622,709.747C490.929,711.06 492.014,712.142 493.468,713.419C494.091,713.966 494.645,714.695 495.391,715.254C497.275,716.664 498.84,716.796 501.158,717.088C504.845,717.553 509.295,718.389 512.693,718.923C514.524,719.21 516.316,719.199 517.82,719.536C517.87,719.547 517.778,720.098 517.82,720.145C517.861,720.192 520.445,720.776 520.383,720.757C522.1,721.262 523.834,721.522 524.228,721.981C524.373,722.15 525.282,721.893 525.51,721.981C527.049,722.569 528.971,723.128 530.636,723.204C535.546,727.803 541.511,731.096 546.016,735.438L546.016,744.001C545.884,744.521 545.665,744.846 545.376,745.225C545.075,745.617 544.383,746.01 544.094,746.448C543.326,747.616 543.454,748.552 542.812,749.507C542.634,749.774 541.749,749.839 541.531,750.119C541.14,750.617 541.208,751.504 540.889,751.954C540.619,752.336 539.885,752.752 539.607,753.178C539.152,753.877 538.972,754.508 538.326,755.013C538.116,755.176 538.487,756.015 538.326,756.237C538.014,756.664 537.408,756.932 537.044,757.461C536.314,758.521 535.834,759.574 535.122,760.518C534.905,760.805 534.079,760.828 533.84,761.129C533.426,761.656 533.57,762.495 533.199,762.964C532.879,763.372 532.292,763.719 531.918,764.188C529.992,766.591 526.405,767.186 523.587,767.86C522.205,768.189 522.696,769.409 521.023,769.084C519.139,773.401 519.865,780.21 519.741,786.208C517.761,785.448 516.303,784.19 515.256,782.54C513.294,782.059 512.044,780.349 510.77,778.868C509.844,777.793 508.69,776.635 508.207,775.199C507.961,774.47 508.347,773.509 508.207,772.751C508.06,771.959 507.656,771.897 507.566,770.919C506.97,764.428 508.013,756.352 507.566,749.509C506.896,747.681 505.108,746.77 504.361,745.839C503.975,745.358 504.148,744.492 503.72,744.004C502.34,742.431 499.578,741.604 499.234,739.11C500.274,739.011 499.702,737.614 499.875,736.665C500.422,733.663 500.782,730.277 500.516,726.878C498.13,724.823 493.836,722.768 491.544,721.372C490.217,720.565 485.999,718.357 485.135,718.315C484.432,718.278 484.803,717.842 484.494,717.704C483.558,717.279 482.848,717.486 481.931,717.091C481.703,716.992 481.561,716.01 481.29,715.867C480.436,715.421 479.521,715.745 478.727,715.257C478.522,715.13 478.254,714.231 478.086,714.032C477.911,713.83 477.029,714.199 476.804,714.032C476.183,713.571 475.558,712.672 474.882,712.198C472.817,710.747 470.428,709.243 469.114,707.915C468.013,706.804 467.702,705.107 467.192,704.246L467.192,698.742C467.083,697.827 467.421,696.485 466.551,696.294L466.551,699.353C466.297,704.912 466.67,711.412 467.192,715.257C467.373,716.588 467.617,718.144 467.833,719.539C468.242,722.173 468.636,727.227 469.755,728.102C469.913,728.225 469.694,729.118 469.755,729.325C470.324,731.249 470.668,732.805 471.037,734.218C471.144,734.626 471.653,734.752 471.678,734.829C472.2,736.49 471.772,737.588 472.319,739.111C472.409,739.362 473.455,740.009 473.601,740.335C474.328,741.952 473.803,742.62 474.242,744.005C474.313,744.231 475.392,744.922 475.524,745.229C476.36,747.175 476.696,749.404 477.447,750.734C477.641,751.078 478.519,751.555 478.729,751.958C479.291,753.043 479.405,754.57 480.01,755.628C480.058,755.712 480.568,755.564 480.651,755.628C480.86,755.79 480.49,756.63 480.651,756.852C480.974,757.292 481.569,757.519 481.933,758.076C482.53,758.985 483.258,760.209 483.855,761.133C485.191,763.202 486.497,765.641 487.7,767.25C487.913,767.535 488.744,767.56 488.982,767.863C489.396,768.389 489.252,769.225 489.622,769.697C490.394,770.676 491.497,771.329 492.186,772.143C493.744,773.985 495.066,776.006 496.672,777.647C500.554,781.621 505.644,785.592 509.489,788.658C510.408,789.391 511.124,790.438 512.053,791.105C512.607,791.502 513.48,791.354 513.975,791.716C514.442,792.057 514.692,792.57 515.257,792.94C516.455,793.723 517.982,794.828 518.461,795.386C518.632,795.585 519.511,795.232 519.742,795.386C520.19,795.682 520.472,796.262 521.024,796.608C522.129,797.303 523.077,797.802 524.228,798.445C524.874,798.805 525.417,798.68 526.151,799.055C526.508,799.239 527.03,800.056 527.433,800.28C528.462,800.85 529.488,801.179 529.996,801.504C531.288,802.325 533.097,803.033 535.123,802.726C535.484,804.345 537.707,804.614 538.968,805.173C540.526,805.863 541.991,806.514 543.454,807.008C545.75,807.783 550.229,808.388 551.144,809.454C551.278,809.609 552.825,809.443 553.066,809.454C553.637,809.483 553.565,810.033 553.707,810.066C555.354,810.449 557.634,810.324 559.474,810.677C559.525,810.686 559.429,811.245 559.474,811.288C559.794,811.595 561.562,811.194 562.038,811.288C570.276,812.931 581.896,813.226 590.236,812.512C594.039,812.188 596.846,812.053 599.848,811.901C600.347,811.878 600.438,811.297 600.489,811.289C604.995,810.592 609.744,809.993 613.947,808.845C616.63,808.108 619.542,806.501 621.637,806.398C622.298,806.365 622.02,805.878 622.279,805.787C623.996,805.165 625.026,805.096 625.481,804.563C625.635,804.383 626.531,804.667 626.764,804.563C626.843,804.526 626.702,804.021 626.764,803.95C626.913,803.776 627.815,804.048 628.044,803.95C628.122,803.919 627.986,803.407 628.044,803.34C628.19,803.171 629.099,803.427 629.327,803.34C630.827,802.765 631.908,802.107 633.173,801.505C634.157,801.034 635.529,800.726 636.377,800.281C636.859,800.026 636.826,799.1 637.658,799.056C638.835,798.998 639.298,797.878 640.221,797.832C640.953,797.796 640.518,797.413 640.862,797.222C642.56,796.274 643.813,795.819 644.708,794.776C644.878,794.577 645.759,794.924 645.99,794.776C646.776,794.273 647.165,793.463 647.912,792.941C648.573,792.477 648.687,792.308 649.195,791.717C649.368,791.512 650.249,791.882 650.476,791.717C651.115,791.254 651.698,790.422 652.397,789.882C653.347,789.149 654.278,788.589 654.96,788.047C657.816,785.781 660.036,783.201 662.651,780.706C665.391,778.091 668.857,776.043 670.341,772.754C668.593,772.775 668.154,770.283 667.777,769.697C667.468,769.217 666.525,768.384 666.496,767.863C666.402,766.169 664.047,764.365 663.933,762.967C658.655,764.048 652.685,764.467 647.271,765.414C645.862,762.885 644.967,759.866 644.066,756.851C645.328,755.812 645.786,754.006 645.989,751.957C649.562,749.758 653.179,747.822 656.884,745.84C658.267,745.101 659.948,744.55 660.729,744.005C661.135,743.722 661.541,743.033 662.011,742.783C662.962,742.272 664.016,742.146 665.214,741.559C665.299,741.517 665.151,741.021 665.214,740.946C665.365,740.77 666.264,741.049 666.496,740.946C666.869,740.783 667.308,739.861 668.418,740.335C668.365,742.077 669.647,742.426 669.7,743.394C669.737,744.071 670.182,743.702 670.342,744.005C670.967,745.209 670.875,746.898 672.264,747.675C671.913,746.423 673.173,746.372 673.546,745.84C673.743,745.56 673.398,744.931 673.546,744.618C673.634,744.428 674.667,744.215 674.827,744.005C675.698,742.847 676.024,740.579 678.03,740.335C678.887,742.499 679.648,745.048 680.593,747.064C680.739,747.374 681.706,747.911 681.875,748.286C682.027,748.627 681.782,749.149 681.875,749.511C682.228,750.857 683.188,752.526 684.438,753.182C684.736,750.407 687.047,749.554 687.002,746.453C680.086,737.079 672.299,727.195 665.212,718.929C664.69,718.321 663.911,717.742 663.291,717.094C662.777,716.559 662.802,714.726 661.367,715.26C660.85,717.255 659.073,720.665 658.163,721.375C657.989,721.51 658.249,722.383 658.163,722.599C657.875,723.33 657.464,723.98 656.882,724.434C656.666,724.602 657.064,725.448 656.882,725.658C656.506,726.094 655.645,726.098 654.958,726.269C653.018,726.751 651.608,726.051 649.833,725.046C648.848,724.49 648.858,723.257 647.909,723.21C646.18,723.124 646.519,721.468 644.705,721.375C643.966,721.338 644.42,720.981 644.064,720.764C641.889,719.432 640.074,717.283 638.936,715.87C639.138,715.044 639.849,714.703 639.578,713.425C637.627,712.434 636.849,710.321 635.734,708.529C634.421,708.571 633.433,709.566 632.529,710.366C629.707,712.855 627.898,715.841 624.838,717.707C623.359,716.541 621.362,714.955 619.713,713.419ZM479.366,651.64C479.169,651.794 479.496,652.639 479.366,652.864C479.162,653.213 478.293,653.677 478.084,654.088C477.574,655.087 477.225,656.232 476.802,657.146C476.393,658.031 474.913,659.356 476.161,660.205C477.436,656.324 479.656,653.346 481.288,649.806C481.223,649.12 482.219,648.854 481.288,648.583C480.921,649.721 479.617,651.445 479.366,651.64ZM622.277,665.708C621.292,666.469 620.624,667.42 619.714,668.155C619.235,668.541 618.244,668.429 617.79,668.767C617.25,669.168 617.045,670.174 616.509,670.601C615.509,671.4 614.379,671.577 613.305,672.436C612.909,672.752 612.432,673.298 612.023,673.659C611.489,674.133 610.75,674.509 610.743,675.494C618.221,677.754 625.317,680.477 631.89,682.834C634.317,683.704 636.894,684.877 639.579,685.281C638.544,677.946 636.985,669.882 635.735,663.261C635.253,660.714 635.86,657.749 633.812,656.532C630.052,659.658 626.16,662.709 622.277,665.708ZM690.847,709.137C690.582,710.399 689.911,712.9 689.566,713.419C688.683,714.739 688.613,715.107 687.643,715.864C687.431,716.029 687.808,716.869 687.643,717.088C686.96,717.996 685.768,718.045 685.72,718.923C685.682,719.629 685.428,719.203 685.079,719.536C683.981,720.582 682.008,720.273 681.233,719.536C680.85,719.17 679.195,719.735 678.67,719.536C676.188,718.581 674.858,715.217 672.262,714.029C672.264,713.691 671.743,713.335 671.621,714.029C673.553,715.621 675.169,717.615 676.749,719.536C677.141,720.012 677.689,720.334 678.028,720.758C678.439,721.271 678.238,722.048 678.67,722.593C679.282,723.364 680.309,724.003 680.592,724.428C680.89,724.872 680.923,725.256 681.234,725.652C681.862,726.448 683.164,727.305 683.798,728.099C684.223,728.63 684.008,729.345 684.438,729.934C684.813,730.445 685.96,730.642 686.362,731.158C686.756,731.665 686.675,732.538 687.003,732.991C687.152,733.202 688.063,733.43 688.284,733.602C688.498,733.77 688.109,734.612 688.284,734.826C688.565,735.174 689.218,735.693 689.566,736.05C690.062,736.563 690.456,737.267 691.487,737.274C693.179,730.211 696.012,721.451 696.615,712.197C697.085,704.957 696.648,695.537 695.974,690.177C695.813,688.903 696.628,687.428 695.332,686.507C693.865,691.968 692.033,703.458 690.847,709.137Z"/>
    </g>
</svg>
