<?xml version="1.0" encoding="UTF-8" standalone="no"?>
<!DOCTYPE svg PUBLIC "-//W3C//DTD SVG 1.1//EN" "http://www.w3.org/Graphics/SVG/1.1/DTD/svg11.dtd">
<svg width="100%" height="100%" viewBox="0 0 1163 1409" version="1.1" xmlns="http://www.w3.org/2000/svg" xmlns:xlink="http://www.w3.org/1999/xlink" xml:space="preserve" xmlns:serif="http://www.serif.com/" style="fill-rule:evenodd;clip-rule:evenodd;stroke-linejoin:round;stroke-miterlimit:2;">
    <g id="传统1">
        <path d="M570.901,692.354C572.178,692.079 572.318,692.939 572.403,693.855C579.182,700.493 587.012,706.388 593.418,713.366C594.332,714.363 593.955,716.882 594.92,717.869C595.384,718.345 597.51,717.364 597.922,717.869C598.166,718.17 597.675,719.074 597.922,719.372C599.398,721.148 600.808,723.604 602.426,725.375C605.459,728.697 611.028,730.452 611.433,735.882C606.142,740.614 602.436,746.875 597.922,752.393C595.842,754.939 592.423,757.373 590.416,759.9C588.149,762.75 586.983,766.511 584.411,768.905C579.212,766.145 576.529,760.716 572.403,756.898C571.536,756.093 570.237,754.534 569.4,753.895C568.34,753.083 566.02,753.333 564.897,752.393C559.665,748.013 554.164,740.279 548.384,734.38C544.835,730.76 538.856,728.251 537.876,722.374C540.134,719.745 544.217,718.714 546.883,716.368C549.19,714.341 550.592,710.905 552.887,708.865C559.172,703.279 566.196,700.007 570.901,692.354Z"/>
        <path d="M509.354,839.451L489.838,839.451C489.817,839.351 489.865,837.953 489.838,837.953C473.345,837.049 456.359,833.268 444.803,828.945C440.482,827.328 435.836,825.523 432.794,822.942C439.041,822.02 445.59,822.811 450.808,821.441C450.933,821.407 450.705,820.064 450.808,819.94C451.147,819.525 453.275,820.152 453.81,819.94C460.064,817.437 464.866,814.889 468.822,810.932C472.16,807.596 473.507,804.783 474.826,801.926C475.206,801.104 476.291,799.622 476.327,798.924C476.404,797.454 477.665,797.93 477.828,797.423C479.206,793.147 478.818,787.681 479.329,782.412C479.812,777.431 479.6,770.695 480.83,765.901C480.91,765.587 482.043,765.551 482.331,764.4C482.794,762.546 482.604,762.404 483.831,761.398C484.269,761.041 483.573,758.94 483.831,758.398C483.92,758.21 485.156,758.541 485.332,758.398C485.808,758.008 484.997,755.945 485.332,755.395C486.094,754.148 488.941,752.005 489.835,750.891C492.34,747.772 494.053,745.049 495.84,743.387C497.064,742.248 498.866,742.886 500.344,741.886C501.461,741.13 501.405,738.986 503.346,738.884C505.492,738.771 511.868,734.973 512.353,734.379C512.692,733.968 514.821,734.593 515.355,734.379C518.074,733.294 524.347,730.858 527.365,731.378C531.339,732.066 536.352,737.459 540.875,741.886C545.345,746.261 549.565,752.075 552.884,755.395C559.803,762.313 567.264,767.567 572.401,773.408C573.829,775.031 577.846,778.27 575.403,780.912C567.477,811.014 549.262,830.826 518.359,837.952C515.721,838.814 509.541,836.136 509.354,839.451Z"/>
        <path d="M727.023,564.77L736.03,564.77L736.03,569.274C732.808,567.39 735.282,577.937 733.029,579.78C732.853,579.924 731.615,579.592 731.528,579.78C731.27,580.325 731.966,582.425 731.528,582.782C731.351,582.924 730.114,582.596 730.026,582.782C729.77,583.324 730.462,585.426 730.026,585.784C729.85,585.926 728.612,585.596 728.525,585.784C728.266,586.328 728.963,588.426 728.525,588.784C727.053,589.99 726.596,590.104 725.521,591.786C725.199,592.294 724.518,595.885 724.021,596.29C721.745,598.151 721.605,599.069 719.518,602.294C718.979,603.125 718.107,602.06 718.017,603.795C717.956,604.918 715.061,607.748 713.514,609.797C712.375,611.305 711.678,612.776 710.511,614.301C709.367,615.795 703.155,620.435 703.006,623.306C702.894,625.401 697.178,627.442 696.999,630.812C696.868,633.311 689.694,636.014 689.495,639.817C689.351,642.52 682.185,645.068 681.988,648.824C681.837,651.698 674.111,657.611 671.48,660.832C670.084,662.538 669.91,665.163 668.478,666.836C667.386,668.106 665.035,668.569 663.973,669.836C662.466,671.636 662.624,673.914 660.97,675.841C659.885,677.108 657.516,677.574 656.467,678.843C655.289,680.267 654.738,683.36 653.464,684.846C652.383,686.111 650.001,686.582 648.961,687.848C648.536,688.366 649.466,690.438 648.961,690.85C638.502,699.406 629.887,714.893 618.938,725.372C606.806,710.984 592.039,699.233 579.907,684.845C586.45,680.393 591.938,675.218 597.921,669.835C602.339,665.864 606.337,662.139 611.432,657.828C611.867,657.46 612.528,655.009 612.933,654.826C613.601,654.525 615.406,655.299 615.935,654.826C621.808,649.599 626.556,643.539 632.449,638.315C638.406,633.036 644.638,628.387 650.464,623.305C651.921,622.034 653.402,620.047 654.968,618.804C657.697,616.636 660.527,614.214 663.974,611.297C664.41,610.928 665.068,608.479 665.475,608.295C666.149,607.992 667.937,608.768 668.479,608.295C671.322,605.809 673.158,601.798 675.983,599.291C676.486,598.845 678.572,599.799 678.986,599.291C680.457,597.496 682.315,594.011 684.991,591.784C686.796,590.283 689.067,590.435 690.994,588.782C692.224,587.728 692.736,585.234 693.998,584.28C694.528,583.878 696.592,584.779 697,584.28C698.013,583.043 698.746,579.921 701.505,579.777C701.944,579.754 704.007,578.619 704.507,578.276C706.015,577.238 707.27,575 709.009,573.772C709.549,573.394 711.61,574.265 712.013,573.772C712.347,573.366 713.121,570.993 713.515,570.772C714.063,570.464 716.137,571.233 716.516,570.772C716.66,570.596 716.328,569.359 716.516,569.271C717.062,569.012 719.159,569.708 719.519,569.271C720.696,567.832 724.796,567.705 727.023,564.77Z"/>
    </g>
</svg>
