<?xml version="1.0" encoding="UTF-8" standalone="no"?>
<!DOCTYPE svg PUBLIC "-//W3C//DTD SVG 1.1//EN" "http://www.w3.org/Graphics/SVG/1.1/DTD/svg11.dtd">
<svg width="100%" height="100%" viewBox="0 0 1163 1409" version="1.1" xmlns="http://www.w3.org/2000/svg" xmlns:xlink="http://www.w3.org/1999/xlink" xml:space="preserve" xmlns:serif="http://www.serif.com/" style="fill-rule:evenodd;clip-rule:evenodd;stroke-linejoin:round;stroke-miterlimit:2;">
    <g id="自由1">
        <path d="M402.615,598.456C406.768,599.22 411.532,599.899 414.993,601.071C416.112,601.451 416.012,602.127 417.428,602.494C432.915,606.515 449.285,609.416 464.96,613.442C468.503,614.353 471.982,615.708 475.355,616.546C519.808,627.614 561.767,637.444 605.137,648.502C620.859,652.512 636.87,655.338 652.669,659.451C653.559,659.683 653.522,660.375 654.22,660.688C657.156,662.001 660.377,661.942 663.062,662.555C671.839,664.56 679.836,666.755 686.72,668.461C690.99,669.52 695.011,670.066 699.099,671.076C722.949,676.969 746.532,683.358 769.187,688.606C773.005,689.49 777.524,689.938 781.568,691.222C784.539,692.166 790.543,693.04 789.543,696.54C786.696,699.195 782.247,699.157 778.518,699.665C776.454,699.946 774.116,699.809 771.895,700.083C768.902,700.453 766.888,701.096 764.171,701.178C761.944,701.246 760.363,701.724 758.434,701.784C756.741,701.836 754.955,702.405 753.579,702.576C750.843,702.913 747.341,703.626 745.856,703.671C744.543,703.712 743.951,703.817 742.986,703.975C742.75,704.013 742.34,703.824 742.101,703.787C741.195,703.643 741.365,704.418 741,704.463C738.451,704.782 738.28,704.333 736.362,704.392C735.656,704.414 735.489,705.039 735.261,705.067C730.657,705.656 724.033,706.485 720.914,706.582C719.574,706.622 719.047,706.527 718.044,706.884C714.731,708.063 709.284,707.776 706.568,708.095C705.328,708.241 704.463,708.005 702.813,708.211C702.409,708.262 701.14,709.461 700.612,709.563C699.281,709.823 697.781,709.542 696.859,709.678C694.914,709.969 692.067,709.061 690.903,711.146C685.617,723.647 680.46,736.009 674.967,748.671C672.013,755.486 667.822,763.804 665.799,770.36C665.599,771.009 664.719,770.989 664.699,771.038C664.141,772.367 664.298,774.08 663.614,775.351C663.423,775.71 662.456,776.167 662.515,776.028C661.088,779.362 659.791,785.205 658.147,786.01C657.93,786.115 657.81,787.485 657.713,787.735C656.727,790.303 656.321,790.754 655.745,791.863C655.21,792.895 655.336,794.248 654.88,795.315C651.338,803.612 646.775,812.608 643.961,820.268C643.524,821.459 642.756,821.908 642.427,822.671C639.697,828.99 637.544,835.69 634.792,841.959C634.43,842.781 633.814,842.813 633.475,843.497C633.085,844.284 633.19,845.289 632.826,846.085C630.397,851.399 628.909,856.127 625.607,860.008C621.758,859.995 620.565,856.265 619.4,855.064C619.14,854.797 618.114,853.898 617.848,853.828C616.83,853.557 617.591,853.231 617.181,852.778C614.837,850.193 612.229,847.547 609.854,844.87C609.389,844.348 609.057,843.29 608.519,842.769C606.92,841.228 605.71,840.46 604.748,839.248C603.352,837.491 602.314,836.154 601.193,834.861C596.616,829.588 592.408,825.139 588.092,820.282C586.926,818.969 585.741,817.314 584.537,815.895C583.337,814.481 582.509,814.21 581.432,813.422C581.192,813.246 581.229,811.788 580.982,811.51C579.858,810.252 578.47,809.333 577.21,807.987C576.074,806.771 575.365,804.928 574.323,804.652C573.306,804.382 574.066,804.062 573.656,803.603C572.421,802.216 571.634,801.921 570.552,801.128C570.305,800.947 570.362,799.496 570.102,799.217C569.45,798.511 568.24,798.399 567.665,797.792C567.413,797.526 567.389,796.23 567.214,795.88C567.046,795.544 565.705,795.798 565.445,795.506C564.416,794.353 563.814,792.546 562.775,791.307C561.583,789.887 560.744,789.62 559.671,788.835C559.431,788.658 559.47,787.2 559.221,786.923C558.564,786.189 557.353,786.169 556.784,785.499C556.285,784.911 556.038,784.067 555.45,783.399C554.38,782.186 553.552,780.326 552.563,780.062C551.545,779.793 552.303,779.479 551.896,779.012C550.801,777.768 549.15,776.664 548.123,775.49C546.772,773.949 545.887,772.602 544.57,771.105C543.501,769.891 542.672,768.033 541.683,767.77C540.665,767.499 541.423,767.188 541.016,766.719C540.382,765.993 539.283,766.055 538.579,765.296C537.969,764.638 538.073,763.023 537.461,762.333C536.809,761.602 535.591,761.577 535.024,760.909C534.525,760.322 534.276,759.478 533.687,758.809C532.62,757.597 531.791,755.737 530.801,755.473C529.784,755.203 530.543,754.89 530.134,754.424C529.499,753.701 528.4,753.758 527.697,753C527.088,752.342 527.194,750.727 526.579,750.039C525.96,749.345 524.7,749.204 524.141,748.616C523.89,748.349 523.865,747.054 523.69,746.702C523.523,746.367 522.182,746.62 521.922,746.328C520.898,745.183 520.227,743.278 519.251,742.131C518.626,741.395 517.522,741.468 516.816,740.707C516.204,740.049 516.31,738.434 515.698,737.744C515.079,737.051 513.818,736.909 513.26,736.32C513.009,736.055 512.984,734.759 512.809,734.408C512.643,734.076 511.306,734.319 511.041,734.034C510.579,733.534 510.241,732.552 509.706,731.934C508.962,731.078 508.22,730.489 507.487,729.649C506.404,728.409 505.924,726.717 504.816,725.451C504.216,724.763 502.928,724.605 502.38,724.027C502.13,723.761 502.105,722.464 501.929,722.115C501.763,721.779 500.422,722.032 500.161,721.741C499.215,720.684 498.412,718.628 497.49,717.541C496.865,716.806 495.761,716.879 495.054,716.12C494.445,715.462 494.553,713.842 493.936,713.156C493.342,712.495 492.043,712.258 491.5,711.733C491.057,711.306 490.624,710.134 490.165,709.632C488.911,708.268 488.145,707.954 487.061,707.16C486.821,706.985 486.855,705.526 486.609,705.248C485.973,704.526 484.877,704.581 484.174,703.825C483.566,703.169 483.684,701.533 483.055,700.862C482.439,700.204 481.172,699.95 480.618,699.439C480.424,699.259 480.305,698.737 479.951,698.389C479.411,697.855 478.872,697.683 478.4,697.153C477.376,696.004 476.705,694.102 475.729,692.953C475.104,692.217 474,692.291 473.294,691.53C472.683,690.874 472.791,689.254 472.174,688.569C471.597,687.927 470.27,687.636 469.737,687.145C469.542,686.966 469.423,686.443 469.07,686.095C467.669,684.711 467.152,683.876 466.183,682.76C465.439,681.903 464.703,681.307 463.963,680.473C463.499,679.95 463.168,678.894 462.628,678.373C461.029,676.83 459.82,676.064 458.856,674.85C457.463,673.095 456.422,671.757 455.3,670.466C454.558,669.608 453.827,669.008 453.083,668.179C452.048,667.029 451.205,665.113 450.195,664.844C449.178,664.573 449.938,664.255 449.527,663.794C447.184,661.152 444.569,658.549 442.202,655.884C441.578,655.183 441.394,654.408 440.865,653.786C440.263,653.077 439.072,653.113 438.43,652.363C437.523,651.303 436.947,649.726 436.428,649.213C435.885,648.678 435.344,648.513 434.875,647.977C433.782,646.726 433.29,644.961 432.204,643.777C431.56,643.075 430.339,642.955 429.769,642.355C429.517,642.088 429.492,640.793 429.318,640.442C429.15,640.106 427.809,640.36 427.55,640.068C427.11,639.574 426.693,638.571 426.215,637.969C424.82,636.213 423.782,634.875 422.659,633.583C420.141,630.68 417.152,627.964 415.335,625.675C413.33,623.151 411.141,620.825 409.559,619.003C408.508,617.79 407.648,615.927 406.672,615.668C405.655,615.397 406.414,615.078 406.005,614.617C404.952,613.437 403.402,612.319 402.233,611.096C401.774,610.615 401.4,609.513 400.898,608.996C400.64,608.73 399.613,607.83 399.346,607.76C398.094,607.427 396.887,605.882 396.242,605.287C396.048,605.108 395.927,604.584 395.575,604.237C393.773,602.457 390.261,601.128 391.569,597.939C394.388,595.298 398.958,597.783 402.615,598.456ZM446.861,615.071C447.218,617.091 449.617,616.281 451.065,616.868C451.945,617.223 452.903,617.931 454.385,618.478C456.992,619.437 459.679,620.125 462.128,621.021C464.621,621.934 467.285,622.603 469.869,623.565C469.919,623.584 469.872,624.439 470.536,624.615C471.389,624.841 472.366,624.872 473.19,625.176C497.519,634.095 527.529,645.195 553.275,654.813C558.383,656.722 563.664,658.084 568.758,659.901C568.784,659.91 568.778,660.778 569.425,660.95C574.029,662.176 578.654,663.846 584.024,665.851C586.514,666.78 589.026,667.337 591.767,668.394C591.835,668.421 591.752,669.263 592.433,669.444C593.285,669.672 594.261,669.703 595.087,670.004C596.776,670.624 597.243,671.193 598.406,671.614C605.073,674.031 611.715,676.161 618.094,678.499C618.882,678.789 620.017,678.661 620.746,679.06C621.832,679.652 626.116,681.519 629.157,682.652C638.768,686.244 649.502,689.788 659.905,693.691C662.368,694.615 665.207,695.327 667.646,696.235C667.696,696.253 667.648,697.107 668.314,697.283C669.166,697.512 670.143,697.542 670.965,697.843C673.973,698.947 677.558,700.392 682.028,701.998C685.051,703.085 687.421,704.229 689.767,704.542C692.466,704.901 695.236,704.084 698.376,703.634C698.716,703.585 699.89,704.198 700.143,704.007C701.793,702.762 705.421,703.451 708.752,703.098C709.088,703.063 708.965,702.284 709.852,702.423C710.324,702.497 714.233,701.977 715.591,701.817C718.016,701.534 720.496,701.127 723.316,700.722C723.656,700.673 724.831,701.288 725.084,701.097C725.937,700.452 727.017,700.096 728.17,699.93C728.511,699.882 729.684,700.496 729.939,700.303C731.627,699.028 735.104,699.758 738.546,699.395C738.883,699.359 738.76,698.58 739.648,698.719C739.896,698.758 740.281,698.936 740.533,698.905C743.939,698.484 747.044,697.688 750.241,697.322C757.136,696.533 763.658,695.886 770.326,695.204C768.859,693.085 764.629,693.257 760.815,692.286C759.216,691.88 757.296,691.789 755.51,691.167C750.53,689.43 740.427,687.39 732.736,685.447C702.388,677.778 669.379,668.937 637.221,661.638C610.167,655.497 579.915,647.435 551.218,640.745C549.188,640.271 547.749,640.203 545.912,639.624C534.917,636.157 516.818,631.805 503.904,628.934C497.671,627.548 491.634,625.687 485.55,624.149C479.004,622.495 472.517,621.707 466.097,620.04C464.68,619.672 464.78,618.996 463.66,618.617C458.14,616.751 452.352,616.761 446.861,615.071ZM411.058,609.326C408.898,608.755 409.289,610.065 410.842,610.189C413.319,613.976 417.266,616.224 420.604,619.521C420.957,619.868 421.078,620.391 421.273,620.571C421.918,621.166 423.123,622.71 424.376,623.044C424.644,623.115 425.67,624.014 425.928,624.279C426.39,624.755 426.827,625.979 427.263,626.379C428.215,627.248 429.649,627.068 430.584,627.989C431.155,628.551 431.178,629.413 431.919,630.088C432.42,630.545 432.95,630.81 433.471,631.325C433.823,631.672 433.944,632.194 434.138,632.375C434.784,632.969 435.99,634.515 437.242,634.847C437.52,634.92 438.522,635.811 438.794,636.084C439.896,637.188 440.898,638.099 442.565,639.606C443.216,640.194 443.413,641.264 443.9,641.706C444.896,642.606 446.145,642.441 447.22,643.315C447.735,643.733 448.118,645.032 448.555,645.414C450.039,646.713 451.767,647.785 453.212,649.124C453.62,649.502 452.88,649.908 453.879,650.173C454.158,650.247 455.16,651.136 455.43,651.409C455.985,651.965 456.332,653.12 456.766,653.508C457.769,654.404 459.009,654.242 460.087,655.118C460.613,655.548 460.978,656.811 461.421,657.219C462.875,658.549 464.592,659.628 466.077,660.927C466.48,661.28 465.756,661.714 466.744,661.977C467.15,662.085 467.867,662.892 468.296,663.214C468.874,663.645 470.04,664.011 470.732,664.636C471.045,664.918 470.909,666.349 471.183,666.55C471.601,666.855 472.575,666.577 472.951,666.924C473.456,667.386 473.841,668.606 474.286,669.024C474.95,669.642 475.885,669.735 476.724,670.447C477.24,670.885 477.613,672.14 478.059,672.547C478.334,672.799 479.668,672.604 479.826,672.92C480.616,674.5 482.811,676.736 484.933,678.543C485.639,679.143 486.744,680.671 488.038,681.016C488.305,681.087 489.33,681.985 489.591,682.252C490.065,682.742 490.48,683.926 490.925,684.351C491.2,684.614 492.533,684.404 492.694,684.725C493.381,686.1 493.91,686.52 495.581,688.061C511.874,703.083 529.188,718.858 546.378,734.229C548.719,734.792 550.052,734.356 552.117,733.623C553.249,733.222 556.659,733.159 558.956,732.341C559.465,732.161 563.475,730.648 564.912,730.875C565.454,730.959 568.933,730.709 570.65,730.268C571.236,730.118 572.363,729.017 572.851,728.917C574.285,728.624 575.113,729.058 576.605,728.8C577.025,728.729 576.758,727.975 577.705,728.124C579.194,728.359 578.824,727.813 579.69,727.634C581.074,727.35 582.039,727.879 583.443,727.521C584.033,727.369 585.154,726.269 585.645,726.167C587.383,725.809 589.335,726.289 591.384,725.561C591.71,725.446 592.427,724.899 592.485,724.886C593.866,724.587 594.833,725.129 596.238,724.77C596.833,724.617 597.943,723.524 598.44,723.416C599.953,723.097 601.008,723.522 602.193,723.301C602.797,723.19 603.534,723.039 604.178,722.812C605.034,722.507 608.21,721.402 610.134,721.344C612.697,721.263 614.404,720.975 616.972,720.063C618.472,719.53 622.06,719.51 624.697,718.967C625.155,718.872 624.826,718.139 625.798,718.291C626.583,718.416 628.392,717.801 629.767,717.311C631.219,716.797 634.707,716.786 637.492,716.218C637.948,716.125 637.623,715.389 638.592,715.542C639.038,715.612 640.005,715.16 640.578,715.052C643.661,714.474 646.553,713.886 650.286,713.469C649.031,711.293 646.121,710.397 643.864,709.386C641.88,708.498 639.676,708.49 637.005,707.029C636.532,706.771 636.357,705.987 636.338,705.98C633.484,704.758 630.404,704.389 627.712,703.248C627.592,703.198 627.768,702.391 627.044,702.199C624.847,701.616 623.772,701.222 621.07,700.03C613.601,696.728 606.528,693.167 598.497,689.809C595.98,688.757 593.093,688.265 590.756,687.265C590.629,687.211 590.814,686.409 590.087,686.216C588.965,685.917 587.616,685.905 586.55,685.469C586.447,685.427 586.591,684.607 585.884,684.419C579.45,682.709 571.385,678.289 564.862,675.435C564.238,675.164 561.658,675.213 561.324,674.688C560.733,673.759 560.346,673.758 558.887,673.266C558.63,673.179 557.222,673.101 557.118,672.892C556.559,671.77 556.016,672.198 554.682,671.469C554.213,671.212 554.032,670.427 554.015,670.419C551.328,669.273 548.242,668.91 545.39,667.689C545.263,667.635 545.449,666.834 544.721,666.64C543.599,666.342 542.251,666.33 541.184,665.893C541.083,665.85 541.225,665.032 540.517,664.843C537.513,664.044 534.377,662.415 531.223,661.062C491.231,643.921 451.052,627.085 411.944,609.517C411.648,609.451 411.353,609.389 411.058,609.326ZM505.96,643.001C505.37,642.877 504.781,642.752 504.19,642.628C503.404,645.021 510.86,643.786 505.96,643.001ZM512.817,645.36C511.933,645.173 511.048,644.985 510.164,644.798C508.644,644.223 508.144,645.232 509.063,645.475C510.242,645.725 511.42,645.973 512.601,646.222C511.19,648.415 516.145,646.699 516.805,648.018C518.029,650.471 527.597,653.021 531.855,654.832C538.186,657.525 544.084,660.541 550.225,663.256C562.807,668.817 575.488,673.868 588.067,679.427C613.334,690.593 639.066,700.997 663.532,712.631C654.291,749.449 645.05,786.269 635.808,823.088C637.075,823.074 637.084,821.082 637.56,819.821C638.891,819.835 638.75,817.782 639.31,816.558C640.885,813.105 643.687,807.18 645.644,802.447C645.963,801.676 645.863,800.577 646.293,799.858C647.844,797.276 650.725,789.664 652.845,784.886C653.89,782.528 655.369,780.58 656.346,778.357C658.369,773.747 659.8,768.713 661.797,764.06C662.797,761.723 664.245,759.901 665.297,757.53C666.359,755.138 667.037,752.472 668.131,749.95C673.494,737.584 680.179,723.13 685.818,709.16C629.177,688.147 571.675,667.392 515.254,646.781C513.936,646.302 513.802,645.969 512.817,645.36ZM444.152,648.121C440.977,648.249 445.131,649.503 445.487,650.22C445.867,650.98 446.05,652.583 446.607,653.183C446.872,653.467 448.21,653.225 448.375,653.557C448.456,653.718 448.042,654.289 448.158,654.42C448.712,655.043 449.981,655.134 450.596,655.843C450.947,656.248 450.709,657.391 451.047,657.755C452.136,658.927 453.093,659.029 454.15,660.228C454.733,660.89 454.729,661.604 455.486,662.328C456.454,663.253 456.943,664.296 458.372,665.664C458.836,666.106 459.469,666.39 459.924,666.901C460.42,667.454 460.796,668.477 461.259,669C461.702,669.499 462.354,669.706 462.812,670.236C463.584,671.132 464.039,672.515 464.813,673.386C465.365,674.003 466.639,674.102 467.25,674.809C467.605,675.219 467.362,676.351 467.701,676.721C468.399,677.482 469.586,677.346 470.136,678.145C470.423,678.562 470.272,679.702 470.588,680.058C471.267,680.818 472.478,680.688 473.025,681.481C473.313,681.898 473.159,683.036 473.477,683.394C473.736,683.685 475.077,683.432 475.245,683.768C477.151,687.588 481.973,691.789 485.242,695.874C486.644,697.625 487.577,698.611 489.68,700.446C490.082,700.797 489.361,701.233 490.348,701.496C491.818,701.887 491.511,704.373 493.234,704.832C494.705,705.223 494.398,707.707 496.122,708.167C496.867,708.365 497.947,710.306 499.009,711.502C499.56,712.124 499.874,713.097 500.344,713.602C500.609,713.886 501.947,713.644 502.112,713.975C502.492,714.734 502.675,716.339 503.231,716.939C503.497,717.222 504.834,716.98 505,717.311C505.08,717.473 504.668,718.046 504.784,718.175C506.722,720.33 508.945,721.933 510.774,723.983C511.355,724.635 511.357,725.366 512.109,726.084C513.077,727.009 513.567,728.054 514.996,729.419C515.964,730.346 516.453,731.389 517.883,732.755C518.355,733.206 518.962,733.478 519.435,733.992C520.239,734.865 520.66,736.27 521.437,737.139C521.989,737.759 523.263,737.859 523.875,738.564C524.236,738.983 523.982,740.091 524.324,740.476C524.877,741.096 526.149,741.193 526.762,741.899C527.119,742.314 526.871,743.434 527.213,743.813C527.901,744.573 529.102,744.442 529.649,745.236C529.937,745.655 529.783,746.791 530.101,747.148C530.36,747.44 531.701,747.186 531.87,747.523C532.824,749.437 534.188,750.792 536.091,752.958C536.58,753.516 536.964,754.537 537.426,755.057C538.489,756.255 540.396,757.793 541.866,759.629C543.267,761.381 544.202,762.368 546.304,764.201C546.707,764.553 545.984,764.989 546.972,765.25C548.442,765.644 548.135,768.13 549.859,768.589C551.331,768.98 551.023,771.465 552.747,771.925C553.426,772.104 554.615,774.114 555.633,775.26C556.185,775.881 556.498,776.852 556.968,777.36C557.233,777.643 558.571,777.4 558.737,777.733C559.115,778.492 559.298,780.095 559.856,780.694C560.12,780.98 561.458,780.738 561.624,781.068C562.003,781.828 562.185,783.431 562.744,784.031C563.009,784.315 564.347,784.074 564.512,784.405C564.931,785.242 564.912,787.129 566.515,787.554C567.261,787.752 568.144,789.276 568.735,789.838C569.703,790.766 570.193,791.809 571.623,793.177C572.591,794.103 573.079,795.144 574.509,796.512C574.981,796.963 575.588,797.234 576.062,797.747C576.875,798.631 577.284,800.004 578.062,800.896C578.618,801.53 579.881,801.606 580.5,802.321C580.861,802.739 580.607,803.845 580.951,804.232C581.504,804.851 582.775,804.948 583.387,805.656C583.747,806.07 583.497,807.189 583.838,807.568C585.596,809.519 588.11,811.408 589.829,813.377C590.316,813.935 590.702,814.956 591.165,815.477C591.61,815.982 592.248,816.18 592.716,816.712C593.206,817.272 593.59,818.291 594.051,818.813C594.499,819.318 595.134,819.518 595.603,820.049C596.094,820.607 596.476,821.628 596.939,822.149C597.383,822.649 598.032,822.853 598.491,823.386C599.414,824.449 599.617,825.566 600.495,826.534C601.183,827.295 602.382,827.162 602.932,827.957C603.203,828.353 603.077,829.546 603.382,829.87C604.061,830.591 605.135,830.698 605.818,831.294C606.22,831.645 605.498,832.08 606.486,832.343C607.957,832.735 607.648,835.221 609.372,835.678C610.108,835.876 611.155,837.759 612.261,839.014C613.208,840.091 614.154,841.236 615.148,842.351C615.703,842.974 616.011,843.945 616.485,844.45C616.748,844.735 618.087,844.492 618.253,844.823C618.63,845.584 618.814,847.188 619.372,847.788C619.635,848.071 620.974,847.829 621.139,848.161C621.393,848.667 622.185,852.353 623.361,850.445C634.478,806.149 645.596,761.852 656.714,717.553C653.643,717.811 650.138,718.627 647.006,719.137C646.358,719.243 642.599,720.85 641.051,720.605C640.606,720.535 639.64,720.989 639.067,721.095C636.622,721.553 633.011,721.882 630.241,722.866C628.209,723.59 622.632,723.989 619.431,725.126C618.448,725.477 614.508,726.097 612.594,726.408C611.946,726.515 608.185,728.12 606.638,727.877C606.193,727.807 605.226,728.259 604.652,728.366C603.256,728.627 600.891,728.526 598.916,728.971C598.437,729.077 598.796,729.801 597.814,729.647C596.773,729.482 595.26,730.325 593.843,730.626C591.572,731.109 589.292,731.434 587.003,731.907C584.634,732.4 582.31,732.759 580.163,733.188C579.552,733.31 578.832,733.447 578.18,733.679C576.854,734.148 571.271,735.087 569.354,735.448C568.75,735.563 568.014,735.709 567.369,735.939C566.861,736.121 562.85,737.632 561.414,737.407C560.464,737.257 556.15,738.937 554.573,738.687C552.945,738.431 548.483,740.724 545.75,740.458C544.051,740.006 542.834,738.748 541.761,737.8C541.006,737.132 540.986,736.302 540.425,735.699C540.163,735.415 538.823,735.658 538.658,735.326C538.233,734.477 536.783,733.451 534.886,731.804C534.482,731.455 535.205,731.018 534.218,730.754C532.87,730.395 530.574,727.436 528.894,725.994C528.023,725.247 526.682,724.343 525.792,723.52C525.311,723.078 524.889,721.799 524.456,721.421C524.176,721.177 522.844,721.36 522.688,721.048C522.617,720.907 523.014,720.288 522.905,720.185C522.073,719.402 520.689,718.533 519.801,717.711C515.506,713.753 511.121,709.787 506.934,705.908C506.422,705.433 505.04,705.11 504.497,704.484C504.187,704.124 504.356,702.86 504.046,702.572C503.771,702.314 502.438,702.517 502.278,702.198C502.218,702.078 502.591,701.408 502.494,701.334C502.211,701.118 500.873,701.258 500.725,700.961C500.654,700.821 501.051,700.198 500.941,700.098C499.741,698.991 498.174,698.532 496.953,697.438C496.163,696.733 495.686,694.952 494.95,694.29C493.812,693.266 492.033,692.59 490.963,691.63C490.473,691.191 490.063,689.91 489.627,689.53C489.348,689.285 488.015,689.469 487.859,689.157C487.555,688.548 486.055,686.108 484.972,685.822C484.979,685.823 482.728,684.621 482.534,684.398C482.234,684.049 482.385,682.758 482.083,682.485C481.013,681.517 479.258,680.827 478.096,679.825C477.367,679.196 476.899,677.811 475.877,677.538C474.415,677.149 473.427,675.224 472.106,674.016C467.439,669.749 461.412,664.61 456.135,659.738C454.102,657.862 452.247,655.869 450.145,653.929C448.145,652.087 445.483,650.659 444.152,648.121Z"/>
    </g>
</svg>
