<?xml version="1.0" encoding="iso-8859-1"?>
<!-- Generator: Adobe Illustrator 19.0.0, SVG Export Plug-In . SVG Version: 6.00 Build 0)  -->
<svg version="1.1" id="Capa_1" xmlns="http://www.w3.org/2000/svg" xmlns:xlink="http://www.w3.org/1999/xlink" x="0px" y="0px"
	 viewBox="0 0 511.995 511.995" style="enable-background:new 0 0 511.995 511.995;" xml:space="preserve">
<path style="fill:#91562F;" d="M411.76,134.849c-1.713,0-3.383-0.502-4.803-1.454c-15.481-10.35-33.688-15.862-52.31-15.853H157.391
	c-18.64-0.017-36.855,5.495-52.354,15.853c-2.587,1.705-5.876,1.912-8.653,0.545L61.77,116.633l7.736-15.49l30.287,15.126
	c17.376-10.497,37.296-16.044,57.598-16.035h197.256c20.327-0.017,40.265,5.53,57.658,16.035l30.244-15.126l7.736,15.49
	l-34.614,17.307C414.46,134.546,413.118,134.857,411.76,134.849z"/>
<path style="fill:#F9B44D;" d="M377.146,506.948H134.849c0-19.116,15.498-34.614,34.614-34.614h173.069
	C361.648,472.334,377.146,487.832,377.146,506.948z"/>
<path style="fill:#FA982F;" d="M342.532,472.334h-69.228c19.116,0,34.614,15.498,34.614,34.614h69.228
	C377.146,487.832,361.648,472.334,342.532,472.334z"/>
<polygon style="fill:#F9B44D;" points="307.918,472.334 204.076,472.334 238.69,437.72 273.304,437.72 "/>
<rect x="238.69" y="74.274" style="fill:#91562F;" width="34.614" height="363.446"/>
<path style="fill:#F9B44D;" d="M273.304,74.274H238.69l-8.913-35.644c-3.626-14.477,5.175-29.154,19.661-32.779
	c2.146-0.537,4.353-0.805,6.559-0.805l0,0c14.927,0,27.025,12.098,27.025,27.025c0,2.215-0.268,4.413-0.805,6.559L273.304,74.274z"
	/>
<path style="fill:#FA982F;" d="M255.997,5.047c-2.76,0.043-5.495,0.511-8.117,1.385c13.603,4.258,21.539,18.371,18.103,32.2
	l-8.904,35.644h16.225l8.913-35.644c3.626-14.477-5.175-29.154-19.661-32.779C260.419,5.324,258.213,5.047,255.997,5.047z"/>
<rect x="212.73" y="65.621" style="fill:#F9B44D;" width="86.535" height="17.307"/>
<g>
	<path style="fill:#F0E4D6;" d="M183.949,312.314l-83.714-182.657L16.521,312.314c-1.99,4.344-7.13,6.248-11.475,4.258l0,0l0,0
		c-4.344-1.99-6.248-7.13-4.258-11.474l0,0l91.58-199.817c1.99-4.344,7.13-6.248,11.475-4.257c1.886,0.865,3.392,2.371,4.258,4.257
		l91.58,199.817c1.99,4.344,0.087,9.484-4.258,11.474l0,0l0,0C191.079,318.571,185.947,316.658,183.949,312.314L183.949,312.314z"/>
	<path style="fill:#F0E4D6;" d="M495.474,312.314L411.76,129.657l-83.714,182.657c-1.99,4.344-7.13,6.248-11.475,4.258l0,0l0,0
		c-4.344-1.99-6.248-7.13-4.258-11.474l0,0l91.58-199.817c1.99-4.344,7.13-6.248,11.474-4.257c1.886,0.865,3.392,2.371,4.258,4.257
		l91.58,199.817c1.99,4.344,0.087,9.484-4.258,11.474l0,0l0,0C502.604,318.571,497.472,316.658,495.474,312.314L495.474,312.314z"/>
</g>
<path style="fill:#F9B44D;" d="M316.572,316.572h190.376l0,0l0,0c0,28.678-23.243,51.921-51.921,51.921h-86.535
	C339.824,368.492,316.572,345.249,316.572,316.572L316.572,316.572L316.572,316.572z"/>
<path style="fill:#FA982F;" d="M455.027,316.572c0,28.678-23.243,51.921-51.921,51.921h51.921c28.678,0,51.921-23.243,51.921-51.921
	H455.027z"/>
<path style="fill:#F9B44D;" d="M5.047,316.572h190.376l0,0l0,0c0,28.678-23.243,51.921-51.921,51.921H56.967
	C28.299,368.492,5.047,345.249,5.047,316.572L5.047,316.572L5.047,316.572z"/>
<path style="fill:#FA982F;" d="M143.502,316.572c0,28.678-23.243,51.921-51.921,51.921h51.921c28.678,0,51.921-23.243,51.921-51.921
	H143.502z"/>
<g>
</g>
<g>
</g>
<g>
</g>
<g>
</g>
<g>
</g>
<g>
</g>
<g>
</g>
<g>
</g>
<g>
</g>
<g>
</g>
<g>
</g>
<g>
</g>
<g>
</g>
<g>
</g>
<g>
</g>
</svg>
